<svg width="131" height="19" viewBox="0 0 131 19" fill="none" xmlns="http://www.w3.org/2000/svg">
    <g clip-path="url(#clip0_2001_1753)">
    <path d="M18.323 9.14165C18.3228 8.48285 18.1465 7.83424 17.8097 7.25233C17.4727 6.6704 16.9854 6.17287 16.3902 5.80324V1.0862C16.3905 0.978686 16.3585 0.873192 16.2975 0.781303C16.2365 0.689413 16.1492 0.614682 16.0449 0.565316C15.9407 0.515949 15.8236 0.493858 15.7065 0.501467C15.5895 0.509077 15.477 0.546093 15.3814 0.60845L10.4857 3.77134H7.8421L2.94218 0.60845C2.84658 0.546636 2.73429 0.510072 2.61756 0.50275C2.50082 0.495428 2.38414 0.517629 2.28025 0.56693C2.17634 0.616232 2.08924 0.690737 2.02841 0.78231C1.9676 0.873885 1.93541 0.979007 1.93537 1.0862V5.80324C1.33741 6.17341 0.848088 6.67272 0.510566 7.25714C0.173046 7.8415 -0.00229117 8.49305 2.26056e-05 9.15417C0.00233638 9.8153 0.18223 10.4658 0.523833 11.0482C0.865438 11.6305 1.35825 12.127 1.95879 12.4937C2.13302 14.133 2.96713 15.6544 4.29866 16.7612C5.6302 17.868 7.36379 18.4812 9.16177 18.4812C10.9597 18.4812 12.6933 17.868 14.0248 16.7612C15.3564 15.6544 16.1905 14.133 16.3647 12.4937C16.9672 12.1259 17.4612 11.6274 17.8029 11.0428C18.1445 10.458 18.3232 9.80487 18.323 9.14165ZM17.0458 9.14165C17.0458 9.70827 16.8624 10.2621 16.5187 10.7333C16.1751 11.2044 15.6866 11.5716 15.1152 11.7883C14.5437 12.0051 13.9149 12.0617 13.3082 11.9509C12.7017 11.8403 12.1445 11.5673 11.7073 11.1664C11.2701 10.7656 10.9725 10.2551 10.8521 9.69928C10.7316 9.14345 10.7939 8.56745 11.0308 8.04402C11.2679 7.52064 11.669 7.07343 12.1834 6.75889C12.6979 6.44436 13.3027 6.2767 13.9212 6.27708C14.7499 6.27811 15.5444 6.58029 16.1302 7.11732C16.716 7.65436 17.0453 8.38235 17.0458 9.14165ZM3.21038 2.21524L7.27164 4.83604C7.37932 4.90577 7.50798 4.94323 7.63989 4.94328H10.6858C10.8169 4.94283 10.9448 4.90539 11.0519 4.83604L15.1131 2.21524V5.26114C14.5117 5.10524 13.8808 5.06895 13.2628 5.15471C12.6447 5.24047 12.0538 5.44629 11.5298 5.75838C11.0057 6.07046 10.5605 6.48157 10.224 6.96421C9.88753 7.44684 9.66765 7.98974 9.57899 8.55665H8.75522C8.66649 7.98974 8.44661 7.44684 8.1102 6.96421C7.77371 6.48157 7.32849 6.07046 6.80439 5.75838C6.28031 5.44629 5.68945 5.24047 5.07141 5.15471C4.45339 5.06895 3.82248 5.10524 3.22102 5.26114L3.21038 2.21524ZM1.27766 9.14165C1.27766 8.5751 1.46105 8.02122 1.80462 7.55019C2.1482 7.07912 2.63655 6.71191 3.2079 6.49516C3.77925 6.27832 4.40795 6.2216 5.0145 6.33211C5.62104 6.44267 6.17818 6.71546 6.61545 7.1161C7.05278 7.51669 7.35055 8.02715 7.47122 8.58275C7.5919 9.13842 7.52998 9.71443 7.29331 10.2379C7.05665 10.7613 6.65583 11.2086 6.14165 11.5233C5.62745 11.8381 5.02291 12.0062 4.40449 12.0062C3.57555 12.0051 2.78088 11.7031 2.19473 11.166C1.60858 10.6291 1.27879 9.90102 1.27766 9.14165ZM9.15324 17.4076C7.78285 17.4112 6.45364 16.9788 5.39267 16.1843C4.33167 15.3897 3.6047 14.2824 3.33595 13.0513C3.93145 13.191 4.55236 13.2141 5.15827 13.1194C5.76419 13.0245 6.34152 12.8139 6.85275 12.5013C7.36392 12.1885 7.79747 11.7808 8.12535 11.3044C8.45316 10.828 8.66771 10.2937 8.75522 9.7364H9.57899C9.66643 10.2937 9.88106 10.828 10.2089 11.3044C10.5367 11.7808 10.9703 12.1885 11.4815 12.5013C11.9926 12.8139 12.57 13.0245 13.1759 13.1194C13.7818 13.2141 14.4027 13.191 14.9982 13.0513C14.7286 14.2867 13.9976 15.3974 12.9308 16.1924C11.8641 16.9874 10.5284 17.4172 9.15324 17.4076Z" fill="#5A5A5A"/>
    <path d="M12.0936 13.6291C11.9381 13.5687 11.7627 13.5671 11.6058 13.6248C11.449 13.6825 11.3236 13.7949 11.2571 13.9372C11.1943 14.073 11.0892 14.1888 10.955 14.2703C10.8209 14.3517 10.6635 14.3951 10.5025 14.3951C10.3415 14.3951 10.1842 14.3517 10.05 14.2703C9.91572 14.1888 9.81069 14.073 9.74793 13.9372C9.74793 13.9197 9.72874 13.9021 9.71815 13.8846L10.3567 13.2391C10.4165 13.1787 10.4557 13.1037 10.4699 13.0233C10.484 12.9427 10.4723 12.8602 10.4363 12.7857C10.4002 12.7112 10.3413 12.6478 10.2667 12.6033C10.1921 12.5589 10.1051 12.5352 10.0161 12.5352H8.2984C8.20959 12.5356 8.12284 12.5596 8.04858 12.6042C7.97433 12.6488 7.91576 12.7122 7.87996 12.7866C7.84416 12.861 7.83266 12.9434 7.84683 13.0237C7.86107 13.104 7.90037 13.1788 7.96001 13.2391L8.59856 13.8846C8.59856 13.9002 8.57936 13.9158 8.57083 13.9314C8.56238 13.947 8.57083 13.9314 8.57083 13.947C8.50769 14.0826 8.40236 14.1983 8.26793 14.2795C8.13366 14.3608 7.97623 14.4041 7.81522 14.4041C7.65421 14.4041 7.49681 14.3608 7.36243 14.2795C7.22814 14.1983 7.1228 14.0826 7.0596 13.947C7.03013 13.872 6.98424 13.8034 6.9248 13.7453C6.86534 13.6872 6.79359 13.6409 6.71392 13.609C6.63419 13.5772 6.54825 13.5606 6.46135 13.5604C6.37439 13.5601 6.28833 13.576 6.20836 13.6072C6.12841 13.6386 6.05625 13.6844 5.99632 13.7421C5.93639 13.7998 5.88995 13.8681 5.85984 13.9428C5.82973 14.0175 5.81659 14.097 5.82122 14.1765C5.82586 14.256 5.84816 14.3339 5.88677 14.4052C6.01642 14.6787 6.21394 14.9208 6.46363 15.1122C6.71335 15.3036 7.00833 15.4389 7.32517 15.5074C7.64203 15.5759 7.97189 15.5758 8.28865 15.507C8.60541 15.4382 8.90031 15.3027 9.14982 15.1111C9.40017 15.3043 9.69652 15.4411 10.015 15.5103C10.3335 15.5796 10.6653 15.5794 10.9837 15.5098C11.3021 15.4401 11.5982 15.303 11.8483 15.1095C12.0984 14.916 12.2953 14.6715 12.4235 14.3955C12.4899 14.2536 12.4925 14.0936 12.4308 13.95C12.369 13.8065 12.2477 13.6912 12.0936 13.6291Z" fill="#5A5A5A"/>
    <path d="M4.40281 11.2741C4.84034 11.273 5.25959 11.1132 5.56878 10.8296C5.87795 10.546 6.05187 10.1617 6.05243 9.76081V8.52061C6.06039 8.31744 6.02359 8.11494 5.94423 7.92513C5.86485 7.73526 5.74454 7.56205 5.59048 7.41573C5.43642 7.26941 5.25175 7.15305 5.04751 7.07361C4.84327 6.99412 4.62364 6.95312 4.40175 6.95312C4.17985 6.95312 3.96022 6.99412 3.75598 7.07361C3.55174 7.15305 3.36707 7.26941 3.21301 7.41573C3.05895 7.56205 2.93864 7.73526 2.85927 7.92513C2.7799 8.11494 2.7431 8.31744 2.75106 8.52061V9.76081C2.75162 10.162 2.92584 10.5467 3.23547 10.8302C3.54511 11.1139 3.96492 11.2736 4.40281 11.2741ZM4.02819 8.52061C4.0243 8.47359 4.03108 8.42626 4.04809 8.38156C4.0651 8.33701 4.09199 8.29613 4.12704 8.26141C4.16212 8.22676 4.20462 8.19916 4.25188 8.18026C4.29915 8.16136 4.35017 8.15161 4.40175 8.15161C4.45332 8.15161 4.50434 8.16136 4.55161 8.18026C4.59887 8.19916 4.64137 8.22676 4.67644 8.26141C4.71151 8.29613 4.73839 8.33701 4.7554 8.38156C4.77241 8.42626 4.77919 8.47359 4.7753 8.52061V9.76081C4.77919 9.80798 4.77241 9.85531 4.7554 9.89994C4.73839 9.94448 4.71151 9.98544 4.67644 10.02C4.64137 10.0547 4.59887 10.0823 4.55161 10.1012C4.50434 10.1201 4.45332 10.1299 4.40175 10.1299C4.35017 10.1299 4.29915 10.1201 4.25188 10.1012C4.20462 10.0823 4.16212 10.0547 4.12704 10.02C4.09199 9.98544 4.0651 9.94448 4.04809 9.89994C4.03108 9.85531 4.0243 9.80798 4.02819 9.76081V8.52061Z" fill="#5A5A5A"/>
    <path d="M15.0505 8.26369C14.9376 8.15704 14.7847 8.09366 14.6227 8.08661C14.4607 8.07949 14.3018 8.12914 14.1783 8.22536C14.0548 8.32166 13.9759 8.45741 13.9576 8.60501C13.9393 8.75269 13.9831 8.90104 14.0799 9.02029H12.2323C12.063 9.02029 11.9006 9.08186 11.7808 9.19159C11.6611 9.30131 11.5938 9.45011 11.5938 9.60529C11.5938 9.76039 11.6611 9.90919 11.7808 10.0189C11.9006 10.1286 12.063 10.1903 12.2323 10.1903H15.6103C15.7365 10.1901 15.8599 10.1558 15.9648 10.0915C16.0697 10.0272 16.1515 9.93589 16.1998 9.82909C16.248 9.72221 16.2607 9.60469 16.2361 9.49129C16.2115 9.37789 16.1508 9.27364 16.0616 9.19189L15.0505 8.26369Z" fill="#5A5A5A"/>
    <path d="M32.5302 6.52183V11.6149H33.3871V14.4335H31.6447L31.4948 13.2121H26.2673L26.1307 14.4335H24.375V11.6149H25.3002L26.3884 6.52183H32.5302ZM27.3842 11.6149H30.5299V8.07203H28.0384L27.3842 11.6149ZM39.5355 6.52183C39.8703 6.52183 40.1853 6.56683 40.4739 6.65492C40.7647 6.743 41.0137 6.86825 41.223 7.03071C41.4323 7.19126 41.5953 7.38502 41.712 7.61205C41.8288 7.83717 41.8882 8.0916 41.8882 8.37353C41.8882 8.58293 41.8442 8.78258 41.7582 8.97248C41.6723 9.1623 41.538 9.31298 41.3573 9.4266C41.6834 9.59678 41.9389 9.8121 42.1196 10.0745C42.3001 10.3367 42.3927 10.6812 42.3927 11.108C42.3927 11.3976 42.3289 11.6717 42.2011 11.93C42.0733 12.1884 41.8992 12.4115 41.6768 12.6014C41.4542 12.7913 41.1943 12.94 40.8947 13.0496C40.5951 13.1593 40.2734 13.2121 39.9277 13.2121H34.645V6.52183H39.5355ZM36.6496 9.01545H39.5223C39.6213 9.01545 39.7139 8.9685 39.802 8.87655C39.888 8.78453 39.932 8.6808 39.932 8.56725C39.932 8.4792 39.899 8.38125 39.8306 8.2776C39.7624 8.1738 39.6369 8.121 39.4562 8.121H36.6518V9.01545H36.6496ZM36.6496 11.6149H39.8769C40.0312 11.6149 40.1633 11.5699 40.2713 11.4798C40.3792 11.3898 40.4343 11.2645 40.4343 11.1001C40.4343 10.9455 40.377 10.8163 40.2646 10.7145C40.1501 10.6127 40.0047 10.5618 39.8219 10.5618H36.6496V11.6149ZM51.7265 9.87278C51.7265 10.3974 51.6097 10.875 51.3807 11.3056C51.1493 11.7362 50.8409 12.1062 50.4554 12.4135C50.0699 12.7208 49.6227 12.9577 49.1094 13.1279C48.5983 13.2982 48.0608 13.3824 47.4991 13.3824C46.9373 13.3824 46.3998 13.2982 45.8888 13.1279C45.3777 12.9577 44.9283 12.7208 44.5428 12.4135C44.1572 12.1062 43.8488 11.7382 43.6175 11.3056C43.3862 10.875 43.2717 10.3974 43.2717 9.87278C43.2717 9.34823 43.3862 8.87063 43.6175 8.44005C43.8488 8.0094 44.1572 7.63946 44.5428 7.33218C44.9283 7.02485 45.3754 6.788 45.8888 6.61776C46.3998 6.44745 46.9373 6.36326 47.4991 6.36326C48.0608 6.36326 48.5983 6.44745 49.1094 6.61776C49.6205 6.788 50.0699 7.02485 50.4554 7.33218C50.8409 7.63946 51.1493 8.00745 51.3807 8.44005C51.6097 8.87265 51.7265 9.35018 51.7265 9.87278ZM45.2741 9.87278C45.2741 10.1801 45.3313 10.4561 45.4438 10.7008C45.5561 10.9474 45.717 11.1569 45.9196 11.3291C46.1244 11.5033 46.3602 11.6364 46.6267 11.7284C46.8933 11.8204 47.1863 11.8674 47.5056 11.8674C47.8141 11.8674 48.1049 11.8204 48.378 11.7284C48.6512 11.6364 48.8869 11.5033 49.0852 11.3291C49.2856 11.1549 49.4421 10.9455 49.5544 10.7008C49.6668 10.4541 49.724 10.1782 49.724 9.87278C49.724 9.5655 49.6668 9.2895 49.5544 9.04485C49.4399 8.79825 49.2834 8.58878 49.0852 8.4165C48.8847 8.24235 48.649 8.10923 48.378 8.0172C48.1049 7.92525 47.8141 7.87828 47.5056 7.87828C47.1884 7.87828 46.8955 7.92525 46.6267 8.0172C46.3579 8.10923 46.1222 8.24235 45.9196 8.4165C45.7147 8.59073 45.5561 8.8002 45.4438 9.04485C45.3292 9.29153 45.2741 9.56753 45.2741 9.87278ZM54.9714 6.52183V10.7673L58.919 6.52183H60.8378V13.2121H58.8353V8.99003L54.8877 13.2121H52.9689V6.52183H54.9714ZM64.2346 6.52183V9.07028C64.2346 9.47543 64.3449 9.77295 64.5628 9.96285C64.7809 10.1528 65.0959 10.2487 65.506 10.2487H67.6381V6.52183H69.641V13.2121H67.6381V11.8458H65.2702C64.8164 11.8458 64.4019 11.7812 64.0317 11.6521C63.6597 11.5229 63.3403 11.3428 63.0716 11.1138C62.8028 10.8848 62.5979 10.6049 62.4525 10.28C62.3071 9.9531 62.2345 9.59295 62.2345 9.19755V6.52183H64.2346ZM73.2049 6.52183V8.96655H76.8946V6.52183H78.8969V13.2121H76.8946V10.5638H73.2049V13.2121H71.2026V6.52183H73.2049ZM82.4308 6.52183V7.94871H84.7858C85.2397 7.94871 85.6602 8.00745 86.0455 8.1249C86.4309 8.24235 86.7668 8.41268 87.0463 8.63378C87.3281 8.85698 87.5482 9.12705 87.7074 9.4461C87.8658 9.76515 87.945 10.1234 87.945 10.5188C87.945 10.9239 87.8658 11.288 87.7074 11.6168C87.5482 11.9438 87.3281 12.2276 87.0463 12.4663C86.7638 12.7052 86.4309 12.8891 86.0455 13.0184C85.6602 13.1474 85.2397 13.2121 84.7858 13.2121H80.4285V6.52183H82.4308ZM82.4308 11.5914H84.6487C85.1026 11.5914 85.4309 11.5053 85.6365 11.3311C85.8414 11.1569 85.9427 10.8887 85.9427 10.5266C85.9427 10.1723 85.8414 9.9198 85.6365 9.77108C85.4309 9.62228 85.1026 9.54795 84.6487 9.54795H82.4308V11.5914ZM90.4759 6.52183V13.2121H88.4736V6.52183H90.4759ZM94.003 6.52183V10.7673L97.9505 6.52183H99.8691V13.2121H97.8668V8.99003L93.9192 13.2121H92.0007V6.52183H94.003ZM98.3047 5.51769C98.0694 5.68799 97.8493 5.825 97.6444 5.92874C97.4395 6.03444 97.243 6.11469 97.0518 6.17145C96.8599 6.22822 96.6748 6.26345 96.4943 6.28106C96.3138 6.29673 96.1219 6.30456 95.9216 6.30456C95.7213 6.30456 95.5316 6.29673 95.3488 6.28106C95.1683 6.2654 94.981 6.22822 94.7921 6.17145C94.5994 6.11469 94.4036 6.03444 94.1995 5.92874C93.9939 5.82304 93.7783 5.68603 93.5514 5.51769L94.4768 4.5625C94.6771 4.69169 94.8797 4.78761 95.0891 4.8522C95.2986 4.91679 95.5735 4.94811 95.9193 4.94811C96.2651 4.94811 96.5408 4.91679 96.7495 4.8522C96.9597 4.78761 97.1661 4.69169 97.3755 4.5625L98.3047 5.51769ZM106.855 6.52183V8.88038H108.623L110.434 6.52183H112.75L110.326 9.61838L112.913 13.2121H110.53L108.677 10.5148H106.852V13.2121H104.85V6.52183H106.855ZM121.712 9.87278C121.712 10.3974 121.595 10.875 121.365 11.3056C121.134 11.7362 120.825 12.1062 120.44 12.4135C120.055 12.7208 119.607 12.9577 119.094 13.1279C118.583 13.2982 118.045 13.3824 117.484 13.3824C116.922 13.3824 116.384 13.2982 115.873 13.1279C115.363 12.9577 114.914 12.7208 114.527 12.4135C114.142 12.1062 113.834 11.7382 113.602 11.3056C113.371 10.875 113.256 10.3974 113.256 9.87278C113.256 9.34823 113.371 8.87063 113.602 8.44005C113.834 8.0094 114.142 7.63946 114.527 7.33218C114.914 7.02485 115.36 6.788 115.873 6.61776C116.384 6.44745 116.922 6.36326 117.484 6.36326C118.045 6.36326 118.583 6.44745 119.094 6.61776C119.605 6.788 120.055 7.02485 120.44 7.33218C120.825 7.63946 121.134 8.00745 121.365 8.44005C121.595 8.87265 121.712 9.35018 121.712 9.87278ZM115.257 9.87278C115.257 10.1801 115.314 10.4561 115.426 10.7008C115.539 10.9474 115.7 11.1569 115.902 11.3291C116.107 11.5033 116.342 11.6364 116.61 11.7284C116.875 11.8204 117.169 11.8674 117.489 11.8674C117.796 11.8674 118.087 11.8204 118.361 11.7284C118.634 11.6364 118.869 11.5033 119.068 11.3291C119.269 11.1549 119.425 10.9455 119.537 10.7008C119.649 10.4541 119.707 10.1782 119.707 9.87278C119.707 9.5655 119.649 9.2895 119.537 9.04485C119.422 8.79825 119.265 8.58878 119.068 8.4165C118.867 8.24235 118.631 8.10923 118.361 8.0172C118.087 7.92525 117.796 7.87828 117.489 7.87828C117.171 7.87828 116.879 7.92525 116.61 8.0172C116.341 8.10923 116.105 8.24235 115.902 8.4165C115.697 8.59073 115.539 8.8002 115.426 9.04485C115.314 9.29153 115.257 9.56753 115.257 9.87278ZM130.221 6.52183V8.11898H127.294V13.2121H125.291V8.11898H122.363V6.52183H130.221Z" fill="#5A5A5A"/>
    </g>
    <defs>
    <clipPath id="clip0_2001_1753">
    <rect width="131" height="18" fill="white" transform="translate(0 0.5)"/>
    </clipPath>
    </defs>
    </svg>
