<svg width="24" height="24" viewBox="0 0 24 24" fill="none" xmlns="http://www.w3.org/2000/svg">
<path d="M21.375 2.625C21.5821 2.625 21.75 2.45711 21.75 2.25C21.75 2.04289 21.5821 1.875 21.375 1.875C21.1679 1.875 21 2.04289 21 2.25C21 2.45711 21.1679 2.625 21.375 2.625Z" fill="black"/>
<path d="M19.875 2.625C20.0821 2.625 20.25 2.45711 20.25 2.25C20.25 2.04289 20.0821 1.875 19.875 1.875C19.6679 1.875 19.5 2.04289 19.5 2.25C19.5 2.45711 19.6679 2.625 19.875 2.625Z" fill="black"/>
<path d="M18.375 2.625C18.5821 2.625 18.75 2.45711 18.75 2.25C18.75 2.04289 18.5821 1.875 18.375 1.875C18.1679 1.875 18 2.04289 18 2.25C18 2.45711 18.1679 2.625 18.375 2.625Z" fill="black"/>
<path d="M22.6875 0H1.3125C0.964403 0 0.630564 0.138281 0.384422 0.384422C0.138281 0.630564 0 0.964403 0 1.3125L0 22.6875C0 23.0356 0.138281 23.3694 0.384422 23.6156C0.630564 23.8617 0.964403 24 1.3125 24H22.6875C23.0356 24 23.3694 23.8617 23.6156 23.6156C23.8617 23.3694 24 23.0356 24 22.6875V1.3125C24 0.964403 23.8617 0.630564 23.6156 0.384422C23.3694 0.138281 23.0356 0 22.6875 0ZM1.3125 0.75H22.6875C22.8367 0.75 22.9798 0.809263 23.0852 0.914752C23.1907 1.02024 23.25 1.16332 23.25 1.3125V3.75H0.75V1.3125C0.75 1.16332 0.809263 1.02024 0.914752 0.914752C1.02024 0.809263 1.16332 0.75 1.3125 0.75ZM22.6875 23.25H1.3125C1.16332 23.25 1.02024 23.1907 0.914752 23.0852C0.809263 22.9798 0.75 22.8367 0.75 22.6875V4.5H23.25V22.6875C23.25 22.8367 23.1907 22.9798 23.0852 23.0852C22.9798 23.1907 22.8367 23.25 22.6875 23.25Z" fill="black"/>
<path d="M12.0187 15.8064C10.5524 15.8064 9.2212 16.4439 8.62495 17.4376C8.59285 17.4799 8.57009 17.5285 8.55818 17.5802C8.54626 17.632 8.54547 17.6856 8.55585 17.7377C8.56622 17.7898 8.58753 17.839 8.61837 17.8822C8.6492 17.9254 8.68886 17.9616 8.73472 17.9884C8.78058 18.0151 8.83159 18.0318 8.88438 18.0373C8.93717 18.0429 8.99054 18.0372 9.04096 18.0206C9.09137 18.004 9.13769 17.9768 9.17684 17.941C9.21599 17.9051 9.24709 17.8614 9.26807 17.8126C9.7312 17.0458 10.8112 16.5508 12.0187 16.5508C13.1568 16.5508 14.2106 17.0083 14.7037 17.7151C14.7305 17.7584 14.7659 17.7957 14.8076 17.8248C14.8493 17.854 14.8965 17.8743 14.9464 17.8846C14.9962 17.8949 15.0476 17.895 15.0975 17.8848C15.1473 17.8746 15.1946 17.8543 15.2364 17.8253C15.2781 17.7963 15.3136 17.759 15.3405 17.7158C15.3674 17.6727 15.3853 17.6244 15.393 17.5741C15.4007 17.5238 15.3981 17.4725 15.3853 17.4232C15.3725 17.374 15.3499 17.3278 15.3187 17.2876C14.6812 16.3764 13.4156 15.8064 12.0187 15.8064ZM9.11057 13.3895C9.18231 13.4509 9.27459 13.483 9.36897 13.4794C9.46334 13.4758 9.55287 13.4366 9.61966 13.3698C9.68644 13.3031 9.72557 13.2135 9.72921 13.1192C9.73286 13.0248 9.70076 12.9325 9.63932 12.8608L8.40557 11.6251L9.63932 10.3895C9.70076 10.3178 9.73286 10.2255 9.72921 10.1311C9.72557 10.0367 9.68644 9.94721 9.61966 9.88042C9.55287 9.81363 9.46334 9.77451 9.36897 9.77086C9.27459 9.76722 9.18231 9.79932 9.11057 9.86076L7.87495 11.0945L6.63932 9.86076C6.56758 9.79932 6.4753 9.76722 6.38093 9.77086C6.28655 9.77451 6.19702 9.81363 6.13023 9.88042C6.06345 9.94721 6.02432 10.0367 6.02068 10.1311C6.01703 10.2255 6.04914 10.3178 6.11057 10.3895L7.34432 11.6251L6.11057 12.8608C6.07132 12.8944 6.03943 12.9357 6.01692 12.9823C5.99442 13.0288 5.98177 13.0795 5.97977 13.1311C5.97778 13.1828 5.98648 13.2343 6.00533 13.2824C6.02418 13.3305 6.05278 13.3742 6.08933 13.4107C6.12587 13.4473 6.16958 13.4759 6.2177 13.4947C6.26582 13.5136 6.31732 13.5223 6.36897 13.5203C6.42061 13.5183 6.47129 13.5057 6.51781 13.4832C6.56433 13.4606 6.6057 13.4288 6.63932 13.3895L7.87495 12.1558L9.11057 13.3895ZM17.8893 9.86076C17.8191 9.79091 17.724 9.75171 17.6249 9.75171C17.5259 9.75171 17.4308 9.79091 17.3606 9.86076L16.1249 11.0945L14.8893 9.86076C14.8176 9.79932 14.7253 9.76722 14.6309 9.77086C14.5365 9.77451 14.447 9.81363 14.3802 9.88042C14.3134 9.94721 14.2743 10.0367 14.2707 10.1311C14.267 10.2255 14.2991 10.3178 14.3606 10.3895L15.5943 11.6251L14.3606 12.8608C14.3213 12.8944 14.2894 12.9357 14.2669 12.9823C14.2444 13.0288 14.2318 13.0795 14.2298 13.1311C14.2278 13.1828 14.2365 13.2343 14.2553 13.2824C14.2742 13.3305 14.3028 13.3742 14.3393 13.4107C14.3759 13.4473 14.4196 13.4759 14.4677 13.4947C14.5158 13.5136 14.5673 13.5223 14.619 13.5203C14.6706 13.5183 14.7213 13.5057 14.7678 13.4832C14.8143 13.4606 14.8557 13.4288 14.8893 13.3895L16.1249 12.1558L17.3606 13.3895C17.4323 13.4509 17.5246 13.483 17.619 13.4794C17.7133 13.4758 17.8029 13.4366 17.8697 13.3698C17.9364 13.3031 17.9756 13.2135 17.9792 13.1192C17.9829 13.0248 17.9508 12.9325 17.8893 12.8608L16.6556 11.6251L17.8893 10.3895C17.9592 10.3192 17.9984 10.2242 17.9984 10.1251C17.9984 10.0261 17.9592 9.93102 17.8893 9.86076Z" fill="black"/>
</svg>
