<svg width="42" height="42" viewBox="0 0 42 42" fill="none" xmlns="http://www.w3.org/2000/svg">
<circle cx="21" cy="21" r="21" fill="#121212"/>
<path fill-rule="evenodd" clip-rule="evenodd" d="M20.9932 14.1358C18.9938 11.7984 15.6597 11.1696 13.1547 13.31C10.6496 15.4504 10.297 19.029 12.2642 21.5604C13.8998 23.6651 18.8498 28.1041 20.4721 29.5408C20.6536 29.7016 20.7444 29.7819 20.8502 29.8135C20.9426 29.8411 21.0437 29.8411 21.1361 29.8135C21.2419 29.7819 21.3327 29.7016 21.5142 29.5408C23.1365 28.1041 28.0865 23.6651 29.7221 21.5604C31.6893 19.029 31.3797 15.4279 28.8316 13.31C26.2835 11.1922 22.9925 11.7984 20.9932 14.1358Z" stroke="white" stroke-linecap="round" stroke-linejoin="round"/>
</svg>
