<svg width="1871" height="319" viewBox="0 0 1871 319" fill="none" xmlns="http://www.w3.org/2000/svg">
<path d="M168.288 31.2136C177.551 31.2136 184.242 34.158 184.242 45.5545V318.547H249.087V72.1883C249.087 41.3292 244.712 8.29297 192.734 8.29297H56.3533C4.50312 8.29297 0 41.3292 0 72.1883V318.547H64.9735V45.5545C64.9735 34.158 71.5352 31.2136 80.9275 31.2136H168.288Z" fill="#2A2A2A"/>
<path d="M566.301 318.539L639.251 54.126C648.515 22.4981 662.41 0.21875 699.078 0.21875C742.436 0.21875 749.642 31.2054 761.093 68.4669L835.458 318.539H766.882L739.477 224.426H622.526L596.537 318.539H566.301ZM730.857 194.336L695.346 73.5885C690.33 55.662 690.973 44.1379 680.936 44.1379C670.773 44.1379 669.357 56.4308 664.984 74.3574L631.016 194.336H730.857Z" fill="#2A2A2A"/>
<path d="M475.952 318.49L404.417 73.5391C399.4 55.6125 400.171 44.0884 390.137 44.0884C379.972 44.0884 378.556 56.3814 374.182 74.3063L305.605 318.619H275.371L348.193 54.2041C357.457 22.5763 371.352 0.296875 408.02 0.296875C451.378 0.296875 458.584 31.2835 470.035 68.545L544.528 318.619H475.952V318.49Z" fill="#2A2A2A"/>
<path d="M861.758 318.551V8.29688H926.216V143.385H1044.84V8.29688H1110.84V318.551H1044.84V173.475H926.216V318.551H861.758Z" fill="#2A2A2A"/>
<path d="M1350.76 31.2136H1227.38C1217.86 31.2136 1211.43 34.158 1211.43 45.5545V143.253H1326.19V173.471H1211.43V273.987C1211.43 288.328 1220.05 295.499 1236 295.499H1359.51V318.547H1196.24C1165.24 318.547 1146.45 304.205 1146.45 263.999V72.1883C1146.45 41.3292 1150.83 8.29297 1202.81 8.29297H1350.76V31.2136Z" fill="#2A2A2A"/>
<path d="M1474.73 318.551V31.2175H1383.25V8.29688H1632.33V31.2175H1540.86V318.551H1474.73Z" fill="#2A2A2A"/>
<path d="M1601.66 318.539L1674.61 54.126C1684.01 22.4981 1697.77 0.21875 1734.56 0.21875C1777.92 0.21875 1785.12 31.2054 1796.57 68.4669L1870.94 318.539H1802.36L1774.96 224.426H1658.01L1632.01 318.539H1601.66ZM1766.22 194.336L1730.84 73.5885C1725.82 55.662 1726.59 44.1379 1716.42 44.1379C1706.25 44.1379 1704.84 56.4308 1700.59 74.3574L1666.64 194.336H1766.22Z" fill="#2A2A2A"/>
</svg>
