<svg width="142" height="25" viewBox="0 0 142 25" fill="none" xmlns="http://www.w3.org/2000/svg">
<path d="M12.7621 2.3526C13.4646 2.3526 13.972 2.57453 13.972 3.43352V24.0099H18.8895V5.441C18.8895 3.11505 18.5578 0.625 14.616 0.625H4.27355C0.341494 0.625 0 3.11505 0 5.441V24.0099H4.92727V3.43352C4.92727 2.57453 5.42487 2.3526 6.13714 2.3526H12.7621Z" fill="white"/>
<path d="M42.9453 24.0085L48.4775 4.07879C49.18 1.6949 50.2337 0.015625 53.0145 0.015625C56.3025 0.015625 56.849 2.35119 57.7174 5.15971L63.3568 24.0085H58.1564L56.0781 16.9148H47.2091L45.2382 24.0085H42.9453ZM55.4244 14.6468L52.7315 5.54575C52.351 4.19457 52.3998 3.32596 51.6387 3.32596C50.868 3.32596 50.7606 4.25251 50.4289 5.6037L47.853 14.6468H55.4244Z" fill="white"/>
<path d="M36.0939 24.0067L30.669 5.54394C30.2885 4.19276 30.347 3.32415 29.5861 3.32415C28.8152 3.32415 28.7078 4.25071 28.3762 5.60177L23.1756 24.0164H20.8828L26.4053 4.0866C27.1078 1.70271 28.1615 0.0234375 30.9423 0.0234375C34.2303 0.0234375 34.7767 2.359 35.6451 5.16752L41.2943 24.0164H36.0939V24.0067Z" fill="white"/>
<path d="M65.3516 24.0099V0.625H70.2398V10.807H79.2358V0.625H84.241V24.0099H79.2358V13.075H70.2398V24.0099H65.3516Z" fill="white"/>
<path d="M102.431 2.3526H93.0747C92.3526 2.3526 91.8648 2.57453 91.8648 3.43352V10.7974H100.568V13.075H91.8648V20.6512C91.8648 21.7321 92.5185 22.2727 93.7282 22.2727H103.095V24.0099H90.7134C88.3619 24.0099 86.9375 22.9288 86.9375 19.8984V5.441C86.9375 3.11505 87.2692 0.625 91.211 0.625H102.431V2.3526Z" fill="white"/>
<path d="M111.836 24.0099V2.3526H104.898V0.625H123.787V2.3526H116.851V24.0099H111.836Z" fill="white"/>
<path d="M121.461 24.0085L126.993 4.07879C127.706 1.6949 128.749 0.015625 131.539 0.015625C134.828 0.015625 135.374 2.35119 136.243 5.15971L141.882 24.0085H136.682L134.603 16.9148H125.734L123.763 24.0085H121.461ZM133.94 14.6468L131.257 5.54575C130.877 4.19457 130.935 3.32596 130.164 3.32596C129.393 3.32596 129.286 4.25251 128.964 5.6037L126.389 14.6468H133.94Z" fill="white"/>
</svg>
