<svg width="165" height="126" viewBox="0 0 165 126" fill="none" xmlns="http://www.w3.org/2000/svg">
<path d="M14.8235 115.809C5.55882 105.618 0 94.5 0 75.9706C0 43.5441 23.1618 14.8235 55.5882 0L63.9265 12.0441C33.3529 28.7206 26.8677 50.0294 25.0147 63.9265C29.6471 61.1471 36.1324 60.2206 42.6176 61.1471C59.2941 63 72.2647 75.9706 72.2647 93.5735C72.2647 101.912 68.5588 110.25 63 116.735C56.5147 123.221 49.1029 126 39.8382 126C29.6471 126 20.3824 121.368 14.8235 115.809ZM107.471 115.809C98.2059 105.618 92.6471 94.5 92.6471 75.9706C92.6471 43.5441 115.809 14.8235 148.235 0L156.574 12.0441C126 28.7206 119.515 50.0294 117.662 63.9265C122.294 61.1471 128.779 60.2206 135.265 61.1471C151.941 63 164.912 75.9706 164.912 93.5735C164.912 101.912 161.206 110.25 155.647 116.735C150.088 123.221 141.75 126 132.485 126C122.294 126 113.029 121.368 107.471 115.809Z" fill="#E8E8E8"/>
</svg>
