<svg width="24" height="24" viewBox="0 0 24 24" fill="none" xmlns="http://www.w3.org/2000/svg">
    <rect width="24" height="24" rx="12" fill="white"/>
    <path id="innerR" fill-rule="evenodd" clip-rule="evenodd" d="M17.2561 10.8148C17.2561 10.2916 17.2002 9.9069 17.1165 9.63386C17.0395 9.38302 16.9084 9.16054 16.7119 8.95133C16.5043 8.75924 16.2769 8.62369 15.9976 8.53012C15.6991 8.44487 15.3066 8.39058 14.7989 8.39058H6.44759V17.1441H7.92865V14.4713C7.92865 14.1946 8.14796 13.9703 8.4185 13.9703H13.1338L13.1488 13.9706C13.3037 13.9754 13.4477 14.0551 13.5363 14.1859L15.5416 17.1441H17.0523L15.2784 14.76C15.1739 14.6195 15.1494 14.4331 15.2139 14.2694C15.2784 14.1057 15.4225 13.9888 15.5931 13.9617C16.243 13.8585 16.6345 13.6287 16.8583 13.335L16.8688 13.321C17.0966 13.0126 17.2561 12.4443 17.2561 11.5462V10.8148ZM15.4106 12.5568C15.6855 12.3181 15.775 11.9511 15.775 11.59V10.7709C15.775 10.4192 15.683 10.0552 15.4107 9.81876C15.2694 9.69595 15.0971 9.63059 14.9404 9.59356C14.7781 9.55521 14.5955 9.53868 14.4011 9.53867H8.4185C8.14796 9.53867 7.92865 9.76296 7.92865 10.0396V12.3214C7.92865 12.598 8.14796 12.8223 8.4185 12.8223H14.4011L14.4151 12.8221C14.5966 12.8215 14.7707 12.8096 14.9264 12.7776C15.0794 12.7463 15.2609 12.6868 15.4106 12.5568Z" fill="#121212"  stroke="#121212" stroke-width="1"/>
    <path fill-rule="nonzero" clip-rule="evenodd" d="M17.1165 9.63386C17.2002 9.9069 17.2561 10.2916 17.2561 10.8148V11.5462C17.2561 12.4443 17.0966 13.0126 16.8688 13.321L16.8583 13.335C16.6345 13.6287 16.243 13.8585 15.5931 13.9617C15.4225 13.9888 15.2784 14.1057 15.2139 14.2694C15.1494 14.4331 15.1739 14.6195 15.2784 14.76L17.0523 17.1441H15.5416L13.5363 14.1859C13.4477 14.0551 13.3037 13.9754 13.1488 13.9706L13.1338 13.9703H8.4185C8.14796 13.9703 7.92865 14.1946 7.92865 14.4713V17.1441H6.44759V8.39058H14.7989C15.3066 8.39058 15.6991 8.44487 15.9976 8.53012C16.2769 8.62369 16.5043 8.75924 16.7119 8.95133C16.9084 9.16054 17.0395 9.38302 17.1165 9.63386ZM17.6505 13.925C18.0709 13.3558 18.2358 12.52 18.2358 11.5462V10.8148C18.2358 10.2265 18.1739 9.73368 18.0512 9.33395C17.9271 8.92916 17.7171 8.57919 17.4322 8.27195L17.4044 8.24234L17.3945 8.23223L17.3843 8.22242L17.3544 8.19472C17.044 7.91118 16.6969 7.70834 16.2905 7.57395L16.2819 7.57119L16.2732 7.56858L16.2347 7.55768C15.8348 7.44676 15.3584 7.38867 14.7989 7.38867H5.95774C5.69144 7.38867 5.47476 7.606 5.46805 7.87669L5.4679 7.88962V17.6451C5.4679 17.9217 5.68721 18.146 5.95774 18.146H8.4185C8.68903 18.146 8.90834 17.9217 8.90834 17.6451V14.9722H12.8773L14.8826 17.9305C14.9741 18.0655 15.1245 18.146 15.2852 18.146H18.0405C18.2267 18.146 18.3968 18.0381 18.4794 17.8675C18.5621 17.697 18.5431 17.4932 18.4304 17.3417L16.5062 14.7557C16.9758 14.5797 17.3666 14.3093 17.6505 13.925Z" fill="#121212"/>
    <path d="M17.7639 7.3893C18.188 7.3893 18.5321 7.0453 18.5321 6.62092C18.5321 6.19654 18.188 5.85254 17.7639 5.85254C17.3394 5.85254 16.9954 6.19654 16.9954 6.62092C16.9954 7.0453 17.3394 7.3893 17.7639 7.3893Z" fill="#121212"/>
    </svg>
