<svg width="26" height="21" viewBox="0 0 26 21" fill="none" xmlns="http://www.w3.org/2000/svg">
    <path d="M18.1993 20.2002C20.6294 20.2002 22.5993 18.2302 22.5993 15.8002C22.5993 13.3701 20.6294 11.4001 18.1993 11.4001C15.7693 11.4001 13.7993 13.3701 13.7993 15.8002C13.7993 18.2302 15.7693 20.2002 18.1993 20.2002Z" stroke="#121212" stroke-miterlimit="10" stroke-linecap="round" stroke-linejoin="round"/>
    <path d="M7.79967 9.80016C10.2297 9.80016 12.1997 7.8302 12.1997 5.40014C12.1997 2.97008 10.2297 1.00012 7.79967 1.00012C5.36961 1.00012 3.39966 2.97008 3.39966 5.40014C3.39966 7.8302 5.36961 9.80016 7.79967 9.80016Z" stroke="#121212" stroke-miterlimit="10" stroke-linecap="round" stroke-linejoin="round"/>
    <path d="M25 15.8001H22.6M1 5.40015H3.4M13.8 15.8001H1M12.2 5.40015H25" stroke="#121212" stroke-miterlimit="10" stroke-linecap="round" stroke-linejoin="round"/>
    </svg>
