<svg width="36" height="36" viewBox="0 0 36 36" fill="none" xmlns="http://www.w3.org/2000/svg">
<circle cx="18" cy="18" r="18" fill="#121212"/>
<path d="M20.2036 15.7967C19.9666 15.5583 19.7039 15.347 19.4203 15.1667C18.669 14.6856 17.7956 14.43 16.9036 14.43C16.2906 14.4289 15.6834 14.549 15.117 14.7836C14.5507 15.0181 14.0363 15.3624 13.6036 15.7967L9.36366 20.04C8.49116 20.9141 8.00079 22.0985 8 23.3336C7.99836 25.9109 10.0863 28.0016 12.6636 28.0032C13.2757 28.0053 13.8821 27.8862 14.4479 27.6528C15.0137 27.4194 15.5277 27.0763 15.9603 26.6432L19.4603 23.1432C19.5072 23.0966 19.5393 23.037 19.5523 22.9721C19.5653 22.9072 19.5587 22.8399 19.5333 22.7788C19.5079 22.7176 19.4649 22.6654 19.4098 22.6288C19.3546 22.5922 19.2898 22.5729 19.2236 22.5732H19.0903C18.359 22.5758 17.6343 22.4354 16.957 22.1599C16.8959 22.1348 16.8288 22.1284 16.7642 22.1414C16.6995 22.1545 16.6401 22.1864 16.5936 22.2333L14.077 24.7532C13.2955 25.5347 12.0285 25.5347 11.247 24.7532C10.4655 23.9718 10.4655 22.7047 11.247 21.9233L15.5036 17.67C16.2845 16.8901 17.5494 16.8901 18.3303 17.67C18.8565 18.1652 19.6774 18.1652 20.2036 17.67C20.43 17.4434 20.5673 17.1428 20.5903 16.8233C20.6023 16.6345 20.5741 16.4454 20.5074 16.2684C20.4407 16.0914 20.3371 15.9306 20.2036 15.7967Z" fill="white"/>
<path d="M26.6331 9.36689C24.8106 7.54437 21.8557 7.54437 20.0331 9.36689L16.5365 12.8602C16.4896 12.9073 16.4578 12.9675 16.4453 13.0328C16.4329 13.0981 16.4402 13.1657 16.4665 13.2269C16.4924 13.2882 16.5361 13.3403 16.592 13.3765C16.6478 13.4128 16.7132 13.4315 16.7798 13.4302H16.9031C17.6335 13.4288 18.3571 13.5704 19.0331 13.8469C19.0941 13.872 19.1612 13.8784 19.2259 13.8653C19.2906 13.8523 19.3499 13.8203 19.3964 13.7735L21.9064 11.2669C22.6879 10.4854 23.9549 10.4854 24.7364 11.2669C25.5179 12.0484 25.5179 13.3154 24.7364 14.0968L21.6097 17.2201L21.583 17.2501L20.4897 18.3368C19.7089 19.1167 18.4439 19.1167 17.6631 18.3368C17.1368 17.8415 16.316 17.8415 15.7898 18.3368C15.5619 18.5651 15.4246 18.8683 15.4031 19.1901C15.391 19.3789 15.4193 19.5681 15.486 19.7451C15.5526 19.9221 15.6562 20.0829 15.7898 20.2168C16.1756 20.6042 16.627 20.9202 17.1231 21.1501C17.1931 21.1834 17.2631 21.2101 17.3331 21.2401C17.4031 21.2701 17.4764 21.2934 17.5464 21.3201C17.6165 21.3464 17.6877 21.3698 17.7597 21.3901L17.9564 21.4434C18.0897 21.4767 18.2231 21.5034 18.3597 21.5267C18.5243 21.5512 18.6901 21.5668 18.8564 21.5734H19.1097L19.3097 21.5501C19.383 21.5468 19.4597 21.5301 19.5464 21.5301H19.6597L19.8897 21.4968L19.9964 21.4768L20.1897 21.4368H20.2264C21.0452 21.2311 21.7928 20.8072 22.3897 20.2101L26.633 15.9668C28.4556 14.1443 28.4556 11.1894 26.6331 9.36689Z" fill="white"/>
</svg>
