<svg width="36" height="36" viewBox="0 0 36 36" fill="none" xmlns="http://www.w3.org/2000/svg">
<rect width="36" height="36" rx="18" fill="#121212"/>
<path d="M18.8839 24.3C12.119 24.3 8.26038 19.5703 8.09961 11.7H11.4882C11.5995 17.4766 14.0977 19.9234 16.0765 20.4279V11.7H19.2673V16.682C21.2213 16.4676 23.2742 14.1973 23.9668 11.7H27.1576C26.8966 12.9952 26.3764 14.2215 25.6295 15.3023C24.8825 16.383 23.925 17.295 22.8167 17.9811C24.0538 18.608 25.1465 19.4954 26.0227 20.5846C26.8988 21.6738 27.5386 22.9401 27.8996 24.3H24.3873C24.0632 23.1189 23.4045 22.0615 22.4937 21.2606C21.5829 20.4596 20.4605 19.9506 19.2673 19.7973V24.3H18.8839V24.3Z" fill="white"/>
</svg>
