<svg width="24" height="24" viewBox="0 0 24 24" fill="none" xmlns="http://www.w3.org/2000/svg">
    <rect width="24" height="24" rx="12" fill="white"/>
    <path d="M16.9438 6.78407C16.9438 6.78407 18.1579 6.31063 18.0563 7.46032C18.0229 7.93376 17.7195 9.59094 17.4832 11.3831L16.6738 16.6925C16.6738 16.6925 16.6063 17.4703 15.9992 17.6056C15.3923 17.7406 14.4817 17.1322 14.3129 16.9969C14.1779 16.8953 11.7835 15.3734 10.9404 14.6297C10.7042 14.4266 10.4342 14.0209 10.9742 13.5475L14.5154 10.1656C14.9201 9.75938 15.3248 8.81251 13.6385 9.96251L8.91665 13.175C8.91665 13.175 8.37697 13.5134 7.3654 13.2091L5.1729 12.5325C5.1729 12.5325 4.36353 12.0253 5.74634 11.5181C9.11915 9.92876 13.2676 8.30563 16.9435 6.78376" fill="#121212"/>
</svg>
