<svg width="24" height="24" viewBox="0 0 24 24" fill="none" xmlns="http://www.w3.org/2000/svg">
    <rect width="24" height="24" rx="12" fill="white"/>
    <path d="M19.8545 15.2415C19.5359 14.7229 18.2417 13.6057 18.2417 13.6057C17.0481 12.6286 17.0481 12.5632 18.1715 11.2755L18.7249 10.6369C19.9643 9.16914 20.0435 8.68522 19.9765 8.52658C19.9383 8.4266 19.7356 8.38794 19.4399 8.38794H16.7249C16.6594 8.38884 16.595 8.40203 16.5359 8.4266C16.4566 8.46792 16.3895 8.57457 16.3666 8.60923C16.1102 9.19327 15.8072 9.7608 15.4596 10.3076C14.3285 12.0047 13.9108 12.0047 13.7721 12.0047C13.7104 12.0057 13.6498 11.9904 13.5983 11.9607C13.1999 11.7306 13.2171 11.1715 13.2323 10.6778L13.2325 10.6742L13.237 10.4183C13.237 10.0503 13.2507 9.73838 13.2645 9.46242C13.3087 8.49058 13.298 8.20663 12.795 8.10132C12.5465 8.04666 12.3696 8.008 11.6837 8H11.3315C10.6989 8 10.0617 8.02266 9.70802 8.1773C9.58769 8.23002 9.48363 8.3073 9.40466 8.4026C9.59978 8.43459 9.92143 8.52125 10.1105 8.74921C10.3742 9.06382 10.3757 9.71971 10.3757 9.78237C10.3986 10.1156 10.4946 11.722 9.97936 11.9727C9.91421 12.0034 9.8415 12.0199 9.76747 12.0207C9.37265 12.0207 8.88026 11.5194 8.0769 10.285C7.58146 9.52775 7.27963 8.85452 7.19731 8.68522C7.12719 8.53991 7.02658 8.37594 6.71864 8.37594H4.40916C4.15154 8.37594 3.91525 8.50525 4.02958 8.74654C4.04483 8.7812 5.85888 12.5112 7.87415 14.3709C9.52051 15.8894 11.3788 15.9987 11.7355 15.9987H12.7828C12.9764 15.9987 13.2508 15.824 13.2508 15.5201C13.2508 14.5469 13.6258 14.1816 13.9184 14.099C13.9652 14.0856 14.0141 14.0788 14.0633 14.079C14.4505 14.079 14.8346 14.4683 15.2782 14.9188L15.2799 14.9206C15.5766 15.2227 15.881 15.5324 16.1898 15.7214C16.5923 15.964 16.9246 16 17.0831 16H19.3697C19.4947 15.992 19.8606 15.9013 19.9673 15.7174C20.0324 15.6072 20.0003 15.4574 19.8713 15.2681C19.8692 15.2619 19.8636 15.253 19.8545 15.2415Z" fill="#121212"/>
    </svg>
