<svg xmlns="http://www.w3.org/2000/svg">
    <symbol id="default" width="68" height="47" viewBox="0 0 68 47" fill="none" xmlns="http://www.w3.org/2000/svg">
        <path d="M52.5645 41.8912C52.5645 37.1594 51.8847 32.4738 50.5639 28.1021C49.243 23.7305 47.3071 19.7583 44.8666 16.4123C42.4261 13.0664 39.5287 10.4123 36.3401 8.60143C33.1513 6.79063 27.3129 4.19558 26.2823 4.19558C25.2516 4.19558 19.4131 6.79063 16.2245 8.60143C13.0358 10.4123 10.1385 13.0664 7.69789 16.4123C5.25736 19.7583 3.32142 23.7305 2.00061 28.1021C0.67981 32.4738 -3.01734e-07 37.1594 0 41.8912C-2.91519e-07 37.3195 1.5465 32.7926 2.82259 28.5689C4.09869 24.3452 5.96909 20.5075 8.327 17.2748C10.685 14.0422 13.4841 11.4778 16.565 9.72838C19.6457 7.97885 25.2516 5.58144 26.2823 5.58144C27.3129 5.58144 32.9188 7.97885 35.9995 9.72838C39.0803 11.4778 41.8796 14.0422 44.2374 17.2748C46.5954 20.5075 48.4657 24.3452 49.7419 28.5689C51.018 32.7926 52.5645 37.3195 52.5645 41.8912Z" fill="#27AE60"/>
        <path fill-rule="evenodd" clip-rule="evenodd" d="M9.24737 33.0997L7.68604 37.7762H5.42944L11.7661 19.8579H13.7148L14.3785 21.8023H14.3697L19.3999 36.0009L28.4927 21.8023H14.9657L14.3018 19.8579H32.2121L30.2915 22.8772L21.9851 35.844H35.8047V37.7762H17.7837L16.1995 33.0997L15.1969 30.1216C15.433 29.6021 15.5727 29.0691 15.6611 28.6269L15.6239 28.6556C15.4251 28.8095 15.2127 28.9741 14.8402 29.0621L12.7235 22.7745L10.37 29.8604C10.859 29.5346 11.6314 29.0223 12.5323 29.206C14.2688 29.5602 14.9582 29.3536 15.3413 29.0585C15.086 30.3376 14.0644 32.3054 11.5108 32.1579C10.1951 32.0167 10.1223 30.5007 9.24737 33.0997ZM10.1223 30.5007L10.0606 30.6841C10.1689 30.709 10.2854 30.7245 10.4094 30.7243C10.7262 30.8204 11.3256 31.2941 11.3328 31.6897C11.3308 31.5816 11.3042 31.4407 11.2557 31.3035C11.2072 31.1665 11.134 31.0251 11.0338 30.9218C10.9821 30.8684 10.9298 30.8217 10.8773 30.7806C11.0756 30.8012 11.2847 30.8151 11.5044 30.8194C11.7683 30.8003 12.4639 31.3889 12.4639 31.5615C12.4639 31.5615 12.4639 31.0436 12.1023 30.8073C12.2782 30.7967 12.4597 30.7796 12.6472 30.7549C12.7291 30.7549 12.8158 30.7447 12.904 30.7166C12.9259 30.7129 12.9479 30.7092 12.97 30.7054C13.1296 30.7574 13.5728 31.1383 13.5395 31.3512C13.5495 31.287 13.5482 31.2028 13.5343 31.1193C13.5204 31.0359 13.4926 30.9448 13.4438 30.8712C13.3794 30.774 13.3078 30.7027 13.2347 30.65C13.5226 30.5774 13.7943 30.4691 14.0266 30.3502C14.3155 30.2024 14.5731 29.9745 14.7021 29.8353C14.4197 30.1403 13.7319 30.3333 13.3256 30.4474L13.2867 30.4583C13.3602 30.3733 13.4105 30.2559 13.4427 30.143C13.4763 30.0248 13.4927 29.9015 13.4912 29.8057C13.4922 29.8709 13.2262 30.2789 13.1642 30.347C13.0674 30.453 12.9673 30.5145 12.8688 30.5478C12.7908 30.5606 12.7138 30.572 12.6378 30.5821L12.6279 30.582V30.5835C12.4797 30.6031 12.3353 30.6178 12.1945 30.6282C12.2131 30.6139 12.2317 30.5986 12.2503 30.5824C12.3474 30.4976 12.4216 30.3682 12.4732 30.2404C12.5253 30.1116 12.5585 29.9749 12.5681 29.8671C12.5596 29.9617 12.2356 30.3733 12.1498 30.4481C12.003 30.5762 11.8581 30.6321 11.7214 30.648C11.6587 30.6486 11.5967 30.6484 11.5355 30.6474C11.5303 30.6468 11.5249 30.647 11.5196 30.6472C11.5137 30.6474 11.5078 30.6476 11.502 30.6468C11.3165 30.643 11.1388 30.6322 10.9688 30.6163C10.9968 30.6055 11.0251 30.5937 11.0537 30.5809C11.2066 30.5125 11.3456 30.3888 11.4557 30.2572C11.5659 30.1256 11.6526 29.9798 11.698 29.8604C11.6413 30.0094 11.1417 30.3548 10.9926 30.4214C10.8004 30.5071 10.6221 30.5445 10.4579 30.5508C10.4282 30.546 10.399 30.541 10.37 30.536C10.3101 30.522 10.2516 30.5128 10.1951 30.5069C10.1707 30.503 10.1463 30.5015 10.1223 30.5007Z" fill="#27AE60"/>
        <path d="M36.2841 21.8023H31.5857L32.8226 19.8579H43.7946V21.8023H38.4609V37.7762H36.2841V21.8023Z" fill="#27AE60"/>
        <path d="M65.7016 24.6264C66.4768 29.2835 66.2455 30.8596 66.0334 33.9191C65.5079 29.4342 65.6804 29.3808 64.8518 25.0368C64.0344 20.7521 62.676 18.6114 60.5782 15.3057L60.4907 15.1678C58.3432 11.7831 55.7128 9.03557 52.7499 7.08212C49.7869 5.12863 46.3664 3.17668 45.3379 3.10718C39.9773 3.68881 28.3641 4.67164 25.8417 5.61403C24.2161 5.65782 21.851 5.57128 25.3867 4.4267C29.5958 3.06419 40.3059 2.24952 45.4259 1.72429C46.4544 1.79378 50.0944 3.95864 53.1612 5.98057C56.228 8.00249 58.9506 10.8463 61.1733 14.3496C63.3961 17.8529 64.9265 19.9695 65.7016 24.6264Z" fill="#27AE60"/>
        <path d="M2.29942 45.5306H0.868604L0.572437 46.1878H0.17627L1.39554 43.5589H1.77633L2.99944 46.1878H2.59558L2.29942 45.5306ZM2.1648 45.2301L1.58401 43.9419L1.00322 45.2301H2.1648Z" fill="#2F2F2F"/>
        <path d="M5.22134 44.1965V46.187H4.8521V44.5119H3.97515L3.95207 44.9551C3.93925 45.223 3.91489 45.4471 3.87899 45.6274C3.84309 45.8051 3.78411 45.9479 3.70206 46.0555C3.62001 46.1632 3.5059 46.217 3.35974 46.217C3.29308 46.217 3.21743 46.2058 3.13281 46.1832L3.15589 45.879C3.18923 45.8865 3.21999 45.8902 3.2482 45.8902C3.35077 45.8902 3.42769 45.8464 3.47898 45.7588C3.53026 45.6712 3.5636 45.5673 3.57898 45.4471C3.59437 45.327 3.60847 45.1555 3.62129 44.9326L3.6559 44.1965H5.22134Z" fill="#2F2F2F"/>
        <path d="M7.83552 45.2044C7.83552 45.232 7.83296 45.2683 7.82783 45.3133H6.17393C6.197 45.4886 6.27521 45.6301 6.40855 45.7377C6.54445 45.8429 6.71241 45.8955 6.91242 45.8955C7.15601 45.8955 7.35218 45.8153 7.5009 45.6551L7.70475 45.888C7.61244 45.9931 7.49705 46.0732 7.35858 46.1283C7.22269 46.1834 7.07012 46.2109 6.90087 46.2109C6.68549 46.2109 6.49445 46.1684 6.32778 46.0832C6.16111 45.9956 6.03162 45.8742 5.9393 45.7189C5.84956 45.5637 5.80469 45.3884 5.80469 45.1932C5.80469 45.0004 5.84828 44.8264 5.93546 44.6711C6.02521 44.5159 6.147 44.3957 6.30085 44.3105C6.45727 44.2229 6.63292 44.1791 6.82779 44.1791C7.02268 44.1791 7.19576 44.2229 7.34705 44.3105C7.5009 44.3957 7.62013 44.5159 7.70475 44.6711C7.79193 44.8264 7.83552 45.0041 7.83552 45.2044ZM6.82779 44.4834C6.65087 44.4834 6.50214 44.5359 6.38163 44.641C6.26368 44.7462 6.19444 44.8839 6.17393 45.0542H7.48166C7.46115 44.8864 7.39064 44.7499 7.27012 44.6449C7.15216 44.5372 7.00472 44.4834 6.82779 44.4834Z" fill="#2F2F2F"/>
        <path d="M9.25816 45.3457H8.83509V46.187H8.46582V44.1965H8.83509V45.0378H9.26582L9.9274 44.1965H10.3236L9.55047 45.1541L10.3774 46.187H9.94281L9.25816 45.3457Z" fill="#2F2F2F"/>
        <path d="M11.6431 46.2109C11.4354 46.2109 11.2495 46.1671 11.0855 46.0795C10.9239 45.9919 10.7969 45.8716 10.7047 45.7189C10.6124 45.5637 10.5662 45.3884 10.5662 45.1932C10.5662 44.9979 10.6124 44.8238 10.7047 44.6711C10.7969 44.5159 10.9239 44.3957 11.0855 44.3105C11.2495 44.2229 11.4354 44.1791 11.6431 44.1791C11.8278 44.1791 11.9918 44.2154 12.1355 44.288C12.2817 44.3606 12.3944 44.4658 12.4739 44.6035L12.1932 44.78C12.129 44.6848 12.0496 44.6135 11.9547 44.5659C11.8598 44.5184 11.7547 44.4946 11.6393 44.4946C11.5059 44.4946 11.3854 44.5234 11.2778 44.581C11.1727 44.6386 11.0892 44.7212 11.0277 44.8289C10.9687 44.934 10.9393 45.0554 10.9393 45.1932C10.9393 45.3334 10.9687 45.4573 11.0277 45.565C11.0892 45.6702 11.1727 45.7515 11.2778 45.8091C11.3854 45.8667 11.5059 45.8955 11.6393 45.8955C11.7547 45.8955 11.8598 45.8716 11.9547 45.8241C12.0496 45.7766 12.129 45.7052 12.1932 45.61L12.4739 45.7828C12.3944 45.9205 12.2817 46.0269 12.1355 46.102C11.9918 46.1747 11.8278 46.2109 11.6431 46.2109Z" fill="#2F2F2F"/>
        <path d="M13.7367 44.1791C14.0188 44.1791 14.2342 44.2467 14.3829 44.3819C14.5342 44.5172 14.6098 44.7187 14.6098 44.9866V46.1884H14.2599V45.9255C14.1983 46.0181 14.1098 46.0895 13.9944 46.1395C13.8816 46.1872 13.747 46.2109 13.5905 46.2109C13.3623 46.2109 13.179 46.1571 13.0406 46.0494C12.9047 45.9418 12.8367 45.8003 12.8367 45.625C12.8367 45.4498 12.9021 45.3096 13.0328 45.2044C13.1636 45.0968 13.3713 45.0429 13.6559 45.0429H14.2406V44.9715C14.2406 44.8164 14.1944 44.6974 14.1022 44.6148C14.0098 44.5321 13.8739 44.4908 13.6944 44.4908C13.5739 44.4908 13.456 44.5109 13.3406 44.5509C13.2251 44.5885 13.1277 44.6398 13.0482 44.7049L12.8944 44.4345C12.9995 44.3519 13.1252 44.2892 13.2714 44.2467C13.4175 44.2016 13.5726 44.1791 13.7367 44.1791ZM13.6521 45.933C13.7931 45.933 13.9149 45.9029 14.0175 45.8429C14.1201 45.7803 14.1944 45.6927 14.2406 45.58V45.3021H13.6713C13.3585 45.3021 13.2021 45.4047 13.2021 45.61C13.2021 45.7102 13.2418 45.7891 13.3214 45.8466C13.4008 45.9042 13.5111 45.933 13.6521 45.933Z" fill="#2F2F2F"/>
        <path d="M15.3325 44.1965H15.7017V45.0415H16.8633V44.1965H17.2326V46.187H16.8633V45.3532H15.7017V46.187H15.3325V44.1965Z" fill="#2F2F2F"/>
        <path d="M20.0815 45.8715V46.6489H19.7353V46.187H18.0314V46.6489H17.6814V45.8715H17.7891C17.9199 45.864 18.0096 45.7738 18.0583 45.6011C18.107 45.4283 18.1404 45.1842 18.1583 44.8687L18.1892 44.1965H19.7699V45.8715H20.0815ZM18.4968 44.895C18.4866 45.1454 18.4648 45.3532 18.4315 45.5185C18.4006 45.6812 18.343 45.7989 18.2584 45.8715H19.4007V44.5119H18.5161L18.4968 44.895Z" fill="#2F2F2F"/>
        <path d="M21.701 44.1791C21.8983 44.1791 22.0753 44.2217 22.2317 44.3068C22.3881 44.3919 22.5099 44.5109 22.5971 44.6636C22.6869 44.8164 22.7317 44.9928 22.7317 45.1932C22.7317 45.3935 22.6869 45.5712 22.5971 45.7265C22.5099 45.8792 22.3881 45.9981 22.2317 46.0832C22.0753 46.1684 21.8983 46.2109 21.701 46.2109C21.5548 46.2109 21.4202 46.1834 21.2971 46.1283C21.1766 46.0732 21.074 45.9931 20.9894 45.888V46.917H20.6201V44.1979H20.974V44.5133C21.056 44.4032 21.1599 44.3206 21.2856 44.2655C21.4112 44.2079 21.5497 44.1791 21.701 44.1791ZM21.6702 45.8955C21.8009 45.8955 21.9176 45.8667 22.0201 45.8091C22.1253 45.749 22.2074 45.6663 22.2663 45.5612C22.3279 45.4535 22.3587 45.3309 22.3587 45.1932C22.3587 45.0554 22.3279 44.934 22.2663 44.8289C22.2074 44.7212 22.1253 44.6386 22.0201 44.581C21.9176 44.5234 21.8009 44.4946 21.6702 44.4946C21.542 44.4946 21.4253 44.5246 21.3202 44.5847C21.2176 44.6423 21.1355 44.7237 21.074 44.8289C21.015 44.934 20.9855 45.0554 20.9855 45.1932C20.9855 45.3309 21.015 45.4535 21.074 45.5612C21.133 45.6663 21.215 45.749 21.3202 45.8091C21.4253 45.8667 21.542 45.8955 21.6702 45.8955Z" fill="#2F2F2F"/>
        <path d="M24.199 46.2109C23.9965 46.2109 23.8144 46.1671 23.6529 46.0795C23.4913 45.9919 23.3644 45.8716 23.2721 45.7189C23.1824 45.5637 23.1375 45.3884 23.1375 45.1932C23.1375 44.9979 23.1824 44.8238 23.2721 44.6711C23.3644 44.5159 23.4913 44.3957 23.6529 44.3105C23.8144 44.2229 23.9965 44.1791 24.199 44.1791C24.4016 44.1791 24.5824 44.2229 24.7414 44.3105C24.903 44.3957 25.0285 44.5159 25.1183 44.6711C25.2106 44.8238 25.2568 44.9979 25.2568 45.1932C25.2568 45.3884 25.2106 45.5637 25.1183 45.7189C25.0285 45.8716 24.903 45.9919 24.7414 46.0795C24.5824 46.1671 24.4016 46.2109 24.199 46.2109ZM24.199 45.8955C24.3299 45.8955 24.4465 45.8667 24.5491 45.8091C24.6542 45.749 24.7362 45.6663 24.7952 45.5612C24.8542 45.4535 24.8837 45.3309 24.8837 45.1932C24.8837 45.0554 24.8542 44.934 24.7952 44.8289C24.7362 44.7212 24.6542 44.6386 24.5491 44.581C24.4465 44.5234 24.3299 44.4946 24.199 44.4946C24.0683 44.4946 23.9504 44.5234 23.8452 44.581C23.7427 44.6386 23.6605 44.7212 23.599 44.8289C23.54 44.934 23.5106 45.0554 23.5106 45.1932C23.5106 45.3309 23.54 45.4535 23.599 45.5612C23.6605 45.6663 23.7427 45.749 23.8452 45.8091C23.9504 45.8667 24.0683 45.8955 24.199 45.8955Z" fill="#2F2F2F"/>
        <path d="M27.2362 45.1541C27.5003 45.2193 27.6324 45.3808 27.6324 45.6387C27.6324 45.8139 27.5644 45.9491 27.4285 46.0443C27.2952 46.1394 27.0952 46.187 26.8285 46.187H25.8477V44.1965H26.7939C27.0349 44.1965 27.2234 44.2415 27.3592 44.3316C27.4952 44.4193 27.5632 44.5444 27.5632 44.7073C27.5632 44.8123 27.5336 44.9038 27.4747 44.9814C27.4183 45.0565 27.3388 45.1141 27.2362 45.1541ZM26.2093 45.0528H26.7631C26.9042 45.0528 27.0105 45.0277 27.0823 44.9776C27.1567 44.9275 27.1939 44.8549 27.1939 44.7599C27.1939 44.5695 27.0503 44.4744 26.7631 44.4744H26.2093V45.0528ZM26.8015 45.909C26.9555 45.909 27.0708 45.8853 27.1477 45.8377C27.2246 45.7901 27.2631 45.7163 27.2631 45.6161C27.2631 45.5134 27.2272 45.4371 27.1554 45.387C27.0862 45.337 26.9759 45.3119 26.8246 45.3119H26.2093V45.909H26.8015Z" fill="#2F2F2F"/>
        <path d="M29.1563 46.2109C28.9486 46.2109 28.7627 46.1671 28.5986 46.0795C28.4371 45.9919 28.3101 45.8716 28.2178 45.7189C28.1255 45.5637 28.0793 45.3884 28.0793 45.1932C28.0793 44.9979 28.1255 44.8238 28.2178 44.6711C28.3101 44.5159 28.4371 44.3957 28.5986 44.3105C28.7627 44.2229 28.9486 44.1791 29.1563 44.1791C29.341 44.1791 29.505 44.2154 29.6486 44.288C29.7948 44.3606 29.9076 44.4658 29.9871 44.6035L29.7064 44.78C29.6422 44.6848 29.5627 44.6135 29.4678 44.5659C29.373 44.5184 29.2679 44.4946 29.1525 44.4946C29.0191 44.4946 28.8986 44.5234 28.7909 44.581C28.6857 44.6386 28.6024 44.7212 28.5409 44.8289C28.4819 44.934 28.4524 45.0554 28.4524 45.1932C28.4524 45.3334 28.4819 45.4573 28.5409 45.565C28.6024 45.6702 28.6857 45.7515 28.7909 45.8091C28.8986 45.8667 29.0191 45.8955 29.1525 45.8955C29.2679 45.8955 29.373 45.8716 29.4678 45.8241C29.5627 45.7766 29.6422 45.7052 29.7064 45.61L29.9871 45.7828C29.9076 45.9205 29.7948 46.0269 29.6486 46.102C29.505 46.1747 29.341 46.2109 29.1563 46.2109Z" fill="#2F2F2F"/>
        <path d="M31.3153 45.3457H30.8922V46.187H30.5229V44.1965H30.8922V45.0378H31.3229L31.9845 44.1965H32.3807L31.6076 45.1541L32.4345 46.187H31.9999L31.3153 45.3457Z" fill="#2F2F2F"/>
        <path d="M32.8794 44.1965H33.2487V45.6461L34.4987 44.1965H34.8333V46.187H34.4641V44.7372L33.2178 46.187H32.8794V44.1965Z" fill="#2F2F2F"/>
        <path d="M35.6077 44.1974H35.9769V45.647L37.2269 44.1974H37.5616V46.1879H37.1923V44.7381L35.9461 46.1879H35.6077V44.1974ZM36.5616 43.9383C36.3718 43.9383 36.2243 43.8944 36.1192 43.8067C36.014 43.7166 35.9602 43.5877 35.9576 43.4199H36.2077C36.2102 43.5126 36.2423 43.5877 36.3038 43.6453C36.3679 43.7003 36.4526 43.7279 36.5577 43.7279C36.6628 43.7279 36.7474 43.7003 36.8115 43.6453C36.8756 43.5877 36.909 43.5126 36.9115 43.4199H37.1693C37.1667 43.5877 37.1115 43.7166 37.0038 43.8067C36.8961 43.8944 36.7487 43.9383 36.5616 43.9383Z" fill="#2F2F2F"/>
        <path d="M40.7766 44.8162C40.9458 44.8612 41.0779 44.9401 41.1728 45.0528C41.2676 45.1629 41.315 45.2957 41.315 45.4509C41.315 45.6061 41.2637 45.7425 41.1612 45.8602C41.0612 45.9754 40.9266 46.0643 40.7574 46.1269C40.5906 46.187 40.4086 46.2171 40.2112 46.2171C40.0317 46.2171 39.8535 46.1907 39.6765 46.1381C39.4996 46.0856 39.3381 46.0067 39.1919 45.9015L39.3265 45.6236C39.4444 45.7138 39.5766 45.7814 39.7227 45.8264C39.8689 45.8716 40.0163 45.8941 40.165 45.8941C40.3804 45.8941 40.5612 45.8503 40.7073 45.7626C40.8535 45.6725 40.9266 45.5497 40.9266 45.3945C40.9266 45.2618 40.8714 45.1604 40.7612 45.0903C40.651 45.0178 40.4958 44.9814 40.2958 44.9814H39.6958V44.6772H40.2689C40.4407 44.6772 40.574 44.6434 40.6689 44.5758C40.7663 44.5057 40.815 44.4093 40.815 44.2866C40.815 44.1489 40.7522 44.04 40.6266 43.9599C40.5009 43.8797 40.342 43.8396 40.1497 43.8396C40.024 43.8396 39.8957 43.8572 39.765 43.8922C39.6368 43.9274 39.515 43.9799 39.3996 44.05L39.2765 43.742C39.4124 43.6669 39.556 43.6106 39.7073 43.5731C39.8586 43.5355 40.0099 43.5167 40.1612 43.5167C40.3509 43.5167 40.5253 43.5455 40.6843 43.6031C40.8433 43.6607 40.9688 43.7446 41.0612 43.8547C41.1561 43.9649 41.2035 44.0938 41.2035 44.2415C41.2035 44.3742 41.165 44.4906 41.0882 44.5908C41.0138 44.691 40.9099 44.7661 40.7766 44.8162Z" fill="#2F2F2F"/>
        <path d="M42.6791 44.1791C42.9611 44.1791 43.1766 44.2467 43.3252 44.3819C43.4766 44.5172 43.5522 44.7187 43.5522 44.9866V46.1884H43.2022V45.9255C43.1407 46.0181 43.0522 46.0895 42.9368 46.1395C42.824 46.1872 42.6894 46.2109 42.5329 46.2109C42.3047 46.2109 42.1214 46.1571 41.9829 46.0494C41.8471 45.9418 41.7791 45.8003 41.7791 45.625C41.7791 45.4498 41.8445 45.3096 41.9752 45.2044C42.106 45.0968 42.3137 45.0429 42.5983 45.0429H43.183V44.9715C43.183 44.8164 43.1368 44.6974 43.0445 44.6148C42.9522 44.5321 42.8163 44.4908 42.6368 44.4908C42.5163 44.4908 42.3983 44.5109 42.2829 44.5509C42.1675 44.5885 42.0701 44.6398 41.9906 44.7049L41.8367 44.4345C41.9419 44.3519 42.0675 44.2892 42.2137 44.2467C42.3599 44.2016 42.515 44.1791 42.6791 44.1791ZM42.5945 45.933C42.7355 45.933 42.8573 45.9029 42.9598 45.8429C43.0624 45.7803 43.1368 45.6927 43.183 45.58V45.3021H42.6137C42.3008 45.3021 42.1444 45.4047 42.1444 45.61C42.1444 45.7102 42.1842 45.7891 42.2637 45.8466C42.3432 45.9042 42.4535 45.933 42.5945 45.933Z" fill="#2F2F2F"/>
        <path d="M45.6634 45.1541C45.9275 45.2193 46.0595 45.3808 46.0595 45.6387C46.0595 45.8139 45.9916 45.9491 45.8557 46.0443C45.7224 46.1394 45.5223 46.187 45.2557 46.187H44.2749V44.1965H45.221C45.4621 44.1965 45.6506 44.2415 45.7865 44.3316C45.9224 44.4193 45.9903 44.5444 45.9903 44.7073C45.9903 44.8123 45.9609 44.9038 45.9018 44.9814C45.8454 45.0565 45.7659 45.1141 45.6634 45.1541ZM44.6364 45.0528H45.1903C45.3313 45.0528 45.4377 45.0277 45.5095 44.9776C45.5839 44.9275 45.621 44.8549 45.621 44.7599C45.621 44.5695 45.4775 44.4744 45.1903 44.4744H44.6364V45.0528ZM45.2287 45.909C45.3826 45.909 45.498 45.8853 45.5749 45.8377C45.6519 45.7901 45.6903 45.7163 45.6903 45.6161C45.6903 45.5134 45.6544 45.4371 45.5826 45.387C45.5134 45.337 45.4031 45.3119 45.2519 45.3119H44.6364V45.909H45.2287Z" fill="#2F2F2F"/>
        <path d="M47.5682 46.2109C47.3656 46.2109 47.1836 46.1671 47.022 46.0795C46.8605 45.9919 46.7336 45.8716 46.6412 45.7189C46.5515 45.5637 46.5066 45.3884 46.5066 45.1932C46.5066 44.9979 46.5515 44.8238 46.6412 44.6711C46.7336 44.5159 46.8605 44.3957 47.022 44.3105C47.1836 44.2229 47.3656 44.1791 47.5682 44.1791C47.7708 44.1791 47.9515 44.2229 48.1105 44.3105C48.2721 44.3957 48.3977 44.5159 48.4875 44.6711C48.5797 44.8238 48.626 44.9979 48.626 45.1932C48.626 45.3884 48.5797 45.5637 48.4875 45.7189C48.3977 45.8716 48.2721 45.9919 48.1105 46.0795C47.9515 46.1671 47.7708 46.2109 47.5682 46.2109ZM47.5682 45.8955C47.699 45.8955 47.8156 45.8667 47.9182 45.8091C48.0233 45.749 48.1054 45.6663 48.1644 45.5612C48.2234 45.4535 48.2528 45.3309 48.2528 45.1932C48.2528 45.0554 48.2234 44.934 48.1644 44.8289C48.1054 44.7212 48.0233 44.6386 47.9182 44.581C47.8156 44.5234 47.699 44.4946 47.5682 44.4946C47.4374 44.4946 47.3195 44.5234 47.2143 44.581C47.1118 44.6386 47.0298 44.7212 46.9682 44.8289C46.9092 44.934 46.8797 45.0554 46.8797 45.1932C46.8797 45.3309 46.9092 45.4535 46.9682 45.5612C47.0298 45.6663 47.1118 45.749 47.2143 45.8091C47.3195 45.8667 47.4374 45.8955 47.5682 45.8955Z" fill="#2F2F2F"/>
        <path d="M51.2751 45.8715V46.6489H50.9289V46.187H49.225V46.6489H48.875V45.8715H48.9827C49.1134 45.864 49.2032 45.7738 49.2519 45.6011C49.3006 45.4283 49.334 45.1842 49.3519 44.8687L49.3827 44.1965H50.9635V45.8715H51.2751ZM49.6904 44.895C49.6802 45.1454 49.6583 45.3532 49.625 45.5185C49.5943 45.6812 49.5365 45.7989 49.4519 45.8715H50.5943V44.5119H49.7096L49.6904 44.895Z" fill="#2F2F2F"/>
        <path d="M54.8158 43.8856H53.8927V46.1878H53.5157V43.8856H52.5964V43.5589H54.8158V43.8856Z" fill="#2F2F2F"/>
        <path d="M56.9116 45.2044C56.9116 45.232 56.9091 45.2683 56.904 45.3133H55.25C55.2731 45.4886 55.3514 45.6301 55.4847 45.7377C55.6206 45.8429 55.7885 45.8955 55.9886 45.8955C56.2322 45.8955 56.4283 45.8153 56.5771 45.6551L56.7809 45.888C56.6885 45.9931 56.5732 46.0732 56.4347 46.1283C56.2988 46.1834 56.1463 46.2109 55.977 46.2109C55.7616 46.2109 55.5706 46.1684 55.4039 46.0832C55.2372 45.9956 55.1078 45.8742 55.0155 45.7189C54.9257 45.5637 54.8809 45.3884 54.8809 45.1932C54.8809 45.0004 54.9244 44.8264 55.0116 44.6711C55.1014 44.5159 55.2232 44.3957 55.377 44.3105C55.5334 44.2229 55.7091 44.1791 55.904 44.1791C56.0988 44.1791 56.2719 44.2229 56.4232 44.3105C56.5771 44.3957 56.6963 44.5159 56.7809 44.6711C56.8681 44.8264 56.9116 45.0041 56.9116 45.2044ZM55.904 44.4834C55.727 44.4834 55.5783 44.5359 55.4577 44.641C55.3398 44.7462 55.2706 44.8839 55.25 45.0542H56.5578C56.5373 44.8864 56.4668 44.7499 56.3462 44.6449C56.2283 44.5372 56.0808 44.4834 55.904 44.4834Z" fill="#2F2F2F"/>
        <path d="M59.4306 44.1965V46.187H59.0613V44.5119H57.9113V46.187H57.542V44.1965H59.4306Z" fill="#2F2F2F"/>
        <path d="M61.9528 44.1965V46.187H61.5835V44.5119H60.7066L60.6835 44.9551C60.6707 45.223 60.6463 45.4471 60.6104 45.6274C60.5746 45.8051 60.5156 45.9479 60.4335 46.0555C60.3514 46.1632 60.2374 46.217 60.0912 46.217C60.0245 46.217 59.9489 46.2058 59.8643 46.1832L59.8873 45.879C59.9206 45.8865 59.9514 45.8902 59.9797 45.8902C60.0822 45.8902 60.1592 45.8464 60.2105 45.7588C60.2618 45.6712 60.2951 45.5673 60.3105 45.4471C60.3258 45.327 60.3399 45.1555 60.3527 44.9326L60.3873 44.1965H61.9528Z" fill="#2F2F2F"/>
        <path d="M62.7244 44.1965H63.0936V45.6461L64.3436 44.1965H64.6783V46.187H64.309V44.7372L63.0628 46.187H62.7244V44.1965Z" fill="#2F2F2F"/>
        <path d="M67.6299 45.8715V46.664H67.2799V46.187H65.4529V44.1965H65.8221V45.8715H66.9376V44.1965H67.3068V45.8715H67.6299Z" fill="#2F2F2F"/>
    </symbol>
    <symbol id="white-text" width="107" height="74" viewBox="0 0 107 74" fill="none" xmlns="http://www.w3.org/2000/svg">
        <path d="M82.7118 65.956C82.7118 58.5059 81.6421 51.1286 79.5637 44.2455C77.4853 37.3625 74.4391 31.1084 70.5989 25.8403C66.7587 20.5722 62.1996 16.3934 57.1822 13.5423C52.1645 10.6913 42.9777 6.60547 41.3559 6.60547C39.7341 6.60547 30.5471 10.6913 25.5297 13.5423C20.5122 16.3934 15.9532 20.5722 12.1129 25.8403C8.2726 31.1084 5.22635 37.3625 3.14802 44.2455C1.0697 51.1286 -4.74787e-07 58.5059 0 65.956C-4.58714e-07 58.758 2.43346 51.6306 4.44143 44.9805C6.4494 38.3304 9.39254 32.2881 13.1028 27.1983C16.8131 22.1086 21.2177 18.0712 26.0655 15.3167C30.9131 12.5621 39.7341 8.78746 41.3559 8.78746C42.9777 8.78746 51.7987 12.5621 56.6463 15.3167C61.494 18.0712 65.8987 22.1086 69.6089 27.1983C73.3192 32.2881 76.2623 38.3304 78.2704 44.9805C80.2783 51.6306 82.7118 58.758 82.7118 65.956Z" fill="#27AE60" />
        <path fill-rule="evenodd" clip-rule="evenodd" d="M14.5508 52.1144L12.094 59.4774H8.54321L18.5142 31.2656H21.5805L22.6249 34.327H22.6109L30.5262 56.6823L44.834 34.327H23.5487L22.5042 31.2656H50.6865L47.6644 36.0194L34.5941 56.4353H56.3396V59.4774H27.983L25.4903 52.1144L23.9127 47.4255C24.2842 46.6075 24.504 45.7684 24.643 45.0721L24.5844 45.1173C24.2717 45.3597 23.9374 45.6188 23.3514 45.7573L20.0206 35.8577L16.3173 47.0142C17.0867 46.5013 18.3022 45.6947 19.7197 45.9839C22.4522 46.5416 23.5371 46.2163 24.1398 45.7516C23.7381 47.7655 22.1306 50.8639 18.1124 50.6316C16.0421 50.4093 15.9276 48.0224 14.5508 52.1144ZM15.9276 48.0224L15.8305 48.3112C16.0009 48.3503 16.1841 48.3747 16.3793 48.3744C16.8777 48.5258 17.821 49.2715 17.8323 49.8944C17.8292 49.7243 17.7874 49.5024 17.711 49.2864C17.6347 49.0706 17.5195 48.848 17.3618 48.6854C17.2804 48.6013 17.1982 48.5277 17.1156 48.4631C17.4276 48.4955 17.7566 48.5174 18.1023 48.5242C18.5176 48.4941 19.6122 49.4209 19.6122 49.6926C19.6122 49.6926 19.6122 48.8772 19.0432 48.5051C19.3199 48.4885 19.6056 48.4615 19.9006 48.4226C20.0295 48.4226 20.1659 48.4065 20.3047 48.3623C20.3391 48.3566 20.3738 48.3507 20.4085 48.3447C20.6596 48.4265 21.357 49.0262 21.3046 49.3614C21.3204 49.2603 21.3182 49.1278 21.2964 48.9963C21.2745 48.8651 21.2309 48.7217 21.1541 48.6058C21.0526 48.4526 20.9401 48.3405 20.825 48.2574C21.278 48.1432 21.7056 47.9726 22.0712 47.7855C22.5257 47.5527 22.9311 47.1939 23.134 46.9747C22.6896 47.4549 21.6074 47.7588 20.968 47.9385L20.9069 47.9557C21.0224 47.8218 21.1017 47.6369 21.1523 47.4592C21.2051 47.2731 21.231 47.079 21.2286 46.9281C21.2302 47.0308 20.8117 47.6731 20.714 47.7803C20.5618 47.9473 20.4043 48.0441 20.2492 48.0966C20.1265 48.1167 20.0054 48.1347 19.8858 48.1506L19.8702 48.1503V48.1527C19.637 48.1836 19.4097 48.2067 19.1883 48.2231C19.2175 48.2006 19.2468 48.1766 19.276 48.151C19.4288 48.0175 19.5456 47.8138 19.6268 47.6125C19.7088 47.4098 19.7609 47.1945 19.7761 47.0248C19.7627 47.1738 19.2529 47.8218 19.1178 47.9396C18.8869 48.1413 18.6588 48.2292 18.4439 48.2544C18.3451 48.2552 18.2476 48.2549 18.1513 48.2534C18.143 48.2524 18.1347 48.2527 18.1263 48.2531C18.1169 48.2534 18.1077 48.2537 18.0986 48.2524C17.8067 48.2464 17.5271 48.2295 17.2596 48.2044C17.3036 48.1873 17.3481 48.1688 17.3931 48.1487C17.6338 48.041 17.8525 47.8462 18.0258 47.639C18.1991 47.4318 18.3355 47.2023 18.407 47.0142C18.3178 47.2488 17.5317 47.7926 17.2969 47.8975C16.9946 48.0325 16.714 48.0914 16.4556 48.1012C16.409 48.0936 16.3629 48.0858 16.3173 48.078C16.2231 48.0559 16.131 48.0414 16.0421 48.0321C16.0037 48.0259 15.9654 48.0237 15.9276 48.0224Z" fill="#27AE60" />
        <path d="M57.0939 34.327H49.7009L51.6472 31.2656H68.912V34.327H60.5193V59.4774H57.0939V34.327Z" fill="#27AE60" />
        <path d="M103.383 38.7735C104.603 46.106 104.239 48.5875 103.906 53.4046C103.079 46.3432 103.35 46.2591 102.046 39.4197C100.76 32.6736 98.6225 29.3031 95.3216 24.0984L95.184 23.8813C91.8048 18.5521 87.6658 14.2262 83.0034 11.1506C78.3411 8.07486 72.9588 5.00158 71.3404 4.89216C62.9054 5.80792 44.6317 7.35536 40.6627 8.83911C38.1047 8.90806 34.3832 8.7718 39.9468 6.96969C46.5698 4.82447 63.4224 3.5418 71.479 2.71484C73.0974 2.82425 78.825 6.23275 83.6507 9.41621C88.4764 12.5997 92.7605 17.0772 96.258 22.593C99.7556 28.1089 102.164 31.4413 103.383 38.7735Z" fill="#27AE60" />
        <path d="M3.61794 71.6865H1.36651L0.90048 72.7213H0.2771L2.19566 68.582H2.79484L4.71944 72.7213H4.08396L3.61794 71.6865ZM3.4061 71.2134L2.49222 69.1852L1.57833 71.2134H3.4061Z" fill="white" />
        <path d="M8.21581 69.5859V72.7199H7.6348V70.0826H6.25489L6.21858 70.7804C6.1984 71.2022 6.16007 71.555 6.10357 71.8389C6.04709 72.1187 5.95429 72.3435 5.82517 72.513C5.69606 72.6825 5.51651 72.7672 5.28653 72.7672C5.18162 72.7672 5.0626 72.7495 4.92944 72.714L4.96576 72.235C5.01821 72.2469 5.06662 72.2527 5.111 72.2527C5.2724 72.2527 5.39344 72.1838 5.47414 72.0458C5.55484 71.9079 5.6073 71.7442 5.6315 71.555C5.65572 71.3658 5.6779 71.0958 5.69808 70.7449L5.75254 69.5859H8.21581Z" fill="white" />
        <path d="M12.3294 71.1729C12.3294 71.2163 12.3253 71.2734 12.3173 71.3444H9.7148C9.75111 71.6204 9.87417 71.8431 10.084 72.0126C10.2978 72.1782 10.5621 72.261 10.8768 72.261C11.2601 72.261 11.5688 72.1348 11.8028 71.8825L12.1236 72.2491C11.9783 72.4147 11.7968 72.5408 11.5789 72.6275C11.3651 72.7143 11.125 72.7576 10.8587 72.7576C10.5198 72.7576 10.2191 72.6906 9.95689 72.5566C9.69463 72.4186 9.49087 72.2275 9.34561 71.983C9.2044 71.7387 9.13379 71.4626 9.13379 71.1552C9.13379 70.8516 9.20238 70.5777 9.33957 70.3332C9.48078 70.0889 9.67243 69.8996 9.91452 69.7655C10.1607 69.6276 10.437 69.5586 10.7437 69.5586C11.0503 69.5586 11.3227 69.6276 11.5607 69.7655C11.8028 69.8996 11.9904 70.0889 12.1236 70.3332C12.2608 70.5777 12.3294 70.8575 12.3294 71.1729ZM10.7437 70.0376C10.4653 70.0376 10.2313 70.1203 10.0416 70.2859C9.85603 70.4515 9.74707 70.6683 9.7148 70.9364H11.7726C11.7403 70.6722 11.6293 70.4573 11.4397 70.2919C11.2541 70.1224 11.0221 70.0376 10.7437 70.0376Z" fill="white" />
        <path d="M14.5681 71.3953H13.9024V72.7199H13.3213V69.5859H13.9024V70.9105H14.5801L15.6211 69.5859H16.2446L15.028 71.0937L16.3292 72.7199H15.6454L14.5681 71.3953Z" fill="white" />
        <path d="M18.3211 72.7576C17.9943 72.7576 17.7017 72.6887 17.4436 72.5507C17.1894 72.4128 16.9896 72.2234 16.8444 71.983C16.6992 71.7387 16.6265 71.4626 16.6265 71.1552C16.6265 70.8477 16.6992 70.5737 16.8444 70.3332C16.9896 70.0889 17.1894 69.8996 17.4436 69.7655C17.7017 69.6276 17.9943 69.5586 18.3211 69.5586C18.6117 69.5586 18.8698 69.6157 19.0959 69.7301C19.3258 69.8444 19.5033 70.01 19.6284 70.2268L19.1866 70.5047C19.0857 70.3549 18.9607 70.2426 18.8114 70.1676C18.662 70.0928 18.4967 70.0554 18.315 70.0554C18.1052 70.0554 17.9156 70.1006 17.7462 70.1914C17.5808 70.282 17.4496 70.4121 17.3527 70.5816C17.2599 70.7472 17.2136 70.9383 17.2136 71.1552C17.2136 71.3759 17.2599 71.5711 17.3527 71.7406C17.4496 71.9062 17.5808 72.0342 17.7462 72.125C17.9156 72.2156 18.1052 72.261 18.315 72.261C18.4967 72.261 18.662 72.2234 18.8114 72.1486C18.9607 72.0738 19.0857 71.9614 19.1866 71.8115L19.6284 72.0835C19.5033 72.3004 19.3258 72.4679 19.0959 72.5862C18.8698 72.7005 18.6117 72.7576 18.3211 72.7576Z" fill="white" />
        <path d="M21.6152 69.5586C22.059 69.5586 22.398 69.665 22.6321 69.8779C22.87 70.0908 22.9891 70.4082 22.9891 70.83V72.7222H22.4384V72.3082C22.3415 72.4541 22.2023 72.5665 22.0207 72.6452C21.8433 72.7202 21.6314 72.7576 21.3852 72.7576C21.0261 72.7576 20.7376 72.6729 20.5198 72.5034C20.306 72.3339 20.199 72.1112 20.199 71.8351C20.199 71.5592 20.3019 71.3385 20.5076 71.1729C20.7134 71.0034 21.0402 70.9187 21.4881 70.9187H22.4081V70.8063C22.4081 70.5619 22.3355 70.3747 22.1903 70.2446C22.0449 70.1144 21.8311 70.0494 21.5487 70.0494C21.359 70.0494 21.1735 70.0809 20.9919 70.144C20.8102 70.2031 20.6569 70.2839 20.5319 70.3864L20.2899 69.9607C20.4552 69.8306 20.653 69.732 20.883 69.665C21.1129 69.5941 21.357 69.5586 21.6152 69.5586ZM21.482 72.3201C21.704 72.3201 21.8957 72.2727 22.057 72.1782C22.2184 72.0796 22.3355 71.9417 22.4081 71.7642V71.3266H21.5124C21.02 71.3266 20.7739 71.4883 20.7739 71.8115C20.7739 71.9692 20.8365 72.0934 20.9617 72.1841C21.0867 72.2747 21.2602 72.3201 21.482 72.3201Z" fill="white" />
        <path d="M24.126 69.5859H24.7069V70.9164H26.5347V69.5859H27.1157V72.7199H26.5347V71.4072H24.7069V72.7199H24.126V69.5859Z" fill="white" />
        <path d="M31.5986 72.2233V73.4472H31.054V72.7199H28.3727V73.4472H27.822V72.2233H27.9915C28.1973 72.2114 28.3385 72.0694 28.4151 71.7974C28.4918 71.5254 28.5443 71.1411 28.5725 70.6444L28.621 69.5859H31.1084V72.2233H31.5986ZM29.1051 70.6857C29.089 71.08 29.0547 71.4072 29.0023 71.6674C28.9538 71.9236 28.863 72.1089 28.7299 72.2233H30.5274V70.0826H29.1354L29.1051 70.6857Z" fill="white" />
        <path d="M34.147 69.5586C34.4576 69.5586 34.7361 69.6256 34.9822 69.7597C35.2283 69.8937 35.4199 70.0809 35.5571 70.3214C35.6984 70.5619 35.769 70.8398 35.769 71.1552C35.769 71.4706 35.6984 71.7504 35.5571 71.9949C35.4199 72.2353 35.2283 72.4225 34.9822 72.5566C34.7361 72.6906 34.4576 72.7576 34.147 72.7576C33.9171 72.7576 33.7052 72.7143 33.5115 72.6275C33.3219 72.5408 33.1605 72.4147 33.0273 72.2491V73.8693H32.4463V69.5882H33.0031V70.0848C33.1322 69.9114 33.2957 69.7813 33.4934 69.6946C33.691 69.604 33.9089 69.5586 34.147 69.5586ZM34.0986 72.261C34.3043 72.261 34.488 72.2156 34.6493 72.125C34.8148 72.0303 34.9439 71.9002 35.0366 71.7346C35.1335 71.5651 35.182 71.372 35.182 71.1552C35.182 70.9383 35.1335 70.7472 35.0366 70.5816C34.9439 70.4121 34.8148 70.282 34.6493 70.1914C34.488 70.1006 34.3043 70.0554 34.0986 70.0554C33.8969 70.0554 33.7132 70.1026 33.5478 70.1972C33.3864 70.2878 33.2573 70.416 33.1605 70.5816C33.0677 70.7472 33.0212 70.9383 33.0212 71.1552C33.0212 71.372 33.0677 71.5651 33.1605 71.7346C33.2533 71.9002 33.3823 72.0303 33.5478 72.125C33.7132 72.2156 33.8969 72.261 34.0986 72.261Z" fill="white" />
        <path d="M38.0776 72.7576C37.7589 72.7576 37.4725 72.6887 37.2183 72.5507C36.964 72.4128 36.7644 72.2234 36.6191 71.983C36.4779 71.7387 36.4072 71.4626 36.4072 71.1552C36.4072 70.8477 36.4779 70.5737 36.6191 70.3332C36.7644 70.0889 36.964 69.8996 37.2183 69.7655C37.4725 69.6276 37.7589 69.5586 38.0776 69.5586C38.3965 69.5586 38.6809 69.6276 38.9311 69.7655C39.1853 69.8996 39.3829 70.0889 39.5242 70.3332C39.6694 70.5737 39.7421 70.8477 39.7421 71.1552C39.7421 71.4626 39.6694 71.7387 39.5242 71.983C39.3829 72.2234 39.1853 72.4128 38.9311 72.5507C38.6809 72.6887 38.3965 72.7576 38.0776 72.7576ZM38.0776 72.261C38.2835 72.261 38.467 72.2156 38.6285 72.125C38.7939 72.0303 38.9229 71.9002 39.0157 71.7346C39.1086 71.5651 39.155 71.372 39.155 71.1552C39.155 70.9383 39.1086 70.7472 39.0157 70.5816C38.9229 70.4121 38.7939 70.282 38.6285 70.1914C38.467 70.1006 38.2835 70.0554 38.0776 70.0554C37.8719 70.0554 37.6864 70.1006 37.5208 70.1914C37.3595 70.282 37.2303 70.4121 37.1335 70.5816C37.0407 70.7472 36.9944 70.9383 36.9944 71.1552C36.9944 71.372 37.0407 71.5651 37.1335 71.7346C37.2303 71.9002 37.3595 72.0303 37.5208 72.125C37.6864 72.2156 37.8719 72.261 38.0776 72.261Z" fill="white" />
        <path d="M42.8571 71.0937C43.2726 71.1963 43.4804 71.4506 43.4804 71.8566C43.4804 72.1325 43.3735 72.3454 43.1597 72.4953C42.9499 72.6451 42.6351 72.7199 42.2155 72.7199H40.6721V69.5859H42.161C42.5403 69.5859 42.8369 69.6569 43.0506 69.7987C43.2645 69.9368 43.3715 70.1338 43.3715 70.3902C43.3715 70.5556 43.325 70.6996 43.2323 70.8217C43.1436 70.94 43.0184 71.0308 42.8571 71.0937ZM41.2411 70.9341H42.1126C42.3345 70.9341 42.502 70.8948 42.6149 70.8159C42.7319 70.737 42.7904 70.6226 42.7904 70.473C42.7904 70.1733 42.5645 70.0235 42.1126 70.0235H41.2411V70.9341ZM42.1731 72.2823C42.4153 72.2823 42.5968 72.2449 42.7179 72.1699C42.8388 72.0951 42.8993 71.9788 42.8993 71.8212C42.8993 71.6595 42.8429 71.5393 42.7299 71.4604C42.621 71.3816 42.4475 71.3421 42.2094 71.3421H41.2411V72.2823H42.1731Z" fill="white" />
        <path d="M45.8785 72.7576C45.5517 72.7576 45.2591 72.6887 45.0008 72.5507C44.7467 72.4128 44.547 72.2234 44.4018 71.983C44.2564 71.7387 44.1838 71.4626 44.1838 71.1552C44.1838 70.8477 44.2564 70.5737 44.4018 70.3332C44.547 70.0889 44.7467 69.8996 45.0008 69.7655C45.2591 69.6276 45.5517 69.5586 45.8785 69.5586C46.169 69.5586 46.4272 69.6157 46.6531 69.7301C46.8831 69.8444 47.0606 70.01 47.1858 70.2268L46.744 70.5047C46.6431 70.3549 46.5179 70.2426 46.3687 70.1676C46.2194 70.0928 46.054 70.0554 45.8724 70.0554C45.6626 70.0554 45.473 70.1006 45.3035 70.1914C45.138 70.282 45.0069 70.4121 44.9101 70.5816C44.8173 70.7472 44.7708 70.9383 44.7708 71.1552C44.7708 71.3759 44.8173 71.5711 44.9101 71.7406C45.0069 71.9062 45.138 72.0342 45.3035 72.125C45.473 72.2156 45.6626 72.261 45.8724 72.261C46.054 72.261 46.2194 72.2234 46.3687 72.1486C46.5179 72.0738 46.6431 71.9614 46.744 71.8115L47.1858 72.0835C47.0606 72.3004 46.8831 72.4679 46.6531 72.5862C46.4272 72.7005 46.169 72.7576 45.8785 72.7576Z" fill="white" />
        <path d="M49.2753 71.3953H48.6096V72.7199H48.0286V69.5859H48.6096V70.9105H49.2874L50.3284 69.5859H50.9518L49.7353 71.0937L51.0365 72.7199H50.3526L49.2753 71.3953Z" fill="white" />
        <path d="M51.7368 69.5859H52.3179V71.8683L54.2849 69.5859H54.8114V72.7199H54.2303V70.4374L52.2694 72.7199H51.7368V69.5859Z" fill="white" />
        <path d="M56.0295 69.5874H56.6106V71.8698L58.5775 69.5874H59.1041V72.7213H58.523V70.4388L56.5621 72.7213H56.0295V69.5874ZM57.5305 69.1794C57.2319 69.1794 56.9999 69.1103 56.8345 68.9723C56.669 68.8305 56.5843 68.6274 56.5802 68.3633H56.9737C56.9776 68.5092 57.0282 68.6274 57.125 68.7181C57.2258 68.8048 57.359 68.8482 57.5244 68.8482C57.6898 68.8482 57.8229 68.8048 57.9238 68.7181C58.0247 68.6274 58.0772 68.5092 58.0812 68.3633H58.4867C58.4827 68.6274 58.3959 68.8305 58.2264 68.9723C58.057 69.1103 57.825 69.1794 57.5305 69.1794Z" fill="white" />
        <path d="M64.1632 70.5617C64.4295 70.6326 64.6374 70.7567 64.7866 70.9342C64.9359 71.1076 65.0105 71.3166 65.0105 71.5609C65.0105 71.8054 64.9298 72.0202 64.7685 72.2054C64.6111 72.3868 64.3993 72.5268 64.133 72.6253C63.8706 72.7199 63.5842 72.7673 63.2736 72.7673C62.9911 72.7673 62.7107 72.7258 62.4322 72.643C62.1539 72.5604 61.8997 72.4361 61.6697 72.2705L61.8815 71.8329C62.0671 71.9749 62.275 72.0813 62.505 72.1522C62.7349 72.2233 62.967 72.2588 63.2009 72.2588C63.5399 72.2588 63.8243 72.1898 64.0543 72.0517C64.2843 71.9099 64.3993 71.7166 64.3993 71.4723C64.3993 71.2633 64.3124 71.1037 64.1391 70.9932C63.9656 70.879 63.7214 70.8218 63.4067 70.8218H62.4626V70.3429H63.3643C63.6347 70.3429 63.8445 70.2897 63.9937 70.1831C64.1471 70.0728 64.2237 69.9211 64.2237 69.7278C64.2237 69.511 64.1249 69.3395 63.9272 69.2135C63.7295 69.0872 63.4793 69.0241 63.1768 69.0241C62.979 69.0241 62.7772 69.0518 62.5715 69.1069C62.3698 69.1622 62.1781 69.245 61.9965 69.3553L61.8028 68.8704C62.0167 68.7521 62.2426 68.6635 62.4807 68.6044C62.7187 68.5452 62.9568 68.5156 63.1949 68.5156C63.4934 68.5156 63.7678 68.561 64.018 68.6516C64.2682 68.7424 64.4658 68.8745 64.6111 69.0479C64.7604 69.2213 64.835 69.4243 64.835 69.6569C64.835 69.8658 64.7744 70.0491 64.6535 70.2069C64.5365 70.3645 64.373 70.4828 64.1632 70.5617Z" fill="white" />
        <path d="M67.1567 69.5586C67.6005 69.5586 67.9395 69.665 68.1734 69.8779C68.4115 70.0908 68.5306 70.4082 68.5306 70.83V72.7222H67.9799V72.3082C67.8831 72.4541 67.7438 72.5665 67.5622 72.6452C67.3848 72.7202 67.1729 72.7576 66.9267 72.7576C66.5676 72.7576 66.2791 72.6729 66.0612 72.5034C65.8475 72.3339 65.7405 72.1112 65.7405 71.8351C65.7405 71.5592 65.8434 71.3385 66.0492 71.1729C66.2549 71.0034 66.5817 70.9187 67.0296 70.9187H67.9496V70.8063C67.9496 70.5619 67.877 70.3747 67.7316 70.2446C67.5864 70.1144 67.3726 70.0494 67.0902 70.0494C66.9006 70.0494 66.7149 70.0809 66.5334 70.144C66.3517 70.2031 66.1984 70.2839 66.0734 70.3864L65.8312 69.9607C65.9967 69.8306 66.1943 69.732 66.4245 69.665C66.6544 69.5941 66.8985 69.5586 67.1567 69.5586ZM67.0235 72.3201C67.2455 72.3201 67.4372 72.2727 67.5985 72.1782C67.7599 72.0796 67.877 71.9417 67.9496 71.7642V71.3266H67.0539C66.5615 71.3266 66.3154 71.4883 66.3154 71.8115C66.3154 71.9692 66.378 72.0934 66.503 72.1841C66.6282 72.2747 66.8017 72.3201 67.0235 72.3201Z" fill="white" />
        <path d="M71.8526 71.0937C72.2681 71.1963 72.4759 71.4506 72.4759 71.8566C72.4759 72.1325 72.369 72.3454 72.1551 72.4953C71.9453 72.6451 71.6306 72.7199 71.211 72.7199H69.6677V69.5859H71.1565C71.5358 69.5859 71.8324 69.6569 72.0462 69.7987C72.2601 69.9368 72.367 70.1338 72.367 70.3902C72.367 70.5556 72.3206 70.6996 72.2277 70.8217C72.139 70.94 72.0139 71.0308 71.8526 71.0937ZM70.2366 70.9341H71.1082C71.33 70.9341 71.4974 70.8948 71.6104 70.8159C71.7274 70.737 71.7859 70.6226 71.7859 70.473C71.7859 70.1733 71.56 70.0235 71.1082 70.0235H70.2366V70.9341ZM71.1686 72.2823C71.4107 72.2823 71.5922 72.2449 71.7133 72.1699C71.8344 72.0951 71.8949 71.9788 71.8949 71.8212C71.8949 71.6595 71.8385 71.5393 71.7254 71.4604C71.6165 71.3816 71.443 71.3421 71.205 71.3421H70.2366V72.2823H71.1686Z" fill="white" />
        <path d="M74.8499 72.7576C74.5312 72.7576 74.2447 72.6887 73.9905 72.5507C73.7363 72.4128 73.5366 72.2234 73.3913 71.983C73.2501 71.7387 73.1794 71.4626 73.1794 71.1552C73.1794 70.8477 73.2501 70.5737 73.3913 70.3332C73.5366 70.0889 73.7363 69.8996 73.9905 69.7655C74.2447 69.6276 74.5312 69.5586 74.8499 69.5586C75.1687 69.5586 75.4531 69.6276 75.7033 69.7655C75.9575 69.8996 76.1551 70.0889 76.2964 70.3332C76.4416 70.5737 76.5143 70.8477 76.5143 71.1552C76.5143 71.4626 76.4416 71.7387 76.2964 71.983C76.1551 72.2234 75.9575 72.4128 75.7033 72.5507C75.4531 72.6887 75.1687 72.7576 74.8499 72.7576ZM74.8499 72.261C75.0557 72.261 75.2393 72.2156 75.4007 72.125C75.5661 72.0303 75.6952 71.9002 75.7881 71.7346C75.8809 71.5651 75.9272 71.372 75.9272 71.1552C75.9272 70.9383 75.8809 70.7472 75.7881 70.5816C75.6952 70.4121 75.5661 70.282 75.4007 70.1914C75.2393 70.1006 75.0557 70.0554 74.8499 70.0554C74.6441 70.0554 74.4586 70.1006 74.2931 70.1914C74.1317 70.282 74.0027 70.4121 73.9058 70.5816C73.8129 70.7472 73.7666 70.9383 73.7666 71.1552C73.7666 71.372 73.8129 71.5651 73.9058 71.7346C74.0027 71.9002 74.1317 72.0303 74.2931 72.125C74.4586 72.2156 74.6441 72.261 74.8499 72.261Z" fill="white" />
        <path d="M80.6828 72.2233V73.4472H80.1381V72.7199H77.457V73.4472H76.9062V72.2233H77.0757C77.2814 72.2114 77.4227 72.0694 77.4994 71.7974C77.576 71.5254 77.6284 71.1411 77.6567 70.6444L77.7051 69.5859H80.1926V72.2233H80.6828ZM78.1893 70.6857C78.1732 71.08 78.1388 71.4072 78.0864 71.6674C78.038 71.9236 77.9471 72.1089 77.814 72.2233H79.6116V70.0826H78.2195L78.1893 70.6857Z" fill="white" />
        <path d="M86.2545 69.0965H84.8018V72.7213H84.2087V69.0965H82.7622V68.582H86.2545V69.0965Z" fill="white" />
        <path d="M89.552 71.1729C89.552 71.2163 89.5479 71.2734 89.5399 71.3444H86.9374C86.9737 71.6204 87.0968 71.8431 87.3066 72.0126C87.5204 72.1782 87.7847 72.261 88.0995 72.261C88.4828 72.261 88.7914 72.1348 89.0255 71.8825L89.3462 72.2491C89.2009 72.4147 89.0194 72.5408 88.8015 72.6275C88.5876 72.7143 88.3476 72.7576 88.0813 72.7576C87.7423 72.7576 87.4418 72.6906 87.1795 72.5566C86.9172 72.4186 86.7135 72.2275 86.5683 71.983C86.427 71.7387 86.3564 71.4626 86.3564 71.1552C86.3564 70.8516 86.425 70.5777 86.5622 70.3332C86.7035 70.0889 86.8951 69.8996 87.1371 69.7655C87.3832 69.6276 87.6597 69.5586 87.9663 69.5586C88.273 69.5586 88.5453 69.6276 88.7833 69.7655C89.0255 69.8996 89.2131 70.0889 89.3462 70.3332C89.4834 70.5777 89.552 70.8575 89.552 71.1729ZM87.9663 70.0376C87.6878 70.0376 87.4538 70.1203 87.2642 70.2859C87.0786 70.4515 86.9697 70.6683 86.9374 70.9364H88.9952C88.9629 70.6722 88.852 70.4573 88.6622 70.2919C88.4767 70.1224 88.2447 70.0376 87.9663 70.0376Z" fill="white" />
        <path d="M93.5157 69.5859V72.7199H92.9346V70.0826H91.125V72.7199H90.5439V69.5859H93.5157Z" fill="white" />
        <path d="M97.4846 69.5859V72.7199H96.9036V70.0826H95.5237L95.4874 70.7804C95.4672 71.2022 95.4289 71.555 95.3724 71.8389C95.3159 72.1187 95.2231 72.3435 95.0939 72.513C94.9649 72.6825 94.7854 72.7672 94.5553 72.7672C94.4504 72.7672 94.3314 72.7495 94.1982 72.714L94.2345 72.235C94.2869 72.2469 94.3354 72.2527 94.3799 72.2527C94.5412 72.2527 94.6623 72.1838 94.743 72.0458C94.8237 71.9079 94.8761 71.7442 94.9004 71.555C94.9245 71.3658 94.9467 71.0958 94.9669 70.7449L95.0213 69.5859H97.4846Z" fill="white" />
        <path d="M98.6987 69.5859H99.2798V71.8683L101.247 69.5859H101.773V72.7199H101.192V70.4374L99.2313 72.7199H98.6987V69.5859Z" fill="white" />
        <path d="M106.418 72.2233V73.4709H105.867V72.7199H102.992V69.5859H103.573V72.2233H105.328V69.5859H105.909V72.2233H106.418Z" fill="white" />
    </symbol>
    <symbol id="mlogo" width="72" height="22" viewBox="0 0 72 22" fill="none" xmlns="http://www.w3.org/2000/svg">
        <g clip-path="url(#clip0_2020_2802)">
          <path d="M33.2756 5.62283L31.6313 10.001H30.892L29.2575 5.62283V10.001H27.5842V3.51172H29.9094L31.2616 7.18912L32.6237 3.51172H34.9489V10.001H33.2756V5.62283Z" fill="white" />
          <path d="M37.9833 7.60771H39.8026L38.8882 4.97118L37.9833 7.60771ZM40.2406 9.01836H37.5455L37.2146 10.001H35.3953L37.8374 3.51172H39.9388L42.3905 10.001H40.5713L40.2406 9.01836Z" fill="white" />
          <path d="M45.1516 7.82161L43.741 10.001H41.7563L44.0231 6.67367L41.9023 3.51172H43.8774L45.1516 5.54489L46.4066 3.51172H48.3915L46.2804 6.66396L48.5374 10.001H46.5625L45.1516 7.82161Z" fill="white" />
          <path d="M48.9939 3.51367H50.6673V10.003H48.9939V3.51367Z" fill="white" />
          <path d="M57.302 5.62283L55.6578 10.001H54.9185L53.284 5.62283V10.001H51.6106V3.51172H53.9359L55.2883 7.18912L56.6501 3.51172H58.9756V10.001H57.302V5.62283Z" fill="white" />
          <path d="M59.9186 3.51172H61.6211V7.31588C61.6211 8.08432 62.03 8.63887 62.9347 8.63887C63.8299 8.63887 64.2382 8.08432 64.2382 7.31588V3.51172H65.9407V7.36443C65.9407 8.97952 65.0167 10.1178 62.9347 10.1178C60.8527 10.1178 59.9186 8.96956 59.9186 7.37414V3.51172Z" fill="white" />
          <path d="M67.3005 7.83103C67.7677 8.29792 68.4876 8.68713 69.3728 8.68713C69.9468 8.68713 70.2974 8.44384 70.2974 8.13258C70.2974 7.76279 69.8788 7.61713 69.188 7.47095C68.1178 7.25706 66.6195 6.98464 66.6195 5.44749C66.6195 4.35781 67.5438 3.41406 69.2075 3.41406C70.2486 3.41406 71.1532 3.72532 71.844 4.31871L70.9296 5.51547C70.3845 5.06799 69.6746 4.84413 69.1004 4.84413C68.5458 4.84413 68.3319 5.06799 68.3319 5.35012C68.3319 5.69077 68.7309 5.80731 69.4508 5.94352C70.521 6.16738 71.9999 6.47864 71.9999 7.94781C71.9999 9.25139 71.0365 10.1175 69.2951 10.1175C67.9816 10.1175 67.0672 9.70883 66.4153 9.08604L67.3005 7.83103Z" fill="white" />
          <path d="M33.2756 13.5466L31.6314 17.9247H30.8921L29.2576 13.5466V17.9247H27.5842V11.4355H29.9095L31.2616 15.1131L32.6237 11.4355H34.949V17.9247H33.2756V13.5466Z" fill="white" />
          <path d="M35.8912 11.4355H40.6488V12.8461H37.5646V13.9261H40.5806V15.3464H37.5646V16.5141H40.6488V17.9247H35.8912V11.4355Z" fill="white" />
          <path d="M44.3152 16.4652C45.4534 16.4652 46.115 15.6385 46.115 14.6751C46.115 13.6731 45.5119 12.8947 44.3249 12.8947H43.2646V16.4652H44.3152ZM41.591 11.4355H44.3152C46.3583 11.4355 47.8272 12.6611 47.8272 14.6751C47.8272 16.6891 46.3583 17.9247 44.3249 17.9247H41.591V11.4355Z" fill="white" />
          <path d="M48.4396 11.4355H50.1129V17.9247H48.4396V11.4355Z" fill="white" />
          <path d="M53.1472 15.5315H54.9665L54.0522 12.8949L53.1472 15.5315ZM55.4043 16.9424H52.7095L52.3785 17.9247H50.5593L53.0013 11.4355H55.1027L57.5545 17.9247H55.7352L55.4043 16.9424Z" fill="white" />
          <path d="M11.3477 8.61826L20.9062 3.09961V14.0795L11.3477 19.6372L1.78906 14.0795V3.09961L11.3477 8.61826Z" fill="#2F2F2F" />
          <path d="M1.78882 3.09766L11.3475 8.61631L20.9059 3.09766V14.0775L16.149 16.8372L16.159 11.3942L11.3475 14.135L6.53903 11.3924V16.8372L1.78882 14.0775V3.09766Z" fill="#FFED00" />
          <path d="M11.3475 8.61631V14.135L6.53929 11.3924V16.8372L1.78882 14.0775V3.09766L11.3475 8.61631Z" fill="#FFBC00" />
          <path d="M22.6949 0L20.0115 1.54915L11.3476 6.55134L2.6833 1.54915L0 0V3.09831V14.0782V15.1075L0.889579 15.6248L10.4483 21.1825L11.3476 21.7054L12.2466 21.1825L21.8053 15.6248L22.6949 15.1075V14.0782V3.09831V0ZM20.906 3.09831V14.0782L11.3476 19.6359L1.78887 14.0782V3.09831L11.3476 8.61697L20.906 3.09831Z" fill="#2F2F2F" />
          <path d="M11.3473 14.1436V19.6623L6.53906 16.8374V11.3926L11.3473 14.1436Z" fill="#2F2F2F" />
        </g>
        <defs>
          <clipPath id="clip0_2020_2802">
            <rect width="72" height="22" fill="white" />
          </clipPath>
        </defs>
    </symbol>
</svg>
