<svg xmlns="http://www.w3.org/2000/svg">
    <symbol id="default" width="68" height="47" viewBox="0 0 68 47" fill="none" xmlns="http://www.w3.org/2000/svg">
        <path d="M52.5645 41.8912C52.5645 37.1594 51.8847 32.4738 50.5639 28.1021C49.243 23.7305 47.3071 19.7583 44.8666 16.4123C42.4261 13.0664 39.5287 10.4123 36.3401 8.60143C33.1513 6.79063 27.3129 4.19558 26.2823 4.19558C25.2516 4.19558 19.4131 6.79063 16.2245 8.60143C13.0358 10.4123 10.1385 13.0664 7.69789 16.4123C5.25736 19.7583 3.32142 23.7305 2.00061 28.1021C0.67981 32.4738 -3.01734e-07 37.1594 0 41.8912C-2.91519e-07 37.3195 1.5465 32.7926 2.82259 28.5689C4.09869 24.3452 5.96909 20.5075 8.327 17.2748C10.685 14.0422 13.4841 11.4778 16.565 9.72838C19.6457 7.97885 25.2516 5.58144 26.2823 5.58144C27.3129 5.58144 32.9188 7.97885 35.9995 9.72838C39.0803 11.4778 41.8796 14.0422 44.2374 17.2748C46.5954 20.5075 48.4657 24.3452 49.7419 28.5689C51.018 32.7926 52.5645 37.3195 52.5645 41.8912Z" fill="#27AE60"/>
        <path fill-rule="evenodd" clip-rule="evenodd" d="M9.24737 33.0997L7.68604 37.7762H5.42944L11.7661 19.8579H13.7148L14.3785 21.8023H14.3697L19.3999 36.0009L28.4927 21.8023H14.9657L14.3018 19.8579H32.2121L30.2915 22.8772L21.9851 35.844H35.8047V37.7762H17.7837L16.1995 33.0997L15.1969 30.1216C15.433 29.6021 15.5727 29.0691 15.6611 28.6269L15.6239 28.6556C15.4251 28.8095 15.2127 28.9741 14.8402 29.0621L12.7235 22.7745L10.37 29.8604C10.859 29.5346 11.6314 29.0223 12.5323 29.206C14.2688 29.5602 14.9582 29.3536 15.3413 29.0585C15.086 30.3376 14.0644 32.3054 11.5108 32.1579C10.1951 32.0167 10.1223 30.5007 9.24737 33.0997ZM10.1223 30.5007L10.0606 30.6841C10.1689 30.709 10.2854 30.7245 10.4094 30.7243C10.7262 30.8204 11.3256 31.2941 11.3328 31.6897C11.3308 31.5816 11.3042 31.4407 11.2557 31.3035C11.2072 31.1665 11.134 31.0251 11.0338 30.9218C10.9821 30.8684 10.9298 30.8217 10.8773 30.7806C11.0756 30.8012 11.2847 30.8151 11.5044 30.8194C11.7683 30.8003 12.4639 31.3889 12.4639 31.5615C12.4639 31.5615 12.4639 31.0436 12.1023 30.8073C12.2782 30.7967 12.4597 30.7796 12.6472 30.7549C12.7291 30.7549 12.8158 30.7447 12.904 30.7166C12.9259 30.7129 12.9479 30.7092 12.97 30.7054C13.1296 30.7574 13.5728 31.1383 13.5395 31.3512C13.5495 31.287 13.5482 31.2028 13.5343 31.1193C13.5204 31.0359 13.4926 30.9448 13.4438 30.8712C13.3794 30.774 13.3078 30.7027 13.2347 30.65C13.5226 30.5774 13.7943 30.4691 14.0266 30.3502C14.3155 30.2024 14.5731 29.9745 14.7021 29.8353C14.4197 30.1403 13.7319 30.3333 13.3256 30.4474L13.2867 30.4583C13.3602 30.3733 13.4105 30.2559 13.4427 30.143C13.4763 30.0248 13.4927 29.9015 13.4912 29.8057C13.4922 29.8709 13.2262 30.2789 13.1642 30.347C13.0674 30.453 12.9673 30.5145 12.8688 30.5478C12.7908 30.5606 12.7138 30.572 12.6378 30.5821L12.6279 30.582V30.5835C12.4797 30.6031 12.3353 30.6178 12.1945 30.6282C12.2131 30.6139 12.2317 30.5986 12.2503 30.5824C12.3474 30.4976 12.4216 30.3682 12.4732 30.2404C12.5253 30.1116 12.5585 29.9749 12.5681 29.8671C12.5596 29.9617 12.2356 30.3733 12.1498 30.4481C12.003 30.5762 11.8581 30.6321 11.7214 30.648C11.6587 30.6486 11.5967 30.6484 11.5355 30.6474C11.5303 30.6468 11.5249 30.647 11.5196 30.6472C11.5137 30.6474 11.5078 30.6476 11.502 30.6468C11.3165 30.643 11.1388 30.6322 10.9688 30.6163C10.9968 30.6055 11.0251 30.5937 11.0537 30.5809C11.2066 30.5125 11.3456 30.3888 11.4557 30.2572C11.5659 30.1256 11.6526 29.9798 11.698 29.8604C11.6413 30.0094 11.1417 30.3548 10.9926 30.4214C10.8004 30.5071 10.6221 30.5445 10.4579 30.5508C10.4282 30.546 10.399 30.541 10.37 30.536C10.3101 30.522 10.2516 30.5128 10.1951 30.5069C10.1707 30.503 10.1463 30.5015 10.1223 30.5007Z" fill="#27AE60"/>
        <path d="M36.2841 21.8023H31.5857L32.8226 19.8579H43.7946V21.8023H38.4609V37.7762H36.2841V21.8023Z" fill="#27AE60"/>
        <path d="M65.7016 24.6264C66.4768 29.2835 66.2455 30.8596 66.0334 33.9191C65.5079 29.4342 65.6804 29.3808 64.8518 25.0368C64.0344 20.7521 62.676 18.6114 60.5782 15.3057L60.4907 15.1678C58.3432 11.7831 55.7128 9.03557 52.7499 7.08212C49.7869 5.12863 46.3664 3.17668 45.3379 3.10718C39.9773 3.68881 28.3641 4.67164 25.8417 5.61403C24.2161 5.65782 21.851 5.57128 25.3867 4.4267C29.5958 3.06419 40.3059 2.24952 45.4259 1.72429C46.4544 1.79378 50.0944 3.95864 53.1612 5.98057C56.228 8.00249 58.9506 10.8463 61.1733 14.3496C63.3961 17.8529 64.9265 19.9695 65.7016 24.6264Z" fill="#27AE60"/>
        <path d="M2.29942 45.5306H0.868604L0.572437 46.1878H0.17627L1.39554 43.5589H1.77633L2.99944 46.1878H2.59558L2.29942 45.5306ZM2.1648 45.2301L1.58401 43.9419L1.00322 45.2301H2.1648Z" fill="#2F2F2F"/>
        <path d="M5.22134 44.1965V46.187H4.8521V44.5119H3.97515L3.95207 44.9551C3.93925 45.223 3.91489 45.4471 3.87899 45.6274C3.84309 45.8051 3.78411 45.9479 3.70206 46.0555C3.62001 46.1632 3.5059 46.217 3.35974 46.217C3.29308 46.217 3.21743 46.2058 3.13281 46.1832L3.15589 45.879C3.18923 45.8865 3.21999 45.8902 3.2482 45.8902C3.35077 45.8902 3.42769 45.8464 3.47898 45.7588C3.53026 45.6712 3.5636 45.5673 3.57898 45.4471C3.59437 45.327 3.60847 45.1555 3.62129 44.9326L3.6559 44.1965H5.22134Z" fill="#2F2F2F"/>
        <path d="M7.83552 45.2044C7.83552 45.232 7.83296 45.2683 7.82783 45.3133H6.17393C6.197 45.4886 6.27521 45.6301 6.40855 45.7377C6.54445 45.8429 6.71241 45.8955 6.91242 45.8955C7.15601 45.8955 7.35218 45.8153 7.5009 45.6551L7.70475 45.888C7.61244 45.9931 7.49705 46.0732 7.35858 46.1283C7.22269 46.1834 7.07012 46.2109 6.90087 46.2109C6.68549 46.2109 6.49445 46.1684 6.32778 46.0832C6.16111 45.9956 6.03162 45.8742 5.9393 45.7189C5.84956 45.5637 5.80469 45.3884 5.80469 45.1932C5.80469 45.0004 5.84828 44.8264 5.93546 44.6711C6.02521 44.5159 6.147 44.3957 6.30085 44.3105C6.45727 44.2229 6.63292 44.1791 6.82779 44.1791C7.02268 44.1791 7.19576 44.2229 7.34705 44.3105C7.5009 44.3957 7.62013 44.5159 7.70475 44.6711C7.79193 44.8264 7.83552 45.0041 7.83552 45.2044ZM6.82779 44.4834C6.65087 44.4834 6.50214 44.5359 6.38163 44.641C6.26368 44.7462 6.19444 44.8839 6.17393 45.0542H7.48166C7.46115 44.8864 7.39064 44.7499 7.27012 44.6449C7.15216 44.5372 7.00472 44.4834 6.82779 44.4834Z" fill="#2F2F2F"/>
        <path d="M9.25816 45.3457H8.83509V46.187H8.46582V44.1965H8.83509V45.0378H9.26582L9.9274 44.1965H10.3236L9.55047 45.1541L10.3774 46.187H9.94281L9.25816 45.3457Z" fill="#2F2F2F"/>
        <path d="M11.6431 46.2109C11.4354 46.2109 11.2495 46.1671 11.0855 46.0795C10.9239 45.9919 10.7969 45.8716 10.7047 45.7189C10.6124 45.5637 10.5662 45.3884 10.5662 45.1932C10.5662 44.9979 10.6124 44.8238 10.7047 44.6711C10.7969 44.5159 10.9239 44.3957 11.0855 44.3105C11.2495 44.2229 11.4354 44.1791 11.6431 44.1791C11.8278 44.1791 11.9918 44.2154 12.1355 44.288C12.2817 44.3606 12.3944 44.4658 12.4739 44.6035L12.1932 44.78C12.129 44.6848 12.0496 44.6135 11.9547 44.5659C11.8598 44.5184 11.7547 44.4946 11.6393 44.4946C11.5059 44.4946 11.3854 44.5234 11.2778 44.581C11.1727 44.6386 11.0892 44.7212 11.0277 44.8289C10.9687 44.934 10.9393 45.0554 10.9393 45.1932C10.9393 45.3334 10.9687 45.4573 11.0277 45.565C11.0892 45.6702 11.1727 45.7515 11.2778 45.8091C11.3854 45.8667 11.5059 45.8955 11.6393 45.8955C11.7547 45.8955 11.8598 45.8716 11.9547 45.8241C12.0496 45.7766 12.129 45.7052 12.1932 45.61L12.4739 45.7828C12.3944 45.9205 12.2817 46.0269 12.1355 46.102C11.9918 46.1747 11.8278 46.2109 11.6431 46.2109Z" fill="#2F2F2F"/>
        <path d="M13.7367 44.1791C14.0188 44.1791 14.2342 44.2467 14.3829 44.3819C14.5342 44.5172 14.6098 44.7187 14.6098 44.9866V46.1884H14.2599V45.9255C14.1983 46.0181 14.1098 46.0895 13.9944 46.1395C13.8816 46.1872 13.747 46.2109 13.5905 46.2109C13.3623 46.2109 13.179 46.1571 13.0406 46.0494C12.9047 45.9418 12.8367 45.8003 12.8367 45.625C12.8367 45.4498 12.9021 45.3096 13.0328 45.2044C13.1636 45.0968 13.3713 45.0429 13.6559 45.0429H14.2406V44.9715C14.2406 44.8164 14.1944 44.6974 14.1022 44.6148C14.0098 44.5321 13.8739 44.4908 13.6944 44.4908C13.5739 44.4908 13.456 44.5109 13.3406 44.5509C13.2251 44.5885 13.1277 44.6398 13.0482 44.7049L12.8944 44.4345C12.9995 44.3519 13.1252 44.2892 13.2714 44.2467C13.4175 44.2016 13.5726 44.1791 13.7367 44.1791ZM13.6521 45.933C13.7931 45.933 13.9149 45.9029 14.0175 45.8429C14.1201 45.7803 14.1944 45.6927 14.2406 45.58V45.3021H13.6713C13.3585 45.3021 13.2021 45.4047 13.2021 45.61C13.2021 45.7102 13.2418 45.7891 13.3214 45.8466C13.4008 45.9042 13.5111 45.933 13.6521 45.933Z" fill="#2F2F2F"/>
        <path d="M15.3325 44.1965H15.7017V45.0415H16.8633V44.1965H17.2326V46.187H16.8633V45.3532H15.7017V46.187H15.3325V44.1965Z" fill="#2F2F2F"/>
        <path d="M20.0815 45.8715V46.6489H19.7353V46.187H18.0314V46.6489H17.6814V45.8715H17.7891C17.9199 45.864 18.0096 45.7738 18.0583 45.6011C18.107 45.4283 18.1404 45.1842 18.1583 44.8687L18.1892 44.1965H19.7699V45.8715H20.0815ZM18.4968 44.895C18.4866 45.1454 18.4648 45.3532 18.4315 45.5185C18.4006 45.6812 18.343 45.7989 18.2584 45.8715H19.4007V44.5119H18.5161L18.4968 44.895Z" fill="#2F2F2F"/>
        <path d="M21.701 44.1791C21.8983 44.1791 22.0753 44.2217 22.2317 44.3068C22.3881 44.3919 22.5099 44.5109 22.5971 44.6636C22.6869 44.8164 22.7317 44.9928 22.7317 45.1932C22.7317 45.3935 22.6869 45.5712 22.5971 45.7265C22.5099 45.8792 22.3881 45.9981 22.2317 46.0832C22.0753 46.1684 21.8983 46.2109 21.701 46.2109C21.5548 46.2109 21.4202 46.1834 21.2971 46.1283C21.1766 46.0732 21.074 45.9931 20.9894 45.888V46.917H20.6201V44.1979H20.974V44.5133C21.056 44.4032 21.1599 44.3206 21.2856 44.2655C21.4112 44.2079 21.5497 44.1791 21.701 44.1791ZM21.6702 45.8955C21.8009 45.8955 21.9176 45.8667 22.0201 45.8091C22.1253 45.749 22.2074 45.6663 22.2663 45.5612C22.3279 45.4535 22.3587 45.3309 22.3587 45.1932C22.3587 45.0554 22.3279 44.934 22.2663 44.8289C22.2074 44.7212 22.1253 44.6386 22.0201 44.581C21.9176 44.5234 21.8009 44.4946 21.6702 44.4946C21.542 44.4946 21.4253 44.5246 21.3202 44.5847C21.2176 44.6423 21.1355 44.7237 21.074 44.8289C21.015 44.934 20.9855 45.0554 20.9855 45.1932C20.9855 45.3309 21.015 45.4535 21.074 45.5612C21.133 45.6663 21.215 45.749 21.3202 45.8091C21.4253 45.8667 21.542 45.8955 21.6702 45.8955Z" fill="#2F2F2F"/>
        <path d="M24.199 46.2109C23.9965 46.2109 23.8144 46.1671 23.6529 46.0795C23.4913 45.9919 23.3644 45.8716 23.2721 45.7189C23.1824 45.5637 23.1375 45.3884 23.1375 45.1932C23.1375 44.9979 23.1824 44.8238 23.2721 44.6711C23.3644 44.5159 23.4913 44.3957 23.6529 44.3105C23.8144 44.2229 23.9965 44.1791 24.199 44.1791C24.4016 44.1791 24.5824 44.2229 24.7414 44.3105C24.903 44.3957 25.0285 44.5159 25.1183 44.6711C25.2106 44.8238 25.2568 44.9979 25.2568 45.1932C25.2568 45.3884 25.2106 45.5637 25.1183 45.7189C25.0285 45.8716 24.903 45.9919 24.7414 46.0795C24.5824 46.1671 24.4016 46.2109 24.199 46.2109ZM24.199 45.8955C24.3299 45.8955 24.4465 45.8667 24.5491 45.8091C24.6542 45.749 24.7362 45.6663 24.7952 45.5612C24.8542 45.4535 24.8837 45.3309 24.8837 45.1932C24.8837 45.0554 24.8542 44.934 24.7952 44.8289C24.7362 44.7212 24.6542 44.6386 24.5491 44.581C24.4465 44.5234 24.3299 44.4946 24.199 44.4946C24.0683 44.4946 23.9504 44.5234 23.8452 44.581C23.7427 44.6386 23.6605 44.7212 23.599 44.8289C23.54 44.934 23.5106 45.0554 23.5106 45.1932C23.5106 45.3309 23.54 45.4535 23.599 45.5612C23.6605 45.6663 23.7427 45.749 23.8452 45.8091C23.9504 45.8667 24.0683 45.8955 24.199 45.8955Z" fill="#2F2F2F"/>
        <path d="M27.2362 45.1541C27.5003 45.2193 27.6324 45.3808 27.6324 45.6387C27.6324 45.8139 27.5644 45.9491 27.4285 46.0443C27.2952 46.1394 27.0952 46.187 26.8285 46.187H25.8477V44.1965H26.7939C27.0349 44.1965 27.2234 44.2415 27.3592 44.3316C27.4952 44.4193 27.5632 44.5444 27.5632 44.7073C27.5632 44.8123 27.5336 44.9038 27.4747 44.9814C27.4183 45.0565 27.3388 45.1141 27.2362 45.1541ZM26.2093 45.0528H26.7631C26.9042 45.0528 27.0105 45.0277 27.0823 44.9776C27.1567 44.9275 27.1939 44.8549 27.1939 44.7599C27.1939 44.5695 27.0503 44.4744 26.7631 44.4744H26.2093V45.0528ZM26.8015 45.909C26.9555 45.909 27.0708 45.8853 27.1477 45.8377C27.2246 45.7901 27.2631 45.7163 27.2631 45.6161C27.2631 45.5134 27.2272 45.4371 27.1554 45.387C27.0862 45.337 26.9759 45.3119 26.8246 45.3119H26.2093V45.909H26.8015Z" fill="#2F2F2F"/>
        <path d="M29.1563 46.2109C28.9486 46.2109 28.7627 46.1671 28.5986 46.0795C28.4371 45.9919 28.3101 45.8716 28.2178 45.7189C28.1255 45.5637 28.0793 45.3884 28.0793 45.1932C28.0793 44.9979 28.1255 44.8238 28.2178 44.6711C28.3101 44.5159 28.4371 44.3957 28.5986 44.3105C28.7627 44.2229 28.9486 44.1791 29.1563 44.1791C29.341 44.1791 29.505 44.2154 29.6486 44.288C29.7948 44.3606 29.9076 44.4658 29.9871 44.6035L29.7064 44.78C29.6422 44.6848 29.5627 44.6135 29.4678 44.5659C29.373 44.5184 29.2679 44.4946 29.1525 44.4946C29.0191 44.4946 28.8986 44.5234 28.7909 44.581C28.6857 44.6386 28.6024 44.7212 28.5409 44.8289C28.4819 44.934 28.4524 45.0554 28.4524 45.1932C28.4524 45.3334 28.4819 45.4573 28.5409 45.565C28.6024 45.6702 28.6857 45.7515 28.7909 45.8091C28.8986 45.8667 29.0191 45.8955 29.1525 45.8955C29.2679 45.8955 29.373 45.8716 29.4678 45.8241C29.5627 45.7766 29.6422 45.7052 29.7064 45.61L29.9871 45.7828C29.9076 45.9205 29.7948 46.0269 29.6486 46.102C29.505 46.1747 29.341 46.2109 29.1563 46.2109Z" fill="#2F2F2F"/>
        <path d="M31.3153 45.3457H30.8922V46.187H30.5229V44.1965H30.8922V45.0378H31.3229L31.9845 44.1965H32.3807L31.6076 45.1541L32.4345 46.187H31.9999L31.3153 45.3457Z" fill="#2F2F2F"/>
        <path d="M32.8794 44.1965H33.2487V45.6461L34.4987 44.1965H34.8333V46.187H34.4641V44.7372L33.2178 46.187H32.8794V44.1965Z" fill="#2F2F2F"/>
        <path d="M35.6077 44.1974H35.9769V45.647L37.2269 44.1974H37.5616V46.1879H37.1923V44.7381L35.9461 46.1879H35.6077V44.1974ZM36.5616 43.9383C36.3718 43.9383 36.2243 43.8944 36.1192 43.8067C36.014 43.7166 35.9602 43.5877 35.9576 43.4199H36.2077C36.2102 43.5126 36.2423 43.5877 36.3038 43.6453C36.3679 43.7003 36.4526 43.7279 36.5577 43.7279C36.6628 43.7279 36.7474 43.7003 36.8115 43.6453C36.8756 43.5877 36.909 43.5126 36.9115 43.4199H37.1693C37.1667 43.5877 37.1115 43.7166 37.0038 43.8067C36.8961 43.8944 36.7487 43.9383 36.5616 43.9383Z" fill="#2F2F2F"/>
        <path d="M40.7766 44.8162C40.9458 44.8612 41.0779 44.9401 41.1728 45.0528C41.2676 45.1629 41.315 45.2957 41.315 45.4509C41.315 45.6061 41.2637 45.7425 41.1612 45.8602C41.0612 45.9754 40.9266 46.0643 40.7574 46.1269C40.5906 46.187 40.4086 46.2171 40.2112 46.2171C40.0317 46.2171 39.8535 46.1907 39.6765 46.1381C39.4996 46.0856 39.3381 46.0067 39.1919 45.9015L39.3265 45.6236C39.4444 45.7138 39.5766 45.7814 39.7227 45.8264C39.8689 45.8716 40.0163 45.8941 40.165 45.8941C40.3804 45.8941 40.5612 45.8503 40.7073 45.7626C40.8535 45.6725 40.9266 45.5497 40.9266 45.3945C40.9266 45.2618 40.8714 45.1604 40.7612 45.0903C40.651 45.0178 40.4958 44.9814 40.2958 44.9814H39.6958V44.6772H40.2689C40.4407 44.6772 40.574 44.6434 40.6689 44.5758C40.7663 44.5057 40.815 44.4093 40.815 44.2866C40.815 44.1489 40.7522 44.04 40.6266 43.9599C40.5009 43.8797 40.342 43.8396 40.1497 43.8396C40.024 43.8396 39.8957 43.8572 39.765 43.8922C39.6368 43.9274 39.515 43.9799 39.3996 44.05L39.2765 43.742C39.4124 43.6669 39.556 43.6106 39.7073 43.5731C39.8586 43.5355 40.0099 43.5167 40.1612 43.5167C40.3509 43.5167 40.5253 43.5455 40.6843 43.6031C40.8433 43.6607 40.9688 43.7446 41.0612 43.8547C41.1561 43.9649 41.2035 44.0938 41.2035 44.2415C41.2035 44.3742 41.165 44.4906 41.0882 44.5908C41.0138 44.691 40.9099 44.7661 40.7766 44.8162Z" fill="#2F2F2F"/>
        <path d="M42.6791 44.1791C42.9611 44.1791 43.1766 44.2467 43.3252 44.3819C43.4766 44.5172 43.5522 44.7187 43.5522 44.9866V46.1884H43.2022V45.9255C43.1407 46.0181 43.0522 46.0895 42.9368 46.1395C42.824 46.1872 42.6894 46.2109 42.5329 46.2109C42.3047 46.2109 42.1214 46.1571 41.9829 46.0494C41.8471 45.9418 41.7791 45.8003 41.7791 45.625C41.7791 45.4498 41.8445 45.3096 41.9752 45.2044C42.106 45.0968 42.3137 45.0429 42.5983 45.0429H43.183V44.9715C43.183 44.8164 43.1368 44.6974 43.0445 44.6148C42.9522 44.5321 42.8163 44.4908 42.6368 44.4908C42.5163 44.4908 42.3983 44.5109 42.2829 44.5509C42.1675 44.5885 42.0701 44.6398 41.9906 44.7049L41.8367 44.4345C41.9419 44.3519 42.0675 44.2892 42.2137 44.2467C42.3599 44.2016 42.515 44.1791 42.6791 44.1791ZM42.5945 45.933C42.7355 45.933 42.8573 45.9029 42.9598 45.8429C43.0624 45.7803 43.1368 45.6927 43.183 45.58V45.3021H42.6137C42.3008 45.3021 42.1444 45.4047 42.1444 45.61C42.1444 45.7102 42.1842 45.7891 42.2637 45.8466C42.3432 45.9042 42.4535 45.933 42.5945 45.933Z" fill="#2F2F2F"/>
        <path d="M45.6634 45.1541C45.9275 45.2193 46.0595 45.3808 46.0595 45.6387C46.0595 45.8139 45.9916 45.9491 45.8557 46.0443C45.7224 46.1394 45.5223 46.187 45.2557 46.187H44.2749V44.1965H45.221C45.4621 44.1965 45.6506 44.2415 45.7865 44.3316C45.9224 44.4193 45.9903 44.5444 45.9903 44.7073C45.9903 44.8123 45.9609 44.9038 45.9018 44.9814C45.8454 45.0565 45.7659 45.1141 45.6634 45.1541ZM44.6364 45.0528H45.1903C45.3313 45.0528 45.4377 45.0277 45.5095 44.9776C45.5839 44.9275 45.621 44.8549 45.621 44.7599C45.621 44.5695 45.4775 44.4744 45.1903 44.4744H44.6364V45.0528ZM45.2287 45.909C45.3826 45.909 45.498 45.8853 45.5749 45.8377C45.6519 45.7901 45.6903 45.7163 45.6903 45.6161C45.6903 45.5134 45.6544 45.4371 45.5826 45.387C45.5134 45.337 45.4031 45.3119 45.2519 45.3119H44.6364V45.909H45.2287Z" fill="#2F2F2F"/>
        <path d="M47.5682 46.2109C47.3656 46.2109 47.1836 46.1671 47.022 46.0795C46.8605 45.9919 46.7336 45.8716 46.6412 45.7189C46.5515 45.5637 46.5066 45.3884 46.5066 45.1932C46.5066 44.9979 46.5515 44.8238 46.6412 44.6711C46.7336 44.5159 46.8605 44.3957 47.022 44.3105C47.1836 44.2229 47.3656 44.1791 47.5682 44.1791C47.7708 44.1791 47.9515 44.2229 48.1105 44.3105C48.2721 44.3957 48.3977 44.5159 48.4875 44.6711C48.5797 44.8238 48.626 44.9979 48.626 45.1932C48.626 45.3884 48.5797 45.5637 48.4875 45.7189C48.3977 45.8716 48.2721 45.9919 48.1105 46.0795C47.9515 46.1671 47.7708 46.2109 47.5682 46.2109ZM47.5682 45.8955C47.699 45.8955 47.8156 45.8667 47.9182 45.8091C48.0233 45.749 48.1054 45.6663 48.1644 45.5612C48.2234 45.4535 48.2528 45.3309 48.2528 45.1932C48.2528 45.0554 48.2234 44.934 48.1644 44.8289C48.1054 44.7212 48.0233 44.6386 47.9182 44.581C47.8156 44.5234 47.699 44.4946 47.5682 44.4946C47.4374 44.4946 47.3195 44.5234 47.2143 44.581C47.1118 44.6386 47.0298 44.7212 46.9682 44.8289C46.9092 44.934 46.8797 45.0554 46.8797 45.1932C46.8797 45.3309 46.9092 45.4535 46.9682 45.5612C47.0298 45.6663 47.1118 45.749 47.2143 45.8091C47.3195 45.8667 47.4374 45.8955 47.5682 45.8955Z" fill="#2F2F2F"/>
        <path d="M51.2751 45.8715V46.6489H50.9289V46.187H49.225V46.6489H48.875V45.8715H48.9827C49.1134 45.864 49.2032 45.7738 49.2519 45.6011C49.3006 45.4283 49.334 45.1842 49.3519 44.8687L49.3827 44.1965H50.9635V45.8715H51.2751ZM49.6904 44.895C49.6802 45.1454 49.6583 45.3532 49.625 45.5185C49.5943 45.6812 49.5365 45.7989 49.4519 45.8715H50.5943V44.5119H49.7096L49.6904 44.895Z" fill="#2F2F2F"/>
        <path d="M54.8158 43.8856H53.8927V46.1878H53.5157V43.8856H52.5964V43.5589H54.8158V43.8856Z" fill="#2F2F2F"/>
        <path d="M56.9116 45.2044C56.9116 45.232 56.9091 45.2683 56.904 45.3133H55.25C55.2731 45.4886 55.3514 45.6301 55.4847 45.7377C55.6206 45.8429 55.7885 45.8955 55.9886 45.8955C56.2322 45.8955 56.4283 45.8153 56.5771 45.6551L56.7809 45.888C56.6885 45.9931 56.5732 46.0732 56.4347 46.1283C56.2988 46.1834 56.1463 46.2109 55.977 46.2109C55.7616 46.2109 55.5706 46.1684 55.4039 46.0832C55.2372 45.9956 55.1078 45.8742 55.0155 45.7189C54.9257 45.5637 54.8809 45.3884 54.8809 45.1932C54.8809 45.0004 54.9244 44.8264 55.0116 44.6711C55.1014 44.5159 55.2232 44.3957 55.377 44.3105C55.5334 44.2229 55.7091 44.1791 55.904 44.1791C56.0988 44.1791 56.2719 44.2229 56.4232 44.3105C56.5771 44.3957 56.6963 44.5159 56.7809 44.6711C56.8681 44.8264 56.9116 45.0041 56.9116 45.2044ZM55.904 44.4834C55.727 44.4834 55.5783 44.5359 55.4577 44.641C55.3398 44.7462 55.2706 44.8839 55.25 45.0542H56.5578C56.5373 44.8864 56.4668 44.7499 56.3462 44.6449C56.2283 44.5372 56.0808 44.4834 55.904 44.4834Z" fill="#2F2F2F"/>
        <path d="M59.4306 44.1965V46.187H59.0613V44.5119H57.9113V46.187H57.542V44.1965H59.4306Z" fill="#2F2F2F"/>
        <path d="M61.9528 44.1965V46.187H61.5835V44.5119H60.7066L60.6835 44.9551C60.6707 45.223 60.6463 45.4471 60.6104 45.6274C60.5746 45.8051 60.5156 45.9479 60.4335 46.0555C60.3514 46.1632 60.2374 46.217 60.0912 46.217C60.0245 46.217 59.9489 46.2058 59.8643 46.1832L59.8873 45.879C59.9206 45.8865 59.9514 45.8902 59.9797 45.8902C60.0822 45.8902 60.1592 45.8464 60.2105 45.7588C60.2618 45.6712 60.2951 45.5673 60.3105 45.4471C60.3258 45.327 60.3399 45.1555 60.3527 44.9326L60.3873 44.1965H61.9528Z" fill="#2F2F2F"/>
        <path d="M62.7244 44.1965H63.0936V45.6461L64.3436 44.1965H64.6783V46.187H64.309V44.7372L63.0628 46.187H62.7244V44.1965Z" fill="#2F2F2F"/>
        <path d="M67.6299 45.8715V46.664H67.2799V46.187H65.4529V44.1965H65.8221V45.8715H66.9376V44.1965H67.3068V45.8715H67.6299Z" fill="#2F2F2F"/>
    </symbol>
</svg>
