<svg xmlns="http://www.w3.org/2000/svg">
    <symbol id="arrow_down" width="11" height="8" viewBox="0 0 11 8" fill="none" xmlns="http://www.w3.org/2000/svg">
        <path d="M5.19604 7.5L-0.000106812 0L10.3922 0L5.19604 7.5Z" fill="#2F2F2F" />
    </symbol>
    <symbol id="menu_burger" width="16" height="10" viewBox="0 0 16 10" fill="none" xmlns="http://www.w3.org/2000/svg">
        <path d="M1 1H11" stroke="white" stroke-width="2" stroke-linecap="round" />
        <path d="M1 5H13" stroke="white" stroke-width="2" stroke-linecap="round" />
        <path d="M1 9H15" stroke="white" stroke-width="2" stroke-linecap="round" />
    </symbol>
    <symbol id="search" width="14" height="14" viewBox="0 0 14 14" fill="none" xmlns="http://www.w3.org/2000/svg">
        <g clip-path="url(#clip0_2001_8450)">
        <path d="M13.829 13.0046L10.347 9.5227C11.2959 8.36221 11.7624 6.88141 11.6501 5.38661C11.5378 3.8918 10.8552 2.49734 9.74363 1.49166C8.63202 0.485992 7.17638 -0.0539518 5.67783 -0.0164832C4.17928 0.0209854 2.75245 0.633 1.69248 1.69297C0.632511 2.75294 0.0204971 4.17976 -0.0169715 5.67832C-0.05444 7.17687 0.485504 8.6325 1.49118 9.74412C2.49685 10.8557 3.89131 11.5383 5.38612 11.6506C6.88093 11.7629 8.36172 11.2964 9.52221 10.3475L13.0041 13.8294C13.1141 13.9357 13.2615 13.9945 13.4144 13.9932C13.5674 13.9918 13.7137 13.9305 13.8219 13.8223C13.93 13.7142 13.9914 13.5679 13.9927 13.4149C13.994 13.262 13.9352 13.1146 13.829 13.0046ZM5.83321 10.5004C4.91023 10.5004 4.00797 10.2267 3.24055 9.71389C2.47312 9.20111 1.87498 8.47227 1.52177 7.61955C1.16856 6.76683 1.07614 5.82852 1.25621 4.92327C1.43627 4.01803 1.88073 3.18651 2.53337 2.53386C3.18602 1.88122 4.01754 1.43676 4.92278 1.2567C5.82803 1.07663 6.76634 1.16905 7.61906 1.52226C8.47178 1.87547 9.20062 2.4736 9.7134 3.24103C10.2262 4.00846 10.4999 4.91072 10.4999 5.83369C10.4985 7.07095 10.0064 8.25712 9.1315 9.13199C8.25663 10.0069 7.07046 10.499 5.83321 10.5004Z" fill="currentColor"/>
        </g>
        <defs>
        <clipPath id="clip0_2001_8450">
        <rect width="14" height="14" fill="white"/>
        </clipPath>
        </defs>
    </symbol>
    <symbol id="leaf" width="16" height="16" viewBox="0 0 16 16" fill="none" xmlns="http://www.w3.org/2000/svg">
        <path d="M1.99083 3.93285C0.719483 5.20441 0.00365383 6.92784 1.39489e-05 8.72594C-0.00362593 10.524 0.70522 12.2504 1.97141 13.5271C3.39889 10.2254 5.9431 7.46755 9.11851 5.82644C6.37772 8.14553 4.52758 11.3446 3.88442 14.8768C6.40921 16.0713 9.51665 15.6343 11.6045 13.5465C14.9838 10.1671 15.5373 0 15.5373 0C15.5373 0 5.37017 0.553512 1.99083 3.93285Z" fill="#1F422E" />
    </symbol>
    <symbol id="check" width="13" height="13" viewBox="0 0 13 13" fill="none" xmlns="http://www.w3.org/2000/svg">
        <path d="M12.0404 5.06141L11.4034 4.42558C11.3257 4.34816 11.2642 4.25615 11.2222 4.15483C11.1803 4.05351 11.1588 3.9449 11.159 3.83524V3.09033C11.1585 2.63711 10.9783 2.20259 10.6579 1.88207C10.3375 1.56154 9.90304 1.38119 9.44983 1.38058L8.70491 1.38058C8.48392 1.37998 8.27205 1.29238 8.11516 1.13674L7.47874 0.499742C7.1579 0.179719 6.72324 0 6.27008 0C5.81691 0 5.38225 0.179719 5.06141 0.499742L4.42558 1.13674C4.2685 1.29253 4.05647 1.38031 3.83524 1.38116H3.08974C2.63653 1.38178 2.20207 1.56213 1.88165 1.88265C1.56124 2.20317 1.38104 2.6377 1.38058 3.09091V3.83524C1.38086 3.94486 1.35947 4.05345 1.31762 4.15476C1.27577 4.25608 1.2143 4.34811 1.13674 4.42558L0.499742 5.06141C0.179719 5.38225 0 5.81691 0 6.27008C0 6.72324 0.179719 7.1579 0.499742 7.47874L1.13674 8.11458C1.21441 8.19199 1.27599 8.284 1.31793 8.38532C1.35988 8.48664 1.38137 8.59525 1.38116 8.70491V9.44983C1.38162 9.90304 1.56182 10.3376 1.88224 10.6581C2.20265 10.9786 2.63711 11.159 3.09033 11.1596H3.83524C4.05632 11.1603 4.2682 11.2481 4.42499 11.404L5.06141 12.0404C5.38218 12.3606 5.81687 12.5404 6.27008 12.5404C6.72328 12.5404 7.15798 12.3606 7.47874 12.0404L8.11458 11.404C8.27165 11.2482 8.48368 11.1604 8.70491 11.1596H9.45041C9.90362 11.159 10.3381 10.9786 10.6585 10.6581C10.9789 10.3376 11.1591 9.90304 11.1596 9.44983V8.70491C11.1594 8.59525 11.1809 8.48664 11.2228 8.38532C11.2647 8.284 11.3263 8.19199 11.404 8.11458L12.0404 7.47874C12.3604 7.1579 12.5402 6.72324 12.5402 6.27008C12.5402 5.81691 12.3604 5.38225 12.0404 5.06141ZM8.32924 5.41141L5.99591 7.74474C5.95537 7.78545 5.90719 7.81775 5.85413 7.83979C5.80108 7.86183 5.74419 7.87318 5.68674 7.87318C5.62929 7.87318 5.57241 7.86183 5.51935 7.83979C5.4663 7.81775 5.41812 7.78545 5.37758 7.74474L4.21091 6.57808C4.13363 6.49514 4.09156 6.38545 4.09356 6.2721C4.09556 6.15876 4.14147 6.05062 4.22163 5.97046C4.30179 5.89031 4.40993 5.84439 4.52327 5.84239C4.63661 5.84039 4.74631 5.88246 4.82924 5.95974L5.68674 6.81783L7.71091 4.79424C7.79384 4.71696 7.90354 4.67489 8.01688 4.67689C8.13022 4.67889 8.23836 4.72481 8.31852 4.80496C8.39868 4.88512 8.44459 4.99326 8.44659 5.1066C8.44859 5.21995 8.40652 5.32964 8.32924 5.41258V5.41141Z" fill="#26AD60" />
    </symbol>
    <symbol id="truck" width="26" height="26" viewBox="0 0 26 26" fill="none" xmlns="http://www.w3.org/2000/svg">
        <path d="M17.061 7.31443V16.5635C17.6568 15.8787 18.5258 15.4335 19.4961 15.4335C21.2772 15.4335 22.7511 16.9044 22.7511 18.6854C22.7511 18.9679 22.6989 19.2381 22.6283 19.4991H23.5587C23.6658 19.4996 23.772 19.4788 23.8711 19.4381C23.9702 19.3974 24.0602 19.3375 24.1361 19.2619C24.212 19.1863 24.2722 19.0964 24.3133 18.9975C24.3544 18.8986 24.3755 18.7925 24.3755 18.6854V12.9984C24.3736 12.8345 24.3222 12.675 24.2282 12.5408L20.921 7.66757C20.8455 7.55759 20.7441 7.46786 20.6257 7.40628C20.5074 7.3447 20.3757 7.31316 20.2423 7.31443H17.061ZM2.43507 4.87012C2.32821 4.87052 2.22247 4.89197 2.1239 4.93323C2.02532 4.9745 1.93584 5.03478 1.86056 5.11063C1.78529 5.18648 1.72568 5.27641 1.68516 5.37529C1.64464 5.47418 1.62399 5.58007 1.6244 5.68694V18.6854C1.6244 19.1337 1.98674 19.4991 2.43507 19.4991H4.17926C4.10426 19.2342 4.064 18.9607 4.0595 18.6854C4.0595 16.9044 5.52731 15.4304 7.31142 15.4304C9.09245 15.4304 10.5633 16.9044 10.5633 18.6854C10.5633 18.9679 10.5111 19.2381 10.4405 19.4991H15.4397C15.888 19.4991 16.2504 19.1307 16.2473 18.6854V5.68694C16.2481 5.47164 16.1636 5.2648 16.0122 5.11171C15.8608 4.95861 15.655 4.87174 15.4397 4.87012H2.43507ZM19.4992 16.2503C18.8541 16.2527 18.2362 16.5101 17.78 16.9662C17.3239 17.4223 17.0665 18.0403 17.0641 18.6854C17.0641 20.0212 18.1604 21.1266 19.4992 21.1266C20.835 21.1266 21.9343 20.0212 21.9343 18.6854C21.9319 18.0403 21.6745 17.4223 21.2184 16.9662C20.7623 16.5101 20.1443 16.2527 19.4992 16.2503ZM7.30835 16.2503C6.6638 16.2535 6.04661 16.5112 5.59113 16.9673C5.13565 17.4233 4.87874 18.0408 4.87631 18.6854C4.87631 20.0212 5.97564 21.1266 7.31142 21.1266C8.64719 21.1266 9.74652 20.0212 9.74652 18.6854C9.74409 18.0403 9.48676 17.4223 9.03061 16.9662C8.57447 16.5101 7.95343 16.2527 7.30835 16.2503Z" fill="white"/>
    </symbol>
    <symbol id="clock" width="22" height="22" viewBox="0 0 22 22" fill="none" xmlns="http://www.w3.org/2000/svg">
        <path d="M11 0C17.0751 0 22 4.92487 22 11C22 17.0751 17.0751 22 11 22C4.92487 22 0 17.0751 0 11C0 4.92487 4.92487 0 11 0ZM10.25 6V12.4014L15.084 15.624L15.916 14.376L11.75 11.5986V6H10.25Z" fill="white"/>
    </symbol>
    <symbol id="discount-label" width="24" height="24" viewBox="0 0 24 24" fill="none" xmlns="http://www.w3.org/2000/svg">
        <path d="M21.8433 0H12.1553C11.7104 0.00281305 11.2843 0.179703 10.9681 0.4928L0.496127 11.0656C0.339002 11.2208 0.214251 11.4057 0.129108 11.6095C0.0439646 11.8133 0.00012207 12.0319 0.00012207 12.2528C0.00012207 12.4737 0.0439646 12.6923 0.129108 12.8961C0.214251 13.0999 0.339002 13.2848 0.496127 13.44L10.0833 23.0272C10.4029 23.342 10.8332 23.5189 11.2817 23.52C11.704 23.5035 12.1043 23.3273 12.4017 23.0272L22.9857 12.5552C23.1489 12.4023 23.2804 12.2188 23.3726 12.0151C23.4649 11.8114 23.5161 11.5915 23.5233 11.368V1.68C23.5233 1.23444 23.3463 0.807122 23.0313 0.492061C22.7162 0.177 22.2889 0 21.8433 0ZM19.6705 6.2272C19.3555 6.54181 18.9285 6.71852 18.4833 6.71852C18.0381 6.71852 17.6111 6.54181 17.2961 6.2272C17.061 5.99233 16.9008 5.69299 16.8358 5.36704C16.7708 5.0411 16.8039 4.7032 16.931 4.3961C17.0581 4.08899 17.2734 3.82649 17.5498 3.6418C17.8261 3.4571 18.151 3.35852 18.4833 3.35852C18.8157 3.35852 19.1406 3.4571 19.4169 3.6418C19.6932 3.82649 19.9086 4.08899 20.0356 4.3961C20.1627 4.7032 20.1959 5.0411 20.1309 5.36704C20.0659 5.69299 19.9057 5.99233 19.6705 6.2272Z" fill="#F8F8F8"/>
        <path d="M11.4656 14.3309L9.29204 12.1758L8.21532 13.2617L10.8441 15.8682C11.077 16.0991 11.0786 16.475 10.8477 16.7078C10.6168 16.9407 10.2409 16.9423 10.0081 16.7114L7.37929 14.1049L6.70265 14.7874C6.31379 15.1795 5.68063 15.1822 5.28845 14.7934L5.26375 14.7689C4.87156 14.38 4.86886 13.7469 5.25772 13.3547L5.93436 12.6723L5.56557 12.3066C5.33273 12.0757 5.33112 11.6998 5.56199 11.467C5.79285 11.2342 6.16876 11.2325 6.40161 11.4634L6.7704 11.8291L7.84711 10.7431L7.6444 10.5422C7.31984 10.2203 7.3176 9.69635 7.63941 9.37178C7.96123 9.04722 8.48522 9.04498 8.80979 9.36679L9.01249 9.56778L13.0027 5.54344L16.6212 9.13122C18.3501 10.8455 18.1227 13.0015 16.7293 14.4069C15.3359 15.8122 13.1822 16.033 11.4656 14.3309ZM13.1429 8.292L10.4574 11.0004L12.4334 12.9596C13.2485 13.7678 14.3733 13.819 15.184 13.0013C15.9947 12.1837 15.9339 11.0594 15.1188 10.2512L13.1429 8.292Z" fill="#1F422E"/>
    </symbol>
    <symbol id="card" width="25" height="18" viewBox="0 0 25 18" fill="none" xmlns="http://www.w3.org/2000/svg">
        <path d="M24.856 1.664C24.856 0.728 24.128 0 23.192 0H1.716C0.78 0 0.052 0.728 0.052 1.664V3.952H24.856V1.664ZM0 6.292V15.496C0 16.432 0.728 17.16 1.664 17.16H23.14C24.076 17.16 24.804 16.432 24.804 15.496V6.292H0ZM4.784 14.716L4.992 14.924L4.316 15.6C4.16 15.756 3.848 15.756 3.692 15.6L2.028 13.988C1.872 13.832 1.872 13.572 2.028 13.364L3.692 11.7C3.848 11.544 4.16 11.544 4.316 11.7L4.992 12.376L4.784 12.584C4.212 13.208 4.212 14.144 4.784 14.716ZM9.412 13.988L7.748 15.652C7.592 15.808 7.332 15.808 7.124 15.652L5.46 13.988C5.304 13.832 5.304 13.572 5.46 13.364L7.124 11.7C7.28 11.544 7.54 11.544 7.748 11.7L9.412 13.364C9.62 13.572 9.62 13.832 9.412 13.988Z" fill="#F8F8F8"/>
    </symbol>
    <symbol id="best" width="26" height="26" viewBox="0 0 26 26" fill="none" xmlns="http://www.w3.org/2000/svg">
        <path d="M12.9994 0C8.07076 0 4.06189 4.00887 4.06189 8.9375C4.06189 13.8661 8.07076 17.875 12.9994 17.875C17.9264 17.875 21.9369 13.8661 21.9369 8.9375C21.9369 4.00887 17.9264 0 12.9994 0ZM17.6973 7.67325L16.1535 9.607L16.3225 12.1339C16.3321 12.2726 16.3057 12.4114 16.2459 12.537C16.1861 12.6625 16.095 12.7705 15.9813 12.8505C15.8433 12.9477 15.6787 12.9999 15.51 13C15.4028 13 15.2939 12.9789 15.1931 12.935L12.9994 12.0039L10.8073 12.935C10.5473 13.0455 10.2483 13.0146 10.0191 12.8505C9.90596 12.77 9.8152 12.6619 9.75549 12.5365C9.69577 12.4111 9.66906 12.2725 9.67789 12.1339L9.84689 9.607L8.30314 7.67325C8.13089 7.45875 8.08051 7.17112 8.16664 6.9095C8.25277 6.64787 8.46564 6.44963 8.73214 6.37975L11.0364 5.77688L12.3006 3.64812C12.5931 3.15412 13.4056 3.15412 13.6965 3.64812L14.9608 5.77688L17.2666 6.37975C17.5315 6.44963 17.7444 6.6495 17.8321 6.9095C17.9199 7.1695 17.8679 7.45713 17.6973 7.67325Z" fill="#F8F8F8"/>
        <path d="M3.85877 14.2073L0.108274 20.7187C-0.055851 21.0047 -0.031476 21.3605 0.168399 21.6205C0.368274 21.8805 0.704649 21.9975 1.02315 21.9098L5.79415 20.6277L7.06327 25.3987C7.14777 25.7155 7.4159 25.9512 7.7409 25.995C7.77665 25.9983 7.81402 25.9999 7.84815 25.9999C7.99077 25.9999 8.13087 25.9623 8.25438 25.891C8.37789 25.8197 8.48046 25.7172 8.55177 25.5937L12.0991 19.4544C8.57452 19.1554 5.54552 17.1193 3.85877 14.2073ZM25.8921 20.7187L22.14 14.2073C20.4549 17.1193 17.4243 19.1554 13.8996 19.4544L17.447 25.5937C17.5933 25.8472 17.863 25.9999 18.1506 25.9999C18.1848 25.9999 18.2221 25.9983 18.2563 25.9934C18.5829 25.9495 18.8494 25.7139 18.9355 25.397L20.2046 20.626L24.9756 21.9082C25.2941 21.9959 25.6289 21.8789 25.8304 21.6189C26.0319 21.3605 26.0546 21.0047 25.8921 20.7187Z" fill="#F8F8F8"/>
    </symbol>
    <symbol id="play" width="25" height="29" viewBox="0 0 25 29" fill="none" xmlns="http://www.w3.org/2000/svg">
        <path d="M24.5488 14.1735L4.57764e-05 28.3467L4.57764e-05 0.000226021L24.5488 14.1735Z" fill="white" />
    </symbol>
    <symbol id="map-point" width="15" height="20" viewBox="0 0 15 20" fill="none" xmlns="http://www.w3.org/2000/svg">
        <path d="M7.24324 0C3.2493 0 0 3.2493 0 7.2432C0 12.1998 6.48199 19.4763 6.75797 19.7836C7.01719 20.0723 7.46977 20.0718 7.72852 19.7836C8.00449 19.4763 14.4865 12.1998 14.4865 7.2432C14.4864 3.2493 11.2371 0 7.24324 0ZM7.24324 10.8875C5.23379 10.8875 3.59902 9.25266 3.59902 7.2432C3.59902 5.23375 5.23383 3.59898 7.24324 3.59898C9.25266 3.59898 10.8874 5.23379 10.8874 7.24324C10.8874 9.2527 9.25266 10.8875 7.24324 10.8875Z" fill="#26AD60"/>
    </symbol>
    <symbol id="phone" width="20" height="20" viewBox="0 0 20 20" fill="none" xmlns="http://www.w3.org/2000/svg">
        <path fill-rule="evenodd" clip-rule="evenodd" d="M19.6348 17.5919C19.502 17.7243 19.3418 17.8936 19.172 18.0727C18.7483 18.5224 18.2189 19.0814 17.8871 19.3082C16.1414 20.5011 13.8059 19.9303 12.1539 19.242C9.97467 18.3339 7.60205 16.6603 5.4717 14.5296C3.33935 12.3989 1.66584 10.0255 0.75783 7.8475C0.0703299 6.19516 -0.501662 3.85922 0.691424 2.11312C0.917986 1.78109 1.47834 1.25254 1.92748 0.827969C2.10717 0.658672 2.27513 0.498711 2.40795 0.366328C2.64374 0.131709 2.96284 0 3.29547 0C3.6281 0 3.9472 0.131709 4.18299 0.366328L7.39502 3.57742C7.62951 3.8132 7.76114 4.13221 7.76114 4.46475C7.76114 4.79728 7.62951 5.11629 7.39502 5.35207L6.52002 6.22531C6.2278 6.51539 6.03706 6.89208 5.97618 7.29931C5.91531 7.70653 5.98755 8.12253 6.18217 8.48539C7.38567 10.7569 9.24367 12.6146 11.5154 13.8177C11.8781 14.0122 12.2941 14.0844 12.7012 14.0234C13.1083 13.9624 13.4848 13.7716 13.7747 13.4793L14.6475 12.606C14.8833 12.3714 15.2024 12.2397 15.535 12.2397C15.8677 12.2397 16.1868 12.3714 16.4226 12.606L19.6348 15.8177C19.8693 16.0534 20.0009 16.3723 20.0009 16.7048C20.0009 17.0373 19.8693 17.3562 19.6348 17.5919Z" fill="currentColor"/>
    </symbol>
    <symbol id="phone-empty" width="20" height="20" viewBox="0 0 20 20" fill="none" xmlns="http://www.w3.org/2000/svg">
        <path d="M4.0376 13.2947C6.01025 15.6527 8.38489 17.5093 11.0952 18.823C12.1271 19.3121 13.5071 19.8923 15.0446 19.9917C15.14 19.9959 15.2311 20 15.3265 20C16.3584 20 17.1872 19.6436 17.8627 18.9101C17.8669 18.9059 17.8751 18.8976 17.8793 18.8893C18.1197 18.5993 18.3932 18.3382 18.6791 18.0605C18.8739 17.874 19.0728 17.6792 19.2635 17.4803C20.1462 16.5603 20.1462 15.3916 19.2552 14.5006L16.7645 12.0099C16.3418 11.5707 15.8362 11.3386 15.3057 11.3386C14.7753 11.3386 14.2655 11.5707 13.8304 12.0058L12.3468 13.4894C12.21 13.4107 12.0691 13.3402 11.9365 13.2739C11.7707 13.191 11.6174 13.1123 11.4806 13.0253C10.1296 12.1674 8.90292 11.0485 7.7301 9.61044C7.13748 8.86034 6.73963 8.23042 6.46197 7.58807C6.85153 7.23581 7.21622 6.86697 7.56848 6.50642C7.6928 6.37795 7.82128 6.24948 7.94975 6.12101C8.39732 5.67344 8.63769 5.15541 8.63769 4.62909C8.63769 4.10278 8.40147 3.58475 7.94975 3.13717L6.71477 1.9022C6.56972 1.75715 6.43296 1.61625 6.29206 1.4712C6.01854 1.18939 5.73259 0.899296 5.45078 0.63821C5.02393 0.219644 4.52248 0 3.99202 0C3.4657 0 2.96011 0.219644 2.51668 0.642354L0.966738 2.19229C0.403124 2.75591 0.0840195 3.4397 0.017712 4.23125C-0.0610281 5.22172 0.121318 6.27435 0.593758 7.54662C1.319 9.51513 2.41307 11.3427 4.0376 13.2947ZM1.0289 4.31828C1.07863 3.76709 1.28999 3.30709 1.68783 2.90924L3.22948 1.36759C3.46985 1.13552 3.73508 1.01533 3.99202 1.01533C4.24481 1.01533 4.50176 1.13552 4.73798 1.37588C5.01564 1.63282 5.27673 1.9022 5.55853 2.18815C5.69944 2.3332 5.84448 2.47824 5.98953 2.62743L7.22451 3.86241C7.48145 4.11935 7.61407 4.38044 7.61407 4.63738C7.61407 4.89432 7.48145 5.15541 7.22451 5.41235C7.09604 5.54082 6.96757 5.67344 6.8391 5.80191C6.45368 6.19146 6.09314 6.5603 5.69529 6.91256L5.67457 6.93328C5.3306 7.27725 5.38448 7.60464 5.46736 7.85329C5.4715 7.86573 5.47565 7.87402 5.47979 7.88645C5.7989 8.65313 6.24233 9.38251 6.93441 10.2528C8.17768 11.7862 9.48725 12.9755 10.9294 13.8914C11.1076 14.0075 11.2983 14.0986 11.4765 14.1898C11.6422 14.2727 11.7956 14.3514 11.9323 14.4385C11.9489 14.4467 11.9613 14.455 11.9779 14.4633C12.1147 14.5338 12.2473 14.5669 12.3799 14.5669C12.7115 14.5669 12.927 14.3556 12.9974 14.2851L14.5473 12.7352C14.7877 12.4948 15.0488 12.3663 15.3057 12.3663C15.6207 12.3663 15.8776 12.5611 16.0393 12.7352L18.5382 15.23C19.0355 15.7273 19.0314 16.2661 18.5258 16.7924C18.3517 16.9789 18.1694 17.1571 17.9746 17.3436C17.6845 17.6254 17.382 17.9155 17.1085 18.2429C16.6319 18.7567 16.0641 18.9971 15.3306 18.9971C15.2601 18.9971 15.1856 18.993 15.1151 18.9888C13.7558 18.9018 12.4918 18.3713 11.5428 17.9196C8.96508 16.6722 6.70234 14.9026 4.82501 12.6564C3.27921 10.7957 2.23901 9.06341 1.55107 7.2068C1.12422 6.06714 0.962594 5.15126 1.0289 4.31828Z" fill="currentColor" />
      </symbol>
    <symbol id="envelope" width="20" height="15" viewBox="0 0 20 15" fill="none" xmlns="http://www.w3.org/2000/svg">
        <path d="M9.0187 7.38693C9.54093 7.7351 10.4573 7.73514 10.9796 7.38689L10.9799 7.38674L19.8809 1.45267C19.589 0.608286 18.7865 0 17.8441 0H2.15404C1.21165 0 0.409182 0.608286 0.117188 1.45267L9.01843 7.38678L9.0187 7.38693Z" fill="#26AD60"/>
        <path d="M11.6308 8.3627L11.6305 8.3629C11.1734 8.66762 10.5866 8.82001 10 8.82001C9.41328 8.82001 8.82671 8.66766 8.36956 8.36286L8.36936 8.36274L0 2.7832V12.8252C0 14.0133 0.966687 14.98 2.15494 14.98H17.8451C19.0334 14.98 20 14.0133 20 12.8252V2.7832L11.6308 8.3627Z" fill="#26AD60"/>
    </symbol>
    <symbol id="close"  width="12" height="12" viewBox="0 0 12 12" fill="none" xmlns="http://www.w3.org/2000/svg">
        <path d="M11 1L1 11M1 1L11 11" stroke="currentColor" stroke-width="2" stroke-linecap="round" stroke-linejoin="round" />
    </symbol>
    <symbol id="arrow-left" width="13" height="13" viewBox="0 0 13 13" fill="none" xmlns="http://www.w3.org/2000/svg">
        <path d="M6.33333 12.1667L0.5 6.33333M0.5 6.33333L6.33333 0.5M0.5 6.33333H12.1667" stroke="white" stroke-linecap="round" stroke-linejoin="round"/>
    </symbol>
    <symbol id="arrow" width="15" height="20" viewBox="0 0 15 20" fill="none" xmlns="http://www.w3.org/2000/svg">
        <path d="M13.0952 1L1.66664 9.57151L13.0952 18.1429" stroke="currentColor" stroke-width="2" stroke-linecap="round" />
    </symbol>
    <symbol id="leafs" width="50" height="53" viewBox="0 0 50 53" fill="none" xmlns="http://www.w3.org/2000/svg">
        <path d="M48.1792 7.29452C48.1208 7.09202 47.9953 6.91542 47.8232 6.79376C47.6511 6.6721 47.4427 6.61264 47.2324 6.62514C36.2355 7.18202 27.1811 10.3864 20.2839 16.153C19.7008 9.46014 15.6536 2.02483 9.42391 0.0429556C9.27006 -0.00536962 9.10633 -0.0130679 8.94862 0.0206088C8.79092 0.0542855 8.64461 0.128192 8.52391 0.235143C5.79766 2.29764 -3.68421 14.4617 1.54891 26.9848C2.6486 29.8461 4.63141 33.6617 7.84329 36.1039C7.33715 37.9073 6.99204 39.752 6.81204 41.6164C6.80449 41.8589 6.89126 42.0949 7.05412 42.2748C7.21697 42.4547 7.44321 42.5644 7.68529 42.5809C7.92737 42.5974 8.16642 42.5194 8.35218 42.3633C8.53795 42.2072 8.65596 41.9852 8.68141 41.7439C10.8114 23.3764 25.3239 9.41514 46.5752 8.54046C47.7386 13.1164 52.698 37.3761 29.9495 46.782C29.8614 46.8195 21.5102 50.1148 13.7102 46.6311C21.7491 41.3165 28.3741 34.1256 33.0133 25.6789C33.1115 25.4568 33.1197 25.2052 33.0362 24.9772C32.9526 24.7491 32.7839 24.5624 32.5654 24.4563C32.3469 24.3503 32.0958 24.3331 31.8649 24.4085C31.6341 24.4839 31.4415 24.6459 31.3277 24.8605C31.2358 25.048 21.9058 43.8008 1.10735 50.6726C0.990392 50.7113 0.882194 50.7726 0.788932 50.8531C0.69567 50.9336 0.619171 51.0316 0.563804 51.1417C0.508438 51.2517 0.475286 51.3716 0.466244 51.4944C0.457201 51.6173 0.472443 51.7407 0.511101 51.8576C0.549759 51.9746 0.611075 52.0828 0.691548 52.1761C0.772022 52.2693 0.870076 52.3458 0.980114 52.4012C1.09015 52.4566 1.21002 52.4897 1.33287 52.4988C1.45572 52.5078 1.57914 52.4926 1.6961 52.4539C5.23868 51.2773 8.64128 49.7152 11.8427 47.7955C17.8333 51.3073 27.0358 50.1345 30.6611 48.5173C56.8699 37.6798 48.2692 7.59733 48.1792 7.29452ZM8.41048 34.1745C4.67536 30.5669 2.38269 25.7219 1.96141 20.5461C1.28923 10.7567 7.71673 3.66921 9.37891 2.01077C11.6825 2.9887 13.6379 4.63825 14.9899 6.74421C17.1812 9.99439 18.4126 13.7962 18.543 17.7139C13.8394 22.2649 10.3552 27.9252 8.41048 34.1745Z" fill="currentColor" />
    </symbol>
    <symbol id="weather" width="60" height="54" viewBox="0 0 60 54" fill="none" xmlns="http://www.w3.org/2000/svg">
        <path d="M13.5056 31.3453C13.744 31.5447 14.0519 31.6412 14.3615 31.6136C14.6711 31.586 14.957 31.4366 15.1564 31.1982C15.3558 30.9598 15.4523 30.6519 15.4247 30.3423C15.3971 30.0328 15.2477 29.7468 15.0093 29.5474C13.6766 28.4342 12.6463 27.0028 12.0139 25.3857C11.3814 23.7685 11.1671 22.0179 11.3909 20.296C11.6147 18.5741 12.2693 16.9364 13.2942 15.5347C14.319 14.1329 15.681 13.0124 17.2539 12.2769C18.8268 11.5413 20.5599 11.2145 22.2927 11.3266C24.0255 11.4388 25.702 11.9863 27.167 12.9185C28.632 13.8507 29.8381 15.1375 30.6736 16.6596C31.5092 18.1818 31.9472 19.8902 31.9472 21.6266C31.9472 21.9374 32.0706 22.2355 32.2904 22.4552C32.5102 22.675 32.8083 22.7985 33.1191 22.7985C33.4299 22.7985 33.7279 22.675 33.9477 22.4552C34.1675 22.2355 34.2909 21.9374 34.2909 21.6266C34.2909 19.496 33.7533 17.3997 32.728 15.532C31.7027 13.6643 30.2227 12.0855 28.4251 10.9416C26.6276 9.79779 24.5705 9.12595 22.4443 8.98829C20.3181 8.85064 18.1915 9.25162 16.2614 10.1541C14.3314 11.0566 12.6602 12.4315 11.4026 14.1514C10.145 15.8713 9.3416 17.8807 9.06684 19.9935C8.79208 22.1064 9.05481 24.2544 9.8307 26.2388C10.6066 28.2231 11.8706 29.9797 13.5056 31.3458V31.3453ZM21.6261 6.27598C21.78 6.27598 21.9324 6.24566 22.0746 6.18677C22.2168 6.12788 22.346 6.04156 22.4548 5.93274C22.5636 5.82392 22.6499 5.69474 22.7088 5.55256C22.7677 5.41038 22.798 5.25799 22.798 5.1041V1.17188C22.798 0.861075 22.6745 0.563003 22.4548 0.343234C22.235 0.123465 21.9369 0 21.6261 0C21.3153 0 21.0173 0.123465 20.7975 0.343234C20.5777 0.563003 20.4543 0.861075 20.4543 1.17188V5.1041C20.4543 5.4149 20.5777 5.71297 20.7975 5.93274C21.0173 6.15251 21.3153 6.27598 21.6261 6.27598ZM12.3503 7.90394C12.4267 8.0383 12.5289 8.15621 12.651 8.2509C12.7731 8.34559 12.9128 8.41518 13.062 8.45568C13.2111 8.49617 13.3668 8.50676 13.5201 8.48684C13.6733 8.46692 13.8211 8.41688 13.955 8.33961C14.0888 8.26233 14.206 8.15934 14.2999 8.03658C14.3938 7.91381 14.4624 7.77369 14.502 7.62427C14.5415 7.47486 14.551 7.31911 14.5301 7.16599C14.5091 7.01286 14.4581 6.8654 14.38 6.73207L12.4139 3.3266C12.337 3.19332 12.2345 3.0765 12.1124 2.98282C11.9903 2.88913 11.851 2.82041 11.7023 2.78057C11.4021 2.70013 11.0822 2.74224 10.8131 2.89764C10.5439 3.05304 10.3475 3.309 10.267 3.60922C10.1866 3.90943 10.2287 4.22931 10.3841 4.49848L12.3503 7.90394ZM3.32625 12.4138L6.73172 14.38C7.00073 14.5329 7.31932 14.5732 7.61797 14.4922C7.91661 14.4111 8.17106 14.2152 8.32579 13.9472C8.48052 13.6792 8.52297 13.3609 8.44387 13.0617C8.36477 12.7625 8.17055 12.5068 7.90359 12.3503L4.49812 10.3841C4.3648 10.3059 4.21733 10.2549 4.06421 10.234C3.91109 10.213 3.75534 10.2226 3.60592 10.2621C3.45651 10.3016 3.31639 10.3703 3.19362 10.4642C3.07085 10.558 2.96786 10.6753 2.89059 10.8091C2.81331 10.9429 2.76328 11.0908 2.74336 11.244C2.72344 11.3973 2.73403 11.553 2.77452 11.7021C2.81501 11.8512 2.88461 11.9909 2.9793 12.1131C3.07399 12.2352 3.1919 12.3374 3.32625 12.4138ZM6.27609 21.6266C6.27609 21.3158 6.15263 21.0177 5.93286 20.798C5.71309 20.5782 5.41502 20.4547 5.10422 20.4547H1.17187C0.861074 20.4547 0.563003 20.5782 0.343234 20.798C0.123465 21.0177 0 21.3158 0 21.6266C0 21.9374 0.123465 22.2355 0.343234 22.4552C0.563003 22.675 0.861074 22.7985 1.17187 22.7985H5.10422C5.41502 22.7985 5.71309 22.675 5.93286 22.4552C6.15263 22.2355 6.27609 21.9374 6.27609 21.6266ZM7.90359 30.902C8.17276 30.7466 8.36917 30.4906 8.44962 30.1904C8.53007 29.8902 8.48796 29.5703 8.33256 29.3012C8.17716 29.032 7.9212 28.8356 7.62098 28.7551C7.32076 28.6747 7.00089 28.7168 6.73172 28.8722L3.32625 30.8384C3.1919 30.9147 3.07399 31.0169 2.9793 31.1391C2.88461 31.2612 2.81501 31.4009 2.77452 31.55C2.73403 31.6992 2.72344 31.8549 2.74336 32.0081C2.76328 32.1614 2.81331 32.3092 2.89059 32.443C2.96786 32.5769 3.07085 32.6941 3.19362 32.788C3.31639 32.8819 3.45651 32.9505 3.60592 32.99C3.75534 33.0295 3.91109 33.0391 4.06421 33.0182C4.21733 32.9972 4.3648 32.9462 4.49812 32.868L7.90359 30.902ZM29.3012 8.3325C29.4345 8.40961 29.5816 8.45969 29.7342 8.47988C29.8868 8.50007 30.0419 8.48997 30.1906 8.45017C30.3393 8.41037 30.4787 8.34164 30.6009 8.24791C30.723 8.15418 30.8254 8.0373 30.9023 7.90394L32.8684 4.49848C33.0213 4.22946 33.0617 3.91087 32.9806 3.61223C32.8995 3.31359 32.7036 3.05914 32.4356 2.9044C32.1676 2.74967 31.8493 2.70723 31.5501 2.78632C31.251 2.86542 30.9952 3.05964 30.8387 3.3266L28.8722 6.73207C28.7169 7.00121 28.6749 7.32099 28.7553 7.62111C28.8358 7.92123 29.0321 8.17712 29.3012 8.3325Z" fill="currentColor" />
        <path d="M44.7018 36.2365C45.1607 33.9209 44.7952 31.5177 43.6686 29.4432C42.5421 27.3688 40.7254 25.7537 38.5333 24.8777C36.3413 24.0017 33.9118 23.92 31.6659 24.6468C29.4199 25.3736 27.4989 26.863 26.2355 28.8572C24.3077 28.1156 22.1682 28.1455 20.2619 28.9408C18.3555 29.736 16.829 31.2354 15.9997 33.1271C14.6151 32.9017 13.1988 32.9656 11.8401 33.3147C10.4815 33.6639 9.20985 34.2907 8.10544 35.1556C7.00103 36.0206 6.08779 37.105 5.42326 38.3404C4.75874 39.5759 4.35735 40.9356 4.2444 42.3338C4.13145 43.7321 4.30939 45.1386 4.76699 46.4647C5.2246 47.7907 5.95195 49.0076 6.9032 50.0387C7.85445 51.0697 9.00898 51.8925 10.294 52.4552C11.579 53.0178 12.9667 53.3082 14.3695 53.308H42.311C44.4101 53.308 46.4384 52.5493 48.0223 51.1717C49.6062 49.7942 50.6388 47.8906 50.9299 45.8118C51.221 43.733 50.751 41.619 49.6064 39.8594C48.4619 38.0998 46.72 36.8131 44.7016 36.2365H44.7018ZM42.3112 50.9642H14.3695C13.2558 50.9633 12.1552 50.7242 11.1415 50.263C10.1277 49.8019 9.22433 49.1293 8.49181 48.2904C7.7593 47.4515 7.21462 46.4657 6.89429 45.3991C6.57396 44.3325 6.48538 43.2097 6.63451 42.106C6.78363 41.0023 7.167 39.9433 7.75892 39C8.35083 38.0566 9.13761 37.2507 10.0665 36.6363C10.9954 36.0219 12.0449 35.6132 13.1446 35.4376C14.2444 35.262 15.369 35.3236 16.443 35.6182C16.7414 35.7001 17.0601 35.6607 17.3295 35.5086C17.599 35.3564 17.7973 35.1039 17.8812 34.8061C18.1151 33.9774 18.5342 33.2126 19.1069 32.5696C19.6796 31.9265 20.3908 31.4219 21.187 31.0939C21.9831 30.7659 22.8434 30.623 23.7028 30.6761C24.5623 30.7291 25.3985 30.9767 26.1482 31.4001C26.2877 31.4791 26.4419 31.5286 26.6012 31.5456C26.7606 31.5625 26.9218 31.5467 27.0747 31.4989C27.2277 31.4511 27.3693 31.3725 27.4906 31.2678C27.612 31.1632 27.7106 31.0348 27.7804 30.8905C28.6415 29.1108 30.1484 27.7262 31.9944 27.0185C33.8404 26.3107 35.8868 26.333 37.7169 27.0808C39.5471 27.8286 41.0235 29.2457 41.8456 31.0437C42.6678 32.8416 42.7739 34.8853 42.1423 36.7588C42.0867 36.9234 42.0683 37.0984 42.0887 37.271C42.109 37.4436 42.1674 37.6096 42.2598 37.7568C42.3522 37.904 42.4761 38.0289 42.6227 38.1223C42.7693 38.2157 42.9348 38.2753 43.1073 38.2969C44.7129 38.4983 46.1814 39.3043 47.2135 40.5508C48.2455 41.7972 48.7635 43.3903 48.6619 45.0053C48.5603 46.6204 47.8468 48.136 46.6667 49.2432C45.4865 50.3505 43.9286 50.9662 42.3104 50.9648L42.3112 50.9642Z" fill="currentColor" />
        <path d="M53.6877 21.9278C54.1657 19.5143 53.7476 17.0093 52.5118 14.8818C51.276 12.7543 49.3071 11.1501 46.9738 10.3695C44.6405 9.58893 42.1027 9.68551 39.8355 10.6411C37.5683 11.5968 35.727 13.346 34.6565 15.5613C34.5859 15.7002 34.5437 15.8518 34.5324 16.0072C34.5211 16.1626 34.5409 16.3187 34.5906 16.4664C34.6404 16.614 34.7191 16.7503 34.8221 16.8672C34.9252 16.9841 35.0505 17.0792 35.1908 17.1471C35.331 17.215 35.4834 17.2542 35.6391 17.2624C35.7947 17.2707 35.9503 17.2478 36.097 17.1952C36.2437 17.1426 36.3784 17.0612 36.4932 16.9559C36.6081 16.8506 36.7007 16.7234 36.7659 16.5818C37.627 14.8022 39.1339 13.4176 40.9799 12.7098C42.8259 12.0021 44.8722 12.0243 46.7023 12.7721C48.5325 13.5199 50.0089 14.937 50.831 16.735C51.6532 18.533 51.7593 20.5767 51.1278 22.4501C51.0721 22.6148 51.0538 22.7898 51.0741 22.9624C51.0944 23.135 51.1529 23.301 51.2453 23.4482C51.3377 23.5954 51.4616 23.7203 51.6082 23.8137C51.7548 23.9071 51.9203 23.9667 52.0928 23.9882C53.6985 24.1896 55.167 24.9957 56.199 26.2421C57.2311 27.4886 57.7491 29.0816 57.6475 30.6967C57.5459 32.3117 56.8323 33.8273 55.6522 34.9346C54.4721 36.0419 52.9142 36.6576 51.2959 36.6562C50.9851 36.6562 50.6871 36.7796 50.4673 36.9994C50.2475 37.2192 50.1241 37.5173 50.1241 37.8281C50.1241 38.1389 50.2475 38.4369 50.4673 38.6567C50.6871 38.8765 50.9851 38.9999 51.2959 38.9999C53.395 38.9998 55.4233 38.2411 57.0071 36.8635C58.5909 35.486 59.6235 33.5824 59.9146 31.5036C60.2057 29.4249 59.7357 27.3109 58.5912 25.5513C57.4467 23.7917 55.7048 22.505 53.6866 21.9283L53.6877 21.9278Z" fill="currentColor" />
    </symbol>
    <symbol id="time" width="55" height="60" viewBox="0 0 55 60" fill="none" xmlns="http://www.w3.org/2000/svg">
        <path d="M7.05358 13.3528C3.01985 17.6076 0.563264 23.1144 0.0919352 28.9583C-0.42088 35.0372 1.22318 41.1026 4.7357 46.0904C8.24823 51.0781 13.4049 54.6698 19.3011 56.2354C19.4809 56.2865 19.669 56.3013 19.8546 56.2789C20.0402 56.2565 20.2194 56.1973 20.3818 56.1048C20.5443 56.0123 20.6866 55.8883 20.8006 55.7402C20.9146 55.592 20.9978 55.4226 21.0456 55.2419C21.0933 55.0612 21.1045 54.8728 21.0786 54.6877C21.0527 54.5026 20.9901 54.3245 20.8945 54.1638C20.799 54.0032 20.6723 53.8632 20.522 53.7521C20.3717 53.6409 20.2008 53.5609 20.0192 53.5166C15.0926 52.2073 10.7359 49.3087 7.62488 45.2706C4.51385 41.2324 2.82246 36.2804 2.81311 31.1828C2.80377 26.0853 4.47698 21.1271 7.57317 17.0776C10.6694 13.028 15.0155 10.1135 19.9372 8.78613L16.9864 12.0484C16.8625 12.1854 16.7668 12.3454 16.7048 12.5193C16.6427 12.6933 16.6156 12.8777 16.6248 13.0622C16.6341 13.2466 16.6795 13.4275 16.7587 13.5943C16.8378 13.7612 16.949 13.9108 17.086 14.0347C17.223 14.1586 17.383 14.2543 17.5569 14.3163C17.7309 14.3784 17.9153 14.4056 18.0998 14.3963C18.2842 14.3871 18.4651 14.3416 18.6319 14.2624C18.7988 14.1833 18.9484 14.0721 19.0723 13.9351L24.7728 7.63313C24.9017 7.49057 25.0001 7.32311 25.0617 7.14107C25.1234 6.95903 25.1471 6.76628 25.1314 6.57472C25.1156 6.38316 25.0608 6.19686 24.9702 6.02733C24.8797 5.85779 24.7553 5.70862 24.6049 5.58902L17.9519 0.300703C17.6597 0.071017 17.2885 -0.0336643 16.9194 0.00953845C16.5502 0.0527412 16.2132 0.240314 15.9819 0.531262C15.7507 0.822209 15.644 1.19287 15.6852 1.56223C15.7265 1.93159 15.9122 2.26961 16.2019 2.50242L20.3435 5.79445C15.2589 6.93223 10.6307 9.56443 7.05358 13.3528ZM54.9107 30.6759C54.9107 30.303 54.7626 29.9453 54.4988 29.6816C54.2351 29.4178 53.8774 29.2697 53.5045 29.2697H50.506C50.133 29.2697 49.7754 29.4178 49.5116 29.6816C49.2479 29.9453 49.0997 30.303 49.0997 30.6759C49.0997 31.0489 49.2479 31.4066 49.5116 31.6703C49.7754 31.934 50.133 32.0822 50.506 32.0822H53.5045C53.8774 32.0822 54.2351 31.934 54.4988 31.6703C54.7626 31.4066 54.9107 31.0489 54.9107 30.6759ZM49.5032 38.3573C49.1567 38.2246 48.7717 38.2342 48.4322 38.3841C48.0927 38.5339 47.8262 38.8119 47.6908 39.1575C47.5554 39.503 47.5621 39.888 47.7094 40.2286C47.8567 40.5693 48.1326 40.8379 48.4771 40.9759L51.2689 42.07C51.6157 42.2038 52.0013 42.1948 52.3415 42.0451C52.6817 41.8954 52.9488 41.6171 53.0844 41.2711C53.22 40.925 53.2131 40.5394 53.0652 40.1984C52.9173 39.8574 52.6404 39.5888 52.2951 39.4514L49.5032 38.3573ZM43.3429 48.516L45.543 50.5535C45.8168 50.8056 46.1795 50.9389 46.5515 50.9241C46.9234 50.9093 47.2743 50.7476 47.5273 50.4745C47.7802 50.2013 47.9145 49.8391 47.9008 49.4671C47.887 49.0951 47.7264 48.7437 47.454 48.49L45.2539 46.4525C45.1187 46.3253 44.9597 46.226 44.786 46.1605C44.6123 46.095 44.4273 46.0645 44.2417 46.0709C44.0562 46.0772 43.8737 46.1202 43.7049 46.1974C43.5361 46.2747 43.3842 46.3845 43.258 46.5208C43.1319 46.657 43.034 46.8168 42.9699 46.9911C42.9058 47.1653 42.8769 47.3506 42.8848 47.536C42.8927 47.7215 42.9372 47.9036 43.0159 48.0718C43.0945 48.24 43.2056 48.391 43.3429 48.516ZM36.4655 51.785C36.1298 51.9474 35.8722 52.2364 35.7496 52.5886C35.6269 52.9408 35.6492 53.3273 35.8115 53.6631L37.1165 56.3625C37.2788 56.6983 37.5679 56.9558 37.9201 57.0785C38.2723 57.2012 38.6588 57.1789 38.9946 57.0166C39.3304 56.8543 39.588 56.5652 39.7106 56.213C39.8333 55.8608 39.811 55.4743 39.6487 55.1385L38.3436 52.4391C38.1813 52.1033 37.8922 51.8458 37.54 51.7231C37.1878 51.6005 36.8013 51.6227 36.4655 51.785ZM28.2155 54.1972C27.8437 54.2258 27.4984 54.401 27.2557 54.6842C27.013 54.9673 26.8927 55.3353 26.9213 55.7072L27.1514 58.6969C27.1785 59.0499 27.3378 59.3796 27.5974 59.6203C27.857 59.861 28.1978 59.9949 28.5519 59.9953C28.5881 59.9953 28.6245 59.994 28.6612 59.9911C29.033 59.9625 29.3783 59.7873 29.621 59.5042C29.8637 59.221 29.984 58.8531 29.9554 58.4812L29.7254 55.4914C29.6968 55.1196 29.5216 54.7744 29.2385 54.5317C28.9553 54.289 28.5874 54.1687 28.2155 54.1972ZM28.9816 8.19984C29.3195 8.19941 29.646 8.07732 29.9012 7.8559C30.1565 7.63449 30.3235 7.32856 30.3717 6.9941L30.7994 4.02609C30.8281 3.84227 30.82 3.65458 30.7756 3.4739C30.7312 3.29322 30.6515 3.12314 30.5409 2.97352C30.4303 2.8239 30.2911 2.69771 30.1314 2.60226C29.9717 2.5068 29.7947 2.44399 29.6105 2.41745C29.4264 2.39092 29.2388 2.40118 29.0587 2.44766C28.8785 2.49414 28.7094 2.5759 28.561 2.68821C28.4127 2.80052 28.2882 2.94115 28.1946 3.10195C28.101 3.26275 28.0402 3.44052 28.0158 3.62496L27.588 6.59297C27.5594 6.79265 27.574 6.99615 27.6309 7.18968C27.6878 7.38321 27.7857 7.56224 27.9179 7.71463C28.05 7.86703 28.2134 7.98922 28.3969 8.07294C28.5805 8.15666 28.7799 8.19994 28.9816 8.19984ZM37.6617 10.9827C37.9104 10.9829 38.1548 10.9171 38.3698 10.7921C38.5848 10.667 38.7628 10.4872 38.8857 10.2709L40.3668 7.66371C40.548 7.33963 40.5937 6.95705 40.4938 6.59944C40.394 6.24182 40.1568 5.9382 39.834 5.75479C39.5112 5.57139 39.1289 5.5231 38.7706 5.62045C38.4123 5.7178 38.1071 5.9529 37.9215 6.27445L36.4396 8.88164C36.3181 9.0955 36.2548 9.33751 36.256 9.58349C36.2572 9.82947 36.323 10.0708 36.4467 10.2835C36.5703 10.4961 36.7476 10.6726 36.9608 10.7953C37.174 10.918 37.4157 10.9826 37.6617 10.9827ZM46.1763 12.3554L43.846 14.2421C43.6998 14.3574 43.578 14.5006 43.4876 14.6634C43.3972 14.8261 43.34 15.0052 43.3193 15.1902C43.2987 15.3752 43.3149 15.5625 43.3672 15.7412C43.4195 15.9199 43.5068 16.0864 43.6239 16.2311C43.7411 16.3758 43.8858 16.4958 44.0496 16.5841C44.2135 16.6725 44.3933 16.7274 44.5786 16.7457C44.7639 16.764 44.9509 16.7454 45.1289 16.6908C45.3069 16.6363 45.4723 16.5469 45.6155 16.4279L47.9459 14.5412C48.2304 14.3049 48.4103 13.9659 48.4467 13.5979C48.4831 13.2298 48.373 12.8622 48.1403 12.5747C47.9075 12.2872 47.5709 12.103 47.2033 12.062C46.8357 12.0209 46.4668 12.1264 46.1764 12.3554H46.1763ZM51.6437 21.0293L48.7854 21.936C48.6066 21.9894 48.4402 22.078 48.2959 22.1964C48.1517 22.3148 48.0324 22.4608 47.9451 22.6258C47.8579 22.7908 47.8043 22.9715 47.7876 23.1574C47.7709 23.3433 47.7913 23.5307 47.8478 23.7086C47.9042 23.8865 47.9955 24.0514 48.1164 24.1937C48.2372 24.3359 48.3852 24.4527 48.5516 24.5372C48.718 24.6217 48.8996 24.6722 49.0858 24.6858C49.2719 24.6994 49.4589 24.6758 49.6359 24.6164L52.4941 23.7097C52.8496 23.597 53.1457 23.3476 53.3174 23.0164C53.489 22.6853 53.5221 22.2996 53.4093 21.9441C53.2965 21.5886 53.0472 21.2924 52.716 21.1208C52.3849 20.9491 51.9992 20.9161 51.6437 21.0288V21.0293ZM25.8609 16.718V29.9953C25.8609 30.3683 26.009 30.726 26.2728 30.9897C26.5365 31.2534 26.8942 31.4016 27.2671 31.4016H39.1632C39.5361 31.4016 39.8938 31.2534 40.1576 30.9897C40.4213 30.726 40.5694 30.3683 40.5694 29.9953C40.5694 29.6224 40.4213 29.2647 40.1576 29.0009C39.8938 28.7372 39.5361 28.5891 39.1632 28.5891H28.6734V16.718C28.6734 16.345 28.5252 15.9873 28.2615 15.7236C27.9978 15.4599 27.6401 15.3117 27.2671 15.3117C26.8942 15.3117 26.5365 15.4599 26.2728 15.7236C26.009 15.9873 25.8609 16.345 25.8609 16.718Z" fill="currentColor" />
    </symbol>
    <symbol id="temp" width="34" height="50" viewBox="0 0 34 50" fill="none" xmlns="http://www.w3.org/2000/svg">
        <path d="M9.2118 49.9205C4.1322 49.9205 0 45.7877 0 40.7075C0 40.4351 0.0114001 40.1645 0.0348001 39.9017V39.8861C0.0486001 39.7325 0.0665997 39.5741 0.0905997 39.4025C0.287983 38.0117 0.801259 36.6845 1.59107 35.5228C2.38088 34.361 3.42624 33.3956 4.647 32.7005V8.7371C4.64522 7.75584 4.96258 6.80061 5.5512 6.0155L5.5572 6.0083C6.12954 5.23814 6.93024 4.66815 7.84532 4.37948C8.7604 4.0908 9.74323 4.09814 10.6539 4.40045C11.5646 4.70277 12.3567 5.28465 12.9174 6.06327C13.4782 6.84189 13.7791 7.77756 13.7772 8.7371V32.7005C15.1896 33.5059 16.3637 34.6708 17.1803 36.0768C17.9969 37.4828 18.4269 39.0798 18.4266 40.7057C18.4266 45.7877 14.2926 49.9205 9.2118 49.9205ZM1.9518 40.0373V40.0565C1.9326 40.2677 1.923 40.4867 1.923 40.7075C1.92297 42.0102 2.27183 43.2891 2.93333 44.4113C3.59482 45.5336 4.54481 46.4581 5.68455 47.089C6.82429 47.7198 8.11218 48.0339 9.41438 47.9986C10.7166 47.9633 11.9856 47.5798 13.0894 46.8881C14.1933 46.1964 15.0917 45.2217 15.6914 44.0652C16.2911 42.9088 16.5701 41.6128 16.4995 40.3121C16.4288 39.0113 16.0111 37.7532 15.2897 36.6685C14.5682 35.5838 13.5695 34.7122 12.3972 34.1441C12.2353 34.0653 12.0988 33.9426 12.0033 33.7899C11.9078 33.6372 11.8572 33.4608 11.8572 33.2807V8.7371C11.8591 8.18016 11.6849 7.63688 11.3594 7.18496C11.0339 6.73304 10.5738 6.39563 10.045 6.22101C9.5161 6.04639 8.94556 6.0435 8.41496 6.21274C7.88436 6.38199 7.42087 6.7147 7.0908 7.1633L7.0866 7.1687C6.74836 7.62156 6.56605 8.17187 6.567 8.7371V33.2807C6.56707 33.4593 6.5173 33.6345 6.42328 33.7864C6.32926 33.9382 6.19472 34.0609 6.0348 34.1405L6.0054 34.1555C4.93747 34.6775 4.01348 35.4529 3.31403 36.414C2.61458 37.3751 2.16092 38.4928 1.9926 39.6695C1.9746 39.7991 1.9602 39.9209 1.9494 40.0373H1.9518Z" fill="currentColor"/>
        <path d="M9.21292 45.5076C8.3079 45.5078 7.42317 45.2395 6.67063 44.7368C5.91808 44.234 5.33152 43.5194 4.98513 42.6833C4.63874 41.8472 4.54808 40.9272 4.72461 40.0395C4.90114 39.1519 5.33694 38.3366 5.97688 37.6966C6.61683 37.0567 7.43218 36.6209 8.31981 36.4443C9.20745 36.2678 10.1275 36.3585 10.9636 36.7049C11.7997 37.0513 12.5143 37.6378 13.017 38.3904C13.5198 39.1429 13.788 40.0276 13.7879 40.9326C13.7865 42.1456 13.304 43.3084 12.4464 44.1661C11.5887 45.0238 10.4258 45.5062 9.21292 45.5076ZM9.21292 38.277C8.68767 38.2769 8.17417 38.4326 7.73738 38.7243C7.30059 39.016 6.96013 39.4307 6.75904 39.916C6.55795 40.4012 6.50527 40.9352 6.60767 41.4504C6.71007 41.9655 6.96295 42.4388 7.33432 42.8102C7.70568 43.1817 8.17886 43.4347 8.69402 43.5372C9.20917 43.6397 9.74315 43.5871 10.2284 43.3862C10.7137 43.1852 11.1285 42.8448 11.4203 42.4081C11.7122 41.9714 11.8679 41.4579 11.8679 40.9326C11.8673 40.2286 11.5874 39.5536 11.0896 39.0558C10.5919 38.5579 9.91693 38.2778 9.21292 38.277Z" fill="currentColor"/>
        <path d="M9.21244 38.277C8.95783 38.277 8.71365 38.1759 8.53362 37.9958C8.35358 37.8158 8.25244 37.5716 8.25244 37.317V15.918C8.25244 15.6634 8.35358 15.4192 8.53362 15.2392C8.71365 15.0591 8.95783 14.958 9.21244 14.958C9.46705 14.958 9.71123 15.0591 9.89126 15.2392C10.0713 15.4192 10.1724 15.6634 10.1724 15.918V37.317C10.1724 37.5716 10.0713 37.8158 9.89126 37.9958C9.71123 38.1759 9.46705 38.277 9.21244 38.277ZM17.6838 31.6524H12.8172C12.5626 31.6524 12.3185 31.5513 12.1384 31.3712C11.9584 31.1912 11.8572 30.947 11.8572 30.6924C11.8572 30.4378 11.9584 30.1936 12.1384 30.0136C12.3185 29.8335 12.5626 29.7324 12.8172 29.7324H17.6838C17.9384 29.7324 18.1826 29.8335 18.3627 30.0136C18.5427 30.1936 18.6438 30.4378 18.6438 30.6924C18.6438 30.947 18.5427 31.1912 18.3627 31.3712C18.1826 31.5513 17.9384 31.6524 17.6838 31.6524ZM15.9456 26.7276H12.8172C12.5626 26.7276 12.3185 26.6265 12.1384 26.4464C11.9584 26.2664 11.8572 26.0222 11.8572 25.7676C11.8572 25.513 11.9584 25.2688 12.1384 25.0888C12.3185 24.9087 12.5626 24.8076 12.8172 24.8076H15.9456C16.2002 24.8076 16.4444 24.9087 16.6245 25.0888C16.8045 25.2688 16.9056 25.513 16.9056 25.7676C16.9056 26.0222 16.8045 26.2664 16.6245 26.4464C16.4444 26.6265 16.2002 26.7276 15.9456 26.7276ZM17.6838 21.8028H12.8172C12.5626 21.8028 12.3185 21.7017 12.1384 21.5216C11.9584 21.3416 11.8572 21.0974 11.8572 20.8428C11.8572 20.5882 11.9584 20.344 12.1384 20.164C12.3185 19.9839 12.5626 19.8828 12.8172 19.8828H17.6838C17.9384 19.8828 18.1826 19.9839 18.3627 20.164C18.5427 20.344 18.6438 20.5882 18.6438 20.8428C18.6438 21.0974 18.5427 21.3416 18.3627 21.5216C18.1826 21.7017 17.9384 21.8028 17.6838 21.8028ZM15.9456 16.878H12.8172C12.5626 16.878 12.3185 16.7769 12.1384 16.5968C11.9584 16.4168 11.8572 16.1726 11.8572 15.918C11.8572 15.6634 11.9584 15.4192 12.1384 15.2392C12.3185 15.0591 12.5626 14.958 12.8172 14.958H15.9456C16.2002 14.958 16.4444 15.0591 16.6245 15.2392C16.8045 15.4192 16.9056 15.6634 16.9056 15.918C16.9056 16.1726 16.8045 16.4168 16.6245 16.5968C16.4444 16.7769 16.2002 16.878 15.9456 16.878ZM17.6838 11.9538H12.8172C12.5626 11.9538 12.3185 11.8527 12.1384 11.6726C11.9584 11.4926 11.8572 11.2484 11.8572 10.9938C11.8572 10.7392 11.9584 10.495 12.1384 10.315C12.3185 10.1349 12.5626 10.0338 12.8172 10.0338H17.6838C17.9384 10.0338 18.1826 10.1349 18.3627 10.315C18.5427 10.495 18.6438 10.7392 18.6438 10.9938C18.6438 11.2484 18.5427 11.4926 18.3627 11.6726C18.1826 11.8527 17.9384 11.9538 17.6838 11.9538ZM29.6718 12.468C28.2174 12.468 26.8464 11.682 25.9104 10.308C25.1484 9.1944 24.7284 7.7676 24.7284 6.288C24.7284 4.8084 25.1484 3.384 25.911 2.268C26.8464 0.905401 28.2174 0.120601 29.6718 0.120601C31.1262 0.120601 32.4954 0.906001 33.4332 2.2764C33.577 2.48653 33.6314 2.74517 33.5845 2.99542C33.5376 3.24567 33.3932 3.46703 33.183 3.6108C32.9729 3.75458 32.7143 3.80899 32.464 3.76206C32.2138 3.71514 31.9924 3.57073 31.8486 3.3606C31.2744 2.5206 30.4812 2.0406 29.6718 2.0406C28.8498 2.0406 28.077 2.5092 27.4956 3.3606C26.949 4.1592 26.6484 5.2014 26.6484 6.2952C26.6484 7.389 26.9484 8.4312 27.4956 9.2292C28.077 10.0812 28.8498 10.5492 29.6718 10.5492C30.4812 10.5492 31.2738 10.0692 31.8462 9.2292C31.9937 9.02936 32.2128 8.89442 32.4576 8.85273C32.7024 8.81105 32.9539 8.86586 33.1592 9.00565C33.3644 9.14544 33.5075 9.35934 33.5584 9.60241C33.6093 9.84548 33.564 10.0988 33.432 10.3092C32.496 11.682 31.1256 12.468 29.6718 12.468ZM19.422 6.0924C18.8195 6.09252 18.2305 5.91397 17.7295 5.57932C17.2285 5.24467 16.8379 4.76896 16.6073 4.21235C16.3766 3.65574 16.3162 3.04323 16.4337 2.45229C16.5512 1.86134 16.8412 1.3185 17.2672 0.892425C17.6932 0.466346 18.236 0.176164 18.8269 0.0585771C19.4179 -0.0590099 20.0304 0.00128029 20.587 0.231822C21.1437 0.462364 21.6195 0.852803 21.9542 1.35376C22.289 1.85472 22.4676 2.44369 22.4676 3.0462C22.4668 3.85376 22.1457 4.62802 21.5748 5.1991C21.0038 5.77019 20.2296 6.09145 19.422 6.0924ZM19.422 1.9206C19.1992 1.92048 18.9814 1.98645 18.7961 2.11015C18.6108 2.23385 18.4664 2.40974 18.3811 2.61555C18.2958 2.82136 18.2734 3.04785 18.3169 3.26637C18.3603 3.48488 18.4676 3.68561 18.6251 3.84315C18.7826 4.00068 18.9834 4.10796 19.2019 4.15139C19.4204 4.19483 19.6469 4.17247 19.8527 4.08716C20.0585 4.00185 20.2344 3.85741 20.3581 3.67211C20.4818 3.48682 20.5478 3.26899 20.5476 3.0462C20.5473 2.74777 20.4286 2.46166 20.2176 2.25063C20.0066 2.03961 19.7205 1.92092 19.422 1.9206Z" fill="currentColor"/>
    </symbol>
</svg>