<svg xmlns="http://www.w3.org/2000/svg">
    <symbol id="arrow_down" width="11" height="8" viewBox="0 0 11 8" fill="none" xmlns="http://www.w3.org/2000/svg">
        <path d="M5.19604 7.5L-0.000106812 0L10.3922 0L5.19604 7.5Z" fill="#2F2F2F" />
    </symbol>
    <symbol id="menu_burger" width="16" height="10" viewBox="0 0 16 10" fill="none" xmlns="http://www.w3.org/2000/svg">
        <path d="M1 1H11" stroke="white" stroke-width="2" stroke-linecap="round" />
        <path d="M1 5H13" stroke="white" stroke-width="2" stroke-linecap="round" />
        <path d="M1 9H15" stroke="white" stroke-width="2" stroke-linecap="round" />
    </symbol>
    <symbol id="search" width="14" height="14" viewBox="0 0 14 14" fill="none" xmlns="http://www.w3.org/2000/svg">
        <g clip-path="url(#clip0_2001_8450)">
        <path d="M13.829 13.0046L10.347 9.5227C11.2959 8.36221 11.7624 6.88141 11.6501 5.38661C11.5378 3.8918 10.8552 2.49734 9.74363 1.49166C8.63202 0.485992 7.17638 -0.0539518 5.67783 -0.0164832C4.17928 0.0209854 2.75245 0.633 1.69248 1.69297C0.632511 2.75294 0.0204971 4.17976 -0.0169715 5.67832C-0.05444 7.17687 0.485504 8.6325 1.49118 9.74412C2.49685 10.8557 3.89131 11.5383 5.38612 11.6506C6.88093 11.7629 8.36172 11.2964 9.52221 10.3475L13.0041 13.8294C13.1141 13.9357 13.2615 13.9945 13.4144 13.9932C13.5674 13.9918 13.7137 13.9305 13.8219 13.8223C13.93 13.7142 13.9914 13.5679 13.9927 13.4149C13.994 13.262 13.9352 13.1146 13.829 13.0046ZM5.83321 10.5004C4.91023 10.5004 4.00797 10.2267 3.24055 9.71389C2.47312 9.20111 1.87498 8.47227 1.52177 7.61955C1.16856 6.76683 1.07614 5.82852 1.25621 4.92327C1.43627 4.01803 1.88073 3.18651 2.53337 2.53386C3.18602 1.88122 4.01754 1.43676 4.92278 1.2567C5.82803 1.07663 6.76634 1.16905 7.61906 1.52226C8.47178 1.87547 9.20062 2.4736 9.7134 3.24103C10.2262 4.00846 10.4999 4.91072 10.4999 5.83369C10.4985 7.07095 10.0064 8.25712 9.1315 9.13199C8.25663 10.0069 7.07046 10.499 5.83321 10.5004Z" fill="#2F2F2F"/>
        </g>
        <defs>
        <clipPath id="clip0_2001_8450">
        <rect width="14" height="14" fill="white"/>
        </clipPath>
        </defs>
    </symbol>
    <symbol id="leaf" width="16" height="16" viewBox="0 0 16 16" fill="none" xmlns="http://www.w3.org/2000/svg">
        <path d="M1.99083 3.93285C0.719483 5.20441 0.00365383 6.92784 1.39489e-05 8.72594C-0.00362593 10.524 0.70522 12.2504 1.97141 13.5271C3.39889 10.2254 5.9431 7.46755 9.11851 5.82644C6.37772 8.14553 4.52758 11.3446 3.88442 14.8768C6.40921 16.0713 9.51665 15.6343 11.6045 13.5465C14.9838 10.1671 15.5373 0 15.5373 0C15.5373 0 5.37017 0.553512 1.99083 3.93285Z" fill="#1F422E" />
    </symbol>
    <symbol id="check" width="13" height="13" viewBox="0 0 13 13" fill="none" xmlns="http://www.w3.org/2000/svg">
        <path d="M12.0404 5.06141L11.4034 4.42558C11.3257 4.34816 11.2642 4.25615 11.2222 4.15483C11.1803 4.05351 11.1588 3.9449 11.159 3.83524V3.09033C11.1585 2.63711 10.9783 2.20259 10.6579 1.88207C10.3375 1.56154 9.90304 1.38119 9.44983 1.38058L8.70491 1.38058C8.48392 1.37998 8.27205 1.29238 8.11516 1.13674L7.47874 0.499742C7.1579 0.179719 6.72324 0 6.27008 0C5.81691 0 5.38225 0.179719 5.06141 0.499742L4.42558 1.13674C4.2685 1.29253 4.05647 1.38031 3.83524 1.38116H3.08974C2.63653 1.38178 2.20207 1.56213 1.88165 1.88265C1.56124 2.20317 1.38104 2.6377 1.38058 3.09091V3.83524C1.38086 3.94486 1.35947 4.05345 1.31762 4.15476C1.27577 4.25608 1.2143 4.34811 1.13674 4.42558L0.499742 5.06141C0.179719 5.38225 0 5.81691 0 6.27008C0 6.72324 0.179719 7.1579 0.499742 7.47874L1.13674 8.11458C1.21441 8.19199 1.27599 8.284 1.31793 8.38532C1.35988 8.48664 1.38137 8.59525 1.38116 8.70491V9.44983C1.38162 9.90304 1.56182 10.3376 1.88224 10.6581C2.20265 10.9786 2.63711 11.159 3.09033 11.1596H3.83524C4.05632 11.1603 4.2682 11.2481 4.42499 11.404L5.06141 12.0404C5.38218 12.3606 5.81687 12.5404 6.27008 12.5404C6.72328 12.5404 7.15798 12.3606 7.47874 12.0404L8.11458 11.404C8.27165 11.2482 8.48368 11.1604 8.70491 11.1596H9.45041C9.90362 11.159 10.3381 10.9786 10.6585 10.6581C10.9789 10.3376 11.1591 9.90304 11.1596 9.44983V8.70491C11.1594 8.59525 11.1809 8.48664 11.2228 8.38532C11.2647 8.284 11.3263 8.19199 11.404 8.11458L12.0404 7.47874C12.3604 7.1579 12.5402 6.72324 12.5402 6.27008C12.5402 5.81691 12.3604 5.38225 12.0404 5.06141ZM8.32924 5.41141L5.99591 7.74474C5.95537 7.78545 5.90719 7.81775 5.85413 7.83979C5.80108 7.86183 5.74419 7.87318 5.68674 7.87318C5.62929 7.87318 5.57241 7.86183 5.51935 7.83979C5.4663 7.81775 5.41812 7.78545 5.37758 7.74474L4.21091 6.57808C4.13363 6.49514 4.09156 6.38545 4.09356 6.2721C4.09556 6.15876 4.14147 6.05062 4.22163 5.97046C4.30179 5.89031 4.40993 5.84439 4.52327 5.84239C4.63661 5.84039 4.74631 5.88246 4.82924 5.95974L5.68674 6.81783L7.71091 4.79424C7.79384 4.71696 7.90354 4.67489 8.01688 4.67689C8.13022 4.67889 8.23836 4.72481 8.31852 4.80496C8.39868 4.88512 8.44459 4.99326 8.44659 5.1066C8.44859 5.21995 8.40652 5.32964 8.32924 5.41258V5.41141Z" fill="#26AD60" />
    </symbol>
    <symbol id="truck" width="26" height="26" viewBox="0 0 26 26" fill="none" xmlns="http://www.w3.org/2000/svg">
        <path d="M17.061 7.31443V16.5635C17.6568 15.8787 18.5258 15.4335 19.4961 15.4335C21.2772 15.4335 22.7511 16.9044 22.7511 18.6854C22.7511 18.9679 22.6989 19.2381 22.6283 19.4991H23.5587C23.6658 19.4996 23.772 19.4788 23.8711 19.4381C23.9702 19.3974 24.0602 19.3375 24.1361 19.2619C24.212 19.1863 24.2722 19.0964 24.3133 18.9975C24.3544 18.8986 24.3755 18.7925 24.3755 18.6854V12.9984C24.3736 12.8345 24.3222 12.675 24.2282 12.5408L20.921 7.66757C20.8455 7.55759 20.7441 7.46786 20.6257 7.40628C20.5074 7.3447 20.3757 7.31316 20.2423 7.31443H17.061ZM2.43507 4.87012C2.32821 4.87052 2.22247 4.89197 2.1239 4.93323C2.02532 4.9745 1.93584 5.03478 1.86056 5.11063C1.78529 5.18648 1.72568 5.27641 1.68516 5.37529C1.64464 5.47418 1.62399 5.58007 1.6244 5.68694V18.6854C1.6244 19.1337 1.98674 19.4991 2.43507 19.4991H4.17926C4.10426 19.2342 4.064 18.9607 4.0595 18.6854C4.0595 16.9044 5.52731 15.4304 7.31142 15.4304C9.09245 15.4304 10.5633 16.9044 10.5633 18.6854C10.5633 18.9679 10.5111 19.2381 10.4405 19.4991H15.4397C15.888 19.4991 16.2504 19.1307 16.2473 18.6854V5.68694C16.2481 5.47164 16.1636 5.2648 16.0122 5.11171C15.8608 4.95861 15.655 4.87174 15.4397 4.87012H2.43507ZM19.4992 16.2503C18.8541 16.2527 18.2362 16.5101 17.78 16.9662C17.3239 17.4223 17.0665 18.0403 17.0641 18.6854C17.0641 20.0212 18.1604 21.1266 19.4992 21.1266C20.835 21.1266 21.9343 20.0212 21.9343 18.6854C21.9319 18.0403 21.6745 17.4223 21.2184 16.9662C20.7623 16.5101 20.1443 16.2527 19.4992 16.2503ZM7.30835 16.2503C6.6638 16.2535 6.04661 16.5112 5.59113 16.9673C5.13565 17.4233 4.87874 18.0408 4.87631 18.6854C4.87631 20.0212 5.97564 21.1266 7.31142 21.1266C8.64719 21.1266 9.74652 20.0212 9.74652 18.6854C9.74409 18.0403 9.48676 17.4223 9.03061 16.9662C8.57447 16.5101 7.95343 16.2527 7.30835 16.2503Z" fill="white"/>
    </symbol>
    <symbol id="clock" width="22" height="22" viewBox="0 0 22 22" fill="none" xmlns="http://www.w3.org/2000/svg">
        <path d="M11 0C17.0751 0 22 4.92487 22 11C22 17.0751 17.0751 22 11 22C4.92487 22 0 17.0751 0 11C0 4.92487 4.92487 0 11 0ZM10.25 6V12.4014L15.084 15.624L15.916 14.376L11.75 11.5986V6H10.25Z" fill="white"/>
    </symbol>
    <symbol id="discount-label" width="24" height="24" viewBox="0 0 24 24" fill="none" xmlns="http://www.w3.org/2000/svg">
        <path d="M21.8433 0H12.1553C11.7104 0.00281305 11.2843 0.179703 10.9681 0.4928L0.496127 11.0656C0.339002 11.2208 0.214251 11.4057 0.129108 11.6095C0.0439646 11.8133 0.00012207 12.0319 0.00012207 12.2528C0.00012207 12.4737 0.0439646 12.6923 0.129108 12.8961C0.214251 13.0999 0.339002 13.2848 0.496127 13.44L10.0833 23.0272C10.4029 23.342 10.8332 23.5189 11.2817 23.52C11.704 23.5035 12.1043 23.3273 12.4017 23.0272L22.9857 12.5552C23.1489 12.4023 23.2804 12.2188 23.3726 12.0151C23.4649 11.8114 23.5161 11.5915 23.5233 11.368V1.68C23.5233 1.23444 23.3463 0.807122 23.0313 0.492061C22.7162 0.177 22.2889 0 21.8433 0ZM19.6705 6.2272C19.3555 6.54181 18.9285 6.71852 18.4833 6.71852C18.0381 6.71852 17.6111 6.54181 17.2961 6.2272C17.061 5.99233 16.9008 5.69299 16.8358 5.36704C16.7708 5.0411 16.8039 4.7032 16.931 4.3961C17.0581 4.08899 17.2734 3.82649 17.5498 3.6418C17.8261 3.4571 18.151 3.35852 18.4833 3.35852C18.8157 3.35852 19.1406 3.4571 19.4169 3.6418C19.6932 3.82649 19.9086 4.08899 20.0356 4.3961C20.1627 4.7032 20.1959 5.0411 20.1309 5.36704C20.0659 5.69299 19.9057 5.99233 19.6705 6.2272Z" fill="#F8F8F8"/>
        <path d="M11.4656 14.3309L9.29204 12.1758L8.21532 13.2617L10.8441 15.8682C11.077 16.0991 11.0786 16.475 10.8477 16.7078C10.6168 16.9407 10.2409 16.9423 10.0081 16.7114L7.37929 14.1049L6.70265 14.7874C6.31379 15.1795 5.68063 15.1822 5.28845 14.7934L5.26375 14.7689C4.87156 14.38 4.86886 13.7469 5.25772 13.3547L5.93436 12.6723L5.56557 12.3066C5.33273 12.0757 5.33112 11.6998 5.56199 11.467C5.79285 11.2342 6.16876 11.2325 6.40161 11.4634L6.7704 11.8291L7.84711 10.7431L7.6444 10.5422C7.31984 10.2203 7.3176 9.69635 7.63941 9.37178C7.96123 9.04722 8.48522 9.04498 8.80979 9.36679L9.01249 9.56778L13.0027 5.54344L16.6212 9.13122C18.3501 10.8455 18.1227 13.0015 16.7293 14.4069C15.3359 15.8122 13.1822 16.033 11.4656 14.3309ZM13.1429 8.292L10.4574 11.0004L12.4334 12.9596C13.2485 13.7678 14.3733 13.819 15.184 13.0013C15.9947 12.1837 15.9339 11.0594 15.1188 10.2512L13.1429 8.292Z" fill="#1F422E"/>
    </symbol>
    <symbol id="card" width="25" height="18" viewBox="0 0 25 18" fill="none" xmlns="http://www.w3.org/2000/svg">
        <path d="M24.856 1.664C24.856 0.728 24.128 0 23.192 0H1.716C0.78 0 0.052 0.728 0.052 1.664V3.952H24.856V1.664ZM0 6.292V15.496C0 16.432 0.728 17.16 1.664 17.16H23.14C24.076 17.16 24.804 16.432 24.804 15.496V6.292H0ZM4.784 14.716L4.992 14.924L4.316 15.6C4.16 15.756 3.848 15.756 3.692 15.6L2.028 13.988C1.872 13.832 1.872 13.572 2.028 13.364L3.692 11.7C3.848 11.544 4.16 11.544 4.316 11.7L4.992 12.376L4.784 12.584C4.212 13.208 4.212 14.144 4.784 14.716ZM9.412 13.988L7.748 15.652C7.592 15.808 7.332 15.808 7.124 15.652L5.46 13.988C5.304 13.832 5.304 13.572 5.46 13.364L7.124 11.7C7.28 11.544 7.54 11.544 7.748 11.7L9.412 13.364C9.62 13.572 9.62 13.832 9.412 13.988Z" fill="#F8F8F8"/>
    </symbol>
    <symbol id="best" width="26" height="26" viewBox="0 0 26 26" fill="none" xmlns="http://www.w3.org/2000/svg">
        <path d="M12.9994 0C8.07076 0 4.06189 4.00887 4.06189 8.9375C4.06189 13.8661 8.07076 17.875 12.9994 17.875C17.9264 17.875 21.9369 13.8661 21.9369 8.9375C21.9369 4.00887 17.9264 0 12.9994 0ZM17.6973 7.67325L16.1535 9.607L16.3225 12.1339C16.3321 12.2726 16.3057 12.4114 16.2459 12.537C16.1861 12.6625 16.095 12.7705 15.9813 12.8505C15.8433 12.9477 15.6787 12.9999 15.51 13C15.4028 13 15.2939 12.9789 15.1931 12.935L12.9994 12.0039L10.8073 12.935C10.5473 13.0455 10.2483 13.0146 10.0191 12.8505C9.90596 12.77 9.8152 12.6619 9.75549 12.5365C9.69577 12.4111 9.66906 12.2725 9.67789 12.1339L9.84689 9.607L8.30314 7.67325C8.13089 7.45875 8.08051 7.17112 8.16664 6.9095C8.25277 6.64787 8.46564 6.44963 8.73214 6.37975L11.0364 5.77688L12.3006 3.64812C12.5931 3.15412 13.4056 3.15412 13.6965 3.64812L14.9608 5.77688L17.2666 6.37975C17.5315 6.44963 17.7444 6.6495 17.8321 6.9095C17.9199 7.1695 17.8679 7.45713 17.6973 7.67325Z" fill="#F8F8F8"/>
        <path d="M3.85877 14.2073L0.108274 20.7187C-0.055851 21.0047 -0.031476 21.3605 0.168399 21.6205C0.368274 21.8805 0.704649 21.9975 1.02315 21.9098L5.79415 20.6277L7.06327 25.3987C7.14777 25.7155 7.4159 25.9512 7.7409 25.995C7.77665 25.9983 7.81402 25.9999 7.84815 25.9999C7.99077 25.9999 8.13087 25.9623 8.25438 25.891C8.37789 25.8197 8.48046 25.7172 8.55177 25.5937L12.0991 19.4544C8.57452 19.1554 5.54552 17.1193 3.85877 14.2073ZM25.8921 20.7187L22.14 14.2073C20.4549 17.1193 17.4243 19.1554 13.8996 19.4544L17.447 25.5937C17.5933 25.8472 17.863 25.9999 18.1506 25.9999C18.1848 25.9999 18.2221 25.9983 18.2563 25.9934C18.5829 25.9495 18.8494 25.7139 18.9355 25.397L20.2046 20.626L24.9756 21.9082C25.2941 21.9959 25.6289 21.8789 25.8304 21.6189C26.0319 21.3605 26.0546 21.0047 25.8921 20.7187Z" fill="#F8F8F8"/>
    </symbol>
    <symbol id="play" width="25" height="29" viewBox="0 0 25 29" fill="none" xmlns="http://www.w3.org/2000/svg">
        <path d="M24.5488 14.1735L4.57764e-05 28.3467L4.57764e-05 0.000226021L24.5488 14.1735Z" fill="white" />
    </symbol>
    <symbol id="map-point" width="15" height="20" viewBox="0 0 15 20" fill="none" xmlns="http://www.w3.org/2000/svg">
        <path d="M7.24324 0C3.2493 0 0 3.2493 0 7.2432C0 12.1998 6.48199 19.4763 6.75797 19.7836C7.01719 20.0723 7.46977 20.0718 7.72852 19.7836C8.00449 19.4763 14.4865 12.1998 14.4865 7.2432C14.4864 3.2493 11.2371 0 7.24324 0ZM7.24324 10.8875C5.23379 10.8875 3.59902 9.25266 3.59902 7.2432C3.59902 5.23375 5.23383 3.59898 7.24324 3.59898C9.25266 3.59898 10.8874 5.23379 10.8874 7.24324C10.8874 9.2527 9.25266 10.8875 7.24324 10.8875Z" fill="#26AD60"/>
    </symbol>
    <symbol id="phone" width="20" height="20" viewBox="0 0 20 20" fill="none" xmlns="http://www.w3.org/2000/svg">
        <path fill-rule="evenodd" clip-rule="evenodd" d="M19.6348 17.5919C19.502 17.7243 19.3418 17.8936 19.172 18.0727C18.7483 18.5224 18.2189 19.0814 17.8871 19.3082C16.1414 20.5011 13.8059 19.9303 12.1539 19.242C9.97467 18.3339 7.60205 16.6603 5.4717 14.5296C3.33935 12.3989 1.66584 10.0255 0.75783 7.8475C0.0703299 6.19516 -0.501662 3.85922 0.691424 2.11312C0.917986 1.78109 1.47834 1.25254 1.92748 0.827969C2.10717 0.658672 2.27513 0.498711 2.40795 0.366328C2.64374 0.131709 2.96284 0 3.29547 0C3.6281 0 3.9472 0.131709 4.18299 0.366328L7.39502 3.57742C7.62951 3.8132 7.76114 4.13221 7.76114 4.46475C7.76114 4.79728 7.62951 5.11629 7.39502 5.35207L6.52002 6.22531C6.2278 6.51539 6.03706 6.89208 5.97618 7.29931C5.91531 7.70653 5.98755 8.12253 6.18217 8.48539C7.38567 10.7569 9.24367 12.6146 11.5154 13.8177C11.8781 14.0122 12.2941 14.0844 12.7012 14.0234C13.1083 13.9624 13.4848 13.7716 13.7747 13.4793L14.6475 12.606C14.8833 12.3714 15.2024 12.2397 15.535 12.2397C15.8677 12.2397 16.1868 12.3714 16.4226 12.606L19.6348 15.8177C19.8693 16.0534 20.0009 16.3723 20.0009 16.7048C20.0009 17.0373 19.8693 17.3562 19.6348 17.5919Z" fill="currentColor"/>
    </symbol>
    <symbol id="envelope" width="20" height="15" viewBox="0 0 20 15" fill="none" xmlns="http://www.w3.org/2000/svg">
        <path d="M9.0187 7.38693C9.54093 7.7351 10.4573 7.73514 10.9796 7.38689L10.9799 7.38674L19.8809 1.45267C19.589 0.608286 18.7865 0 17.8441 0H2.15404C1.21165 0 0.409182 0.608286 0.117188 1.45267L9.01843 7.38678L9.0187 7.38693Z" fill="#26AD60"/>
        <path d="M11.6308 8.3627L11.6305 8.3629C11.1734 8.66762 10.5866 8.82001 10 8.82001C9.41328 8.82001 8.82671 8.66766 8.36956 8.36286L8.36936 8.36274L0 2.7832V12.8252C0 14.0133 0.966687 14.98 2.15494 14.98H17.8451C19.0334 14.98 20 14.0133 20 12.8252V2.7832L11.6308 8.3627Z" fill="#26AD60"/>
    </symbol>
    <symbol id="close"  width="12" height="12" viewBox="0 0 12 12" fill="none" xmlns="http://www.w3.org/2000/svg">
        <path d="M11 1L1 11M1 1L11 11" stroke="white" stroke-width="2" stroke-linecap="round" stroke-linejoin="round" />
    </symbol>
</svg>